<svg version="1.1" xmlns="http://www.w3.org/2000/svg" xmlns:xlink="http://www.w3.org/1999/xlink" width="91.44325" height="99.84077" viewBox="0,0,91.44325,99.84077"><g transform="translate(-194.27839,-130.18002)"><g data-paper-data="{&quot;isPaintingLayer&quot;:true}" stroke-miterlimit="10" stroke-dasharray="" stroke-dashoffset="0" style="mix-blend-mode: normal"><path d="M251.92165,130.67925c0.3,-0.2 0.8,-0.1 0.9,0.3l2.6,10.7c0,0 6.4,4.7 8.3,8c3.2,5.5 3.3,10 3.3,10c0,0 7.1,2.1 8.3,7.8c1.2,5.7 -3.2,16.5 -22,20.2c-18.8,3.7 -33.9,-1.4 -41,-12.8c-7.1,-11.4 4.1,-25 3.5,-24.2l-2.1,-17.9c-0.1,-0.4 0.4,-0.7 0.8,-0.5l12.1,7.9c0,0 4.5,-1.7 9.2,-1.9c2.8,-0.2 5.2,0 7.5,0.4z" fill="#ffab19" fill-rule="evenodd" stroke="#001026" stroke-width="1.2" stroke-linecap="butt" stroke-linejoin="miter"/><path d="M266.72165,160.07924c0,0 6.9,1.8 8.1,7.5c1.2,5.7 -3.6,16 -22.2,19.6c-24.2,5 -35.7,-9.4 -29,-20c6.7,-10.7 18.2,-1.6 26.6,-2.2c7.2,-0.5 8,-6.8 16.5,-4.9z" fill="#ffffff" fill-rule="evenodd" stroke="none" stroke-width="1" stroke-linecap="butt" stroke-linejoin="miter"/><path d="M235.22165,170.77925c0,-0.4 0.4,-0.7 0.8,-0.6c1.9,0.7 7.3,2.3 13.3,2.7c5.4,0.3 8.6,0 10.1,-0.3c0.5,-0.1 0.9,0.4 0.7,0.9c-0.9,2.7 -4.7,10.2 -15.2,9.6c-9.1,-1 -10,-7.4 -9.7,-12.3z" fill="#ffffff" fill-rule="evenodd" stroke="#001026" stroke-width="1.2" stroke-linecap="round" stroke-linejoin="round"/><path d="M285.12164,161.17925c-4.7,3.8 -11.9,3.9 -11.9,3.9" fill="none" fill-rule="evenodd" stroke="#001026" stroke-width="1.2" stroke-linecap="round" stroke-linejoin="round"/><path d="M283.82165,172.37925c-6.3,0.5 -10.2,-1.4 -10.2,-1.4" fill="none" fill-rule="evenodd" stroke="#001026" stroke-width="1.2" stroke-linecap="round" stroke-linejoin="round"/><path d="M249.82165,162.37925c2.1,0 4.3,0.2 4.4,0.9c0.1,1.4 -1.4,4.2 -3,4.3c-1.8,0.2 -6,-2.3 -6,-3.9c-0.1,-1.2 2.6,-1.3 4.6,-1.3z" fill="#001026" fill-rule="evenodd" stroke="#001026" stroke-width="1.2" stroke-linecap="round" stroke-linejoin="round"/><path d="M204.82165,160.87925c0,0 8.6,2.8 12.1,5.9" fill="none" fill-rule="evenodd" stroke="#001026" stroke-width="1.2" stroke-linecap="round" stroke-linejoin="round"/><path d="M217.22165,170.27925c-4.3,1.7 -11.7,0.6 -11.7,0.6" fill="none" fill-rule="evenodd" stroke="#001026" stroke-width="1.2" stroke-linecap="round" stroke-linejoin="round"/><g fill-rule="evenodd"><path d="M261.62164,150.67925c2.9,4.5 3,9.6 0.2,11.4c-2.8,1.8 -7.4,-0.3 -10.4,-4.8c-2.9,-4.5 -3,-9.6 -0.2,-11.4c2.8,-1.9 7.5,0.3 10.4,4.8z" fill="#ffffff" stroke="#001026" stroke-width="1.2" stroke-linecap="round" stroke-linejoin="round"/><path d="M261.22165,156.37925c0,1.1 -0.8,2 -1.8,2c-1,0 -1.8,-0.9 -1.8,-2c0,-1.1 0.8,-2 1.8,-2c1,0 1.8,0.9 1.8,2" fill="#001026" stroke="none" stroke-width="1" stroke-linecap="butt" stroke-linejoin="miter"/></g><g fill-rule="evenodd"><path d="M236.82165,153.47923c3,4.4 2.8,9.8 0.1,11.7c-3.3,1.9 -7.7,0.5 -10.7,-3.9c-3.1,-4.4 -3.3,-10.1 -0.2,-12.3c3.1,-2.3 7.8,0.1 10.8,4.5z" fill="#ffffff" stroke="#001026" stroke-width="1.2" stroke-linecap="round" stroke-linejoin="round"/><path d="M236.22165,159.27925c0,1.1 -0.8,2 -1.8,2c-1,0 -1.8,-0.9 -1.8,-2c0,-1.1 0.8,-2 1.8,-2c1,0.1 1.8,0.9 1.8,2" fill="#001026" stroke="none" stroke-width="1" stroke-linecap="butt" stroke-linejoin="miter"/></g><path d="M239.09396,180.07785h-0.21658c0.08533,0.04343 0.17085,0.08647 0.25659,0.12907zM243.74535,186.90942c-0.81098,-0.0981 -1.6895,-0.16841 -2.5739,-0.25852c-1.46963,0.23938 -2.95399,0.32883 -4.33437,-0.28845c-1.39771,-0.62501 -2.15318,-2.17732 -3.22977,-3.26599l-0.03623,-0.21397l-0.0794,0.05292l-1.58118,-2.37177c-0.31671,-0.4604 -0.50209,-1.01816 -0.50209,-1.61921c0,-0.71088 0.25933,-1.36119 0.68853,-1.8615c-0.43141,-0.55269 -0.58774,-1.1259 -0.58774,-1.1259c-0.23199,-1.5859 -1.38981,-3.31287 -0.69598,-4.75768c2.49451,-5.19451 11.43497,-3.80192 15.53125,-2.09871c1.71021,0.71109 3.26411,1.98353 5.104,2.19621c2.71716,0.31408 5.59771,0.14849 8.38365,0.25905l2.31358,-1.79944c0.48792,-0.38704 1.10508,-0.61819 1.77625,-0.61819c1.57977,0 2.86043,1.28065 2.86043,2.86042c0,0.44977 -0.10381,0.87531 -0.28878,1.25394l-1.57736,3.41763l-0.07948,-0.03668c-0.03868,0.13545 -0.08002,0.27029 -0.12428,0.40444c-0.11944,0.36207 -0.33237,0.66924 -0.58927,0.95129c-0.30448,0.67012 -0.85989,1.20206 -1.54624,1.47585c-0.04512,0.05182 -0.08877,0.10457 -0.13063,0.15843c-0.86899,1.11797 -2.97267,4.86733 -3.8994,5.45145c-3.01555,1.90074 -7.56089,1.1428 -11.37126,0.97454l-0.59145,1.84409c0,0 -1.84168,0.36834 -2.83884,-0.98424zM236.61143,173.74546c0.05426,-0.16896 0.10853,-0.33791 0.1628,-0.50687c-0.16192,0.10645 -0.22818,0.2697 -0.1628,0.50687z" fill="#ffffff" fill-rule="nonzero" stroke="none" stroke-width="0.5" stroke-linecap="butt" stroke-linejoin="miter"/><g fill-rule="evenodd"><path d="M237.24965,150.76092c3.50641,5.14273 3.27265,11.45426 0.11688,13.67498c-3.85704,2.22072 -8.99977,0.5844 -12.50617,-4.55832c-3.62329,-5.14273 -3.85705,-11.80489 -0.23376,-14.37626c3.62329,-2.68824 9.11665,0.11688 12.62305,5.2596z" fill="#ffffff" stroke="#001026" stroke-width="1.2" stroke-linecap="round" stroke-linejoin="round"/><path d="M236.54837,157.53998c0,1.28568 -0.93504,2.3376 -2.10384,2.3376c-1.1688,0 -2.10385,-1.05192 -2.10385,-2.3376c0,-1.28568 0.93505,-2.3376 2.10385,-2.3376c1.1688,0.11688 2.10384,1.05192 2.10384,2.3376" fill="#001026" stroke="none" stroke-width="1" stroke-linecap="butt" stroke-linejoin="miter"/></g><path d="M221.56193,150.58881c-0.30908,-1.96891 -1.30104,-3.34974 0.71124,-5.0388c0.04364,-0.5959 0.18331,-1.14957 0.55128,-1.45605c1.08469,-0.90342 4.81062,0.07288 6.15681,0.08026c1.83964,0.44951 5.58849,0.55365 7.09673,1.52212c1.35343,0.86906 0.87019,2.7365 0.43009,3.9891c-0.00927,1.51061 -0.96089,2.91365 -2.23344,3.97602c-1.23124,1.48232 -2.7956,2.70703 -4.5416,3.58003c-1.04165,0.64967 -1.74107,0.57137 -2.94477,0.56829c-3.50115,-0.00897 -4.57135,-2.00393 -4.79344,-4.55234c-0.1976,-0.90597 -0.30192,-1.83426 -0.4329,-2.66862zM235.24333,146.94268c-0.15847,-0.06479 -0.32397,-0.12418 -0.49538,-0.17897c0.25219,0.10039 0.49103,0.2169 0.69738,0.36724c-0.04462,-0.08571 -0.11033,-0.15079 -0.202,-0.18827z" fill="#ffab19" fill-rule="nonzero" stroke="#000000" stroke-width="1.5" stroke-linecap="butt" stroke-linejoin="miter"/><g fill-rule="evenodd"><path d="M263.26321,150.39079c3.5064,5.14273 3.27265,11.45425 0.11688,13.67497c-3.85705,2.22072 -8.99977,0.5844 -12.50617,-4.55832c-3.62329,-5.14273 -3.85704,-11.80488 -0.23376,-14.37625c3.62329,-2.68824 9.11665,0.11688 12.62305,5.2596z" fill="#ffffff" stroke="#001026" stroke-width="1.2" stroke-linecap="round" stroke-linejoin="round"/><path d="M262.56192,157.16985c0,1.28568 -0.93504,2.3376 -2.10384,2.3376c-1.1688,0 -2.10385,-1.05192 -2.10385,-2.3376c0,-1.28568 0.93505,-2.3376 2.10385,-2.3376c1.1688,0.11688 2.10384,1.05192 2.10384,2.3376" fill="#001026" stroke="none" stroke-width="1" stroke-linecap="butt" stroke-linejoin="miter"/></g><path d="M247.57549,150.21866c-0.30908,-1.96891 -1.30104,-3.34974 0.71124,-5.0388c0.04364,-0.5959 0.18331,-1.14957 0.55128,-1.45605c1.08469,-0.90342 4.81062,0.07288 6.15681,0.08026c1.83964,0.44951 5.58849,0.55365 7.09673,1.52212c1.35343,0.86906 0.87019,2.7365 0.43009,3.9891c-0.00927,1.51061 -0.96089,2.91365 -2.23344,3.97602c-1.23124,1.48232 -2.7956,2.70703 -4.5416,3.58003c-1.04165,0.64967 -1.74107,0.57137 -2.94477,0.56829c-3.50115,-0.00897 -4.57135,-2.00393 -4.79344,-4.55234c-0.1976,-0.90597 -0.30192,-1.83426 -0.4329,-2.66862zM261.25689,146.57253c-0.15847,-0.06479 -0.32397,-0.12418 -0.49538,-0.17897c0.25219,0.10039 0.49103,0.2169 0.69738,0.36724c-0.04462,-0.08571 -0.11033,-0.15079 -0.202,-0.18827z" fill="#ffab19" fill-rule="nonzero" stroke="#000000" stroke-width="1.5" stroke-linecap="butt" stroke-linejoin="miter"/><path d="M238.46247,177.13939l18.9122,5.13665" fill="none" fill-rule="nonzero" stroke="#000000" stroke-width="1.5" stroke-linecap="round" stroke-linejoin="miter"/><path d="M234.64075,167.67451c0.45015,-0.12851 0.87346,-0.05325 1.28104,0.14142c3.62911,-0.80659 8.23012,0.15563 10.84984,1.24489c1.71021,0.71109 3.26411,1.98353 5.104,2.19621c2.71716,0.31408 5.59771,0.14849 8.38365,0.25905l2.31358,-1.79945c0.48792,-0.38704 1.10508,-0.61819 1.77625,-0.61819c1.57977,0 2.86042,1.28065 2.86042,2.86042c0,0.44977 -0.10381,0.87531 -0.28877,1.25394l-1.57736,3.41763l-0.07949,-0.03668c-0.03868,0.13545 -0.08002,0.27029 -0.12428,0.40444c-0.11944,0.36207 -0.33237,0.66924 -0.58927,0.95129c-0.30448,0.67012 -0.85989,1.20206 -1.54624,1.47585c-0.04512,0.05182 -0.08877,0.10457 -0.13063,0.15843c-0.86899,1.11797 -2.97267,4.86733 -3.8994,5.45145c-3.01555,1.90074 -7.5609,1.1428 -11.37127,0.97454l-0.59145,1.84409c0,0 -1.84168,0.36834 -2.83884,-0.98424h-0.00001c-0.81098,-0.0981 -1.6895,-0.16841 -2.5739,-0.25852c-1.46963,0.23938 -2.95399,0.32883 -4.33437,-0.28844c-1.39771,-0.62501 -2.15318,-2.17732 -3.22977,-3.26599l-0.03623,-0.21397l-0.0794,0.05293l-1.58118,-2.37177c-0.31671,-0.4604 -0.50209,-1.01816 -0.50209,-1.61922c0,-0.5797 0.17245,-1.11911 0.46884,-1.56976c-0.07254,-0.31344 -0.13751,-0.63631 -0.19449,-0.97062c-0.12298,-0.26161 -0.17355,-0.44702 -0.17355,-0.44702c-0.23199,-1.5859 -1.38981,-3.31287 -0.69599,-4.75768c0.39229,-0.8169 0.94401,-1.4709 1.61123,-1.98639c0.44648,-0.71396 1.01702,-1.27821 1.78915,-1.49863z" fill="#ffffff" fill-rule="nonzero" stroke="none" stroke-width="0.5" stroke-linecap="butt" stroke-linejoin="miter"/><g fill-rule="evenodd"><path d="M237.67681,150.72108c3.50641,5.14273 3.27265,11.45426 0.11688,13.67498c-3.85704,2.22072 -8.99977,0.5844 -12.50617,-4.55832c-3.62329,-5.14273 -3.85705,-11.80489 -0.23376,-14.37626c3.62329,-2.68824 9.11665,0.11688 12.62305,5.2596z" fill="#ffffff" stroke="#001026" stroke-width="1.2" stroke-linecap="round" stroke-linejoin="round"/><path d="M236.97553,157.50016c0,1.28568 -0.93504,2.33761 -2.10384,2.33761c-1.1688,0 -2.10385,-1.05193 -2.10385,-2.33761c0,-1.28568 0.93505,-2.3376 2.10385,-2.3376c1.1688,0.11688 2.10384,1.05192 2.10384,2.3376" fill="#001026" stroke="none" stroke-width="1" stroke-linecap="butt" stroke-linejoin="miter"/></g><path d="M221.98908,150.54898c-0.30908,-1.96891 -1.30104,-3.34974 0.71124,-5.0388c0.04364,-0.5959 0.18331,-1.14957 0.55128,-1.45605c1.08469,-0.90342 4.81062,0.07288 6.15681,0.08026c1.83964,0.44951 5.58849,0.55365 7.09673,1.52212c1.35343,0.86906 0.87019,2.7365 0.43009,3.9891c-0.00927,1.51061 -0.96089,2.91365 -2.23344,3.97602c-1.23124,1.48232 -2.7956,2.70703 -4.5416,3.58003c-1.04165,0.64967 -1.74107,0.57137 -2.94477,0.56829c-3.50115,-0.00897 -4.57135,-2.00393 -4.79344,-4.55234c-0.1976,-0.90597 -0.30192,-1.83426 -0.4329,-2.66862zM235.67048,146.90285c-0.15847,-0.06479 -0.32397,-0.12418 -0.49538,-0.17897c0.25219,0.10039 0.49103,0.2169 0.69738,0.36724c-0.04462,-0.08571 -0.11033,-0.15079 -0.202,-0.18827z" fill="#ffab19" fill-rule="nonzero" stroke="#000000" stroke-width="1.5" stroke-linecap="butt" stroke-linejoin="miter"/><g fill-rule="evenodd"><path d="M263.69034,150.35098c3.5064,5.14273 3.27265,11.45425 0.11689,13.67497c-3.85705,2.22072 -8.99977,0.5844 -12.50618,-4.55832c-3.62329,-5.14273 -3.85704,-11.80489 -0.23376,-14.37625c3.62329,-2.68824 9.11665,0.11688 12.62305,5.2596z" fill="#ffffff" stroke="#001026" stroke-width="1.2" stroke-linecap="round" stroke-linejoin="round"/><path d="M262.98909,157.13001c0,1.28568 -0.93504,2.3376 -2.10384,2.3376c-1.1688,0 -2.10384,-1.05192 -2.10384,-2.3376c0,-1.28568 0.93505,-2.3376 2.10384,-2.3376c1.1688,0.11688 2.10384,1.05192 2.10384,2.3376" fill="#001026" stroke="none" stroke-width="1" stroke-linecap="butt" stroke-linejoin="miter"/></g><path d="M248.00264,150.17886c-0.30908,-1.96891 -1.30104,-3.34974 0.71124,-5.0388c0.04364,-0.5959 0.18331,-1.14957 0.55128,-1.45605c1.08469,-0.90342 4.81062,0.07288 6.15681,0.08026c1.83964,0.44951 5.58849,0.55365 7.09673,1.52212c1.35343,0.86906 0.87019,2.7365 0.43009,3.9891c-0.00927,1.51061 -0.96089,2.91365 -2.23344,3.97602c-1.23124,1.48232 -2.7956,2.70703 -4.5416,3.58003c-1.04165,0.64967 -1.74107,0.57137 -2.94477,0.56829c-3.50115,-0.00897 -4.57135,-2.00393 -4.79344,-4.55234c-0.1976,-0.90597 -0.30192,-1.83426 -0.4329,-2.66862zM261.68404,146.53273c-0.15847,-0.06479 -0.32397,-0.12418 -0.49538,-0.17897c0.25219,0.10039 0.49103,0.2169 0.69738,0.36724c-0.04462,-0.08571 -0.11033,-0.15079 -0.202,-0.18827z" fill="#ffab19" fill-rule="nonzero" stroke="#000000" stroke-width="1.5" stroke-linecap="butt" stroke-linejoin="miter"/><path d="M257.80183,182.23623l-18.9122,-5.13665" fill="none" fill-rule="nonzero" stroke="#000000" stroke-width="1.5" stroke-linecap="round" stroke-linejoin="miter"/><path d="M254.90318,163.11447l11.20723,-5.4909l-0.28019,4.74214l-5.60361,2.49586z" fill="#000000" fill-rule="nonzero" stroke="#000000" stroke-width="0.5" stroke-linecap="round" stroke-linejoin="miter"/><g fill-rule="evenodd"><path d="M226.65737,200.77923c0.8,0.4 2.5,1.3 0.1,4.7c-2.4,3.4 -9.3,4.1 -10.1,4.1c-3.1,0.1 -6.9,0.1 -11.1,-1.3c-12.2,-4 -12.3,-17.1 -8.4,-19.2c3.8,-2.1 5.5,6 11,10.9c2.4,2.2 5.3,3 7.7,3.5c3.4,0.6 9.9,-3.2 10.8,-2.7z" fill="#ffab19" stroke="#001026" stroke-width="1.2" stroke-linecap="round" stroke-linejoin="round"/><path d="M201.85737,192.67923c1.6,2.7 4.7,6.5 4.7,6.5c0,0 -3.7,-0.9 -5.8,0.8c-1.7,1.3 -1.3,3.5 -1.1,4.2c-1.3,-1.3 -2.9,-3.1 -3.9,-6.6c-1,-3.5 0,-7.7 2,-8.3c2,-0.4 2.5,1.1 4.1,3.4z" fill="#ffffff" stroke="none" stroke-width="1" stroke-linecap="butt" stroke-linejoin="miter"/></g><path d="M241.65737,211.17923c-1.8,1.2 -8,5.6 -15.9,8.1l-0.4,0.1c-0.4,0.1 -0.6,0.6 -0.4,1c1.7,2.4 4.8,7.2 -0.7,8.9c-5.3,1.7 -15.2,-12.4 -11,-16.1c1.9,-1.4 3.6,-0.7 4.5,-0.3c0.5,0.2 1,0.2 1.5,0.1c1.2,-0.4 3.4,-1.2 5.1,-2.1c4.3,-2.2 5.3,-3.1 7.3,-4.6c2,-1.5 6.6,-5.2 10.3,-2c3.2,2.7 1.4,5.7 -0.3,6.9z" fill="#ffab19" fill-rule="evenodd" stroke="#001026" stroke-width="1.2" stroke-linecap="round" stroke-linejoin="round"/><g fill-rule="evenodd"><path d="M247.05375,213.30909c2.1,1.9 6.7,5.8 6.7,5.8c0,0 14.3,-2.5 14.3,4.7c0,4.3 -7.2,5.3 -16.9,4.4c-0.6,-0.1 -1.2,-0.3 -1.7,-0.7c-2.2,-1.9 -8.5,-7.5 -12.5,-11.4c-1.70648,-1.67756 -3.32931,-3.1878 -4.77411,-4.48719c1.17481,-1.28116 2.09671,-2.85206 3.56788,-3.75679c0.45125,-0.27751 2.40145,-0.36435 2.85893,-0.73823c0.33285,-0.27203 0.72598,-0.57912 1.15879,-0.91195z" fill="#ffab19" stroke="#001026" stroke-width="1.2" stroke-linecap="round" stroke-linejoin="round"/><path d="" fill="#ffffff" stroke="none" stroke-width="1" stroke-linecap="butt" stroke-linejoin="miter"/></g><path d="M233.45084,206.66835c0.69338,-1.04006 1.73344,-0.34669 1.73344,-0.34669l0.51822,0.38197c0.05282,-0.23792 0.09671,-0.48958 0.15841,-0.75194c0,0 0.30317,-1.21268 1.51585,-0.90951c0.16842,0.04211 0.3076,0.10175 0.42242,0.17326c1.19031,-0.21284 1.84224,0.43639 2.91942,1.10622c0,0 1.04006,0.69338 0.34669,1.73344c-0.69338,1.04006 -1.73344,0.34669 -1.73344,0.34669c-1.68232,-1.26135 -1.23492,-0.09214 -2.12975,0.98182c0.00963,0.06254 0.01463,0.12661 0.01463,0.19185c0,0.69036 -0.55964,1.25 -1.25,1.25c-0.26266,0 -0.5064,-0.08101 -0.7076,-0.21942l-0.29272,-0.19515c-0.59194,0.49828 -0.98628,1.23896 -1.6269,1.68045l-0.5474,0.58173c0,0 -0.88388,0.88388 -1.76777,0c-0.88388,-0.88388 0,-1.76777 0,-1.76777l0.92842,-0.89409c0.39848,-0.25297 0.75278,-0.49192 1.08973,-0.72387l-0.32007,-0.48011c-0.1384,-0.20119 -0.21942,-0.44493 -0.21942,-0.7076c0,-0.53345 0.33416,-0.98885 0.80457,-1.1683c0.03589,-0.08489 0.08304,-0.17263 0.14328,-0.26298z" fill="#ffab19" fill-rule="nonzero" stroke="none" stroke-width="0.5" stroke-linecap="butt" stroke-linejoin="miter"/><path d="M238.95787,160.14903c-0.24397,1.97803 0.33027,3.57832 -2.06874,4.64927c-0.20574,0.56096 -0.49221,1.05492 -0.93024,1.24846c-1.29122,0.5705 -4.60532,-1.39225 -5.89764,-1.76934c-1.64525,-0.93782 -5.2211,-2.0683 -6.40507,-3.41401c-1.06245,-1.20758 -0.08456,-2.87028 0.68286,-3.95368c0.4241,-1.44989 1.72469,-2.53734 3.24022,-3.20904c1.59123,-1.08683 3.43195,-1.83442 5.35065,-2.19392c1.18009,-0.33836 1.83106,-0.07084 2.98755,0.26295c3.36385,0.9709 3.84453,3.18317 3.35764,5.69448c-0.05901,0.92539 -0.21385,1.8466 -0.31723,2.68483zM224.80124,159.89447c0.13456,0.10585 0.27736,0.20844 0.42711,0.30823c-0.21489,-0.16584 -0.41251,-0.3435 -0.56959,-0.54477c0.01934,0.09467 0.06464,0.17531 0.14248,0.23654z" fill="#ffab19" fill-rule="nonzero" stroke="#000000" stroke-width="1.5" stroke-linecap="butt" stroke-linejoin="miter"/><path d="M266.09514,158.50785c-0.24397,1.97804 0.33027,3.57832 -2.06874,4.64927c-0.20574,0.56096 -0.4922,1.05492 -0.93024,1.24846c-1.29122,0.5705 -4.60532,-1.39226 -5.89764,-1.76935c-1.64524,-0.93782 -5.2211,-2.0683 -6.40508,-3.41401c-1.06245,-1.20757 -0.08456,-2.87028 0.68286,-3.95368c0.4241,-1.44988 1.72469,-2.53735 3.24022,-3.20905c1.59124,-1.08683 3.43195,-1.83442 5.35065,-2.19392c1.1801,-0.33836 1.83106,-0.07084 2.98756,0.26296c3.36385,0.9709 3.84452,3.18317 3.35764,5.69447c-0.05901,0.92539 -0.21384,1.84661 -0.31723,2.68483zM251.93852,158.25328c0.13456,0.10585 0.27736,0.20844 0.42711,0.30823c-0.21489,-0.16583 -0.41251,-0.3435 -0.56959,-0.54477c0.01934,0.09467 0.06464,0.17531 0.14248,0.23654z" fill="#ffab19" fill-rule="nonzero" stroke="#000000" stroke-width="1.5" stroke-linecap="butt" stroke-linejoin="miter"/><path d="M232.70072,205.44882c-8.5,-8.3 -1.6,-11.8 1.1,-16.6c2.5,-4.1 3.6,-3.3 9.6,-2.1c3.4,0.5 5.4,0.8 7.6,0.7c3.3,-0.1 2.7,4.7 1.8,7.2c0,0 -1.4,3.7 -2.7,5.6c-1.6,2.3 -2.8,3.8 -4,4.7l0.0079,0.00769c-2.7603,1.20486 -5.4479,3.26758 -7.55227,5.45224c-3.4591,-3.1014 -5.85564,-4.95994 -5.85564,-4.95994z" fill="#ffab19" fill-rule="evenodd" stroke="#000000" stroke-width="1.2" stroke-linecap="round" stroke-linejoin="round"/><path d="M245.13778,205.56615c0,0 -1.5,-1.2 -3.1,-2.7c-2,-1.8 -4,-3.3 -2,-6.4c1.8,-2.4 3.5,-5.6 8,-2.7c4.3,2.7 2.4,5.2 2.4,5.2c-2.2,4.5 -5.3,6.6 -5.3,6.6z" fill="#ffffff" fill-rule="evenodd" stroke="#000000" stroke-width="1" stroke-linecap="butt" stroke-linejoin="miter"/></g></g></svg>