<svg version="1.1" xmlns="http://www.w3.org/2000/svg" xmlns:xlink="http://www.w3.org/1999/xlink" width="79" height="55.27864" viewBox="0,0,79,55.27864"><g transform="translate(-201.25,-167.30469)"><g data-paper-data="{&quot;isPaintingLayer&quot;:true}" fill-rule="nonzero" stroke-linejoin="miter" stroke-miterlimit="10" stroke-dasharray="" stroke-dashoffset="0" style="mix-blend-mode: normal"><text transform="translate(202,217.33333) scale(0.5,0.5)" font-size="40" xml:space="preserve" fill="#000000" fill-rule="nonzero" stroke="none" stroke-width="1" stroke-linecap="butt" stroke-linejoin="miter" stroke-miterlimit="10" stroke-dasharray="" stroke-dashoffset="0" font-family="Pixel" font-weight="normal" text-anchor="start" style="mix-blend-mode: normal"><tspan x="0" dy="0">Bought</tspan></text><path d="M236.87521,191.69531v-13.26923h6.15954v13.26923z" fill="#9e3700" stroke="#000000" stroke-width="2" stroke-linecap="butt"/><path d="M238.88595,176.85766v-2.33119c2.2211,-1.36975 3.86602,-3.58396 4.48709,-6.19495h22.17366v8.52614z" fill="#d4d4d4" stroke="#000000" stroke-width="2" stroke-linecap="butt"/><path d="M244.14665,181.09819l9.88166,-5.7643" fill="none" stroke="#d4d4d4" stroke-width="1.5" stroke-linecap="round"/><path d="M246.20533,177.8043v-4.11736" fill="none" stroke="#d4d4d4" stroke-width="1.5" stroke-linecap="round"/><path d="M243.88595,174.44641v-5.64399h8.13263v5.64399z" fill="#d4d4d4" stroke="#000000" stroke-width="1" stroke-linecap="butt"/><path d="M261.43956,175.33389v-4.94083h4.11736v4.94083z" fill="#393939" stroke="#000000" stroke-width="1" stroke-linecap="butt"/><path d="M214.4533,176.83083v-8.52614h22.17366c0.62107,2.61099 2.26599,4.8252 4.48709,6.19495v2.33119z" data-paper-data="{&quot;index&quot;:null}" fill="#d4d4d4" stroke="#000000" stroke-width="2" stroke-linecap="butt"/><path d="M235.85335,181.07136l-9.88166,-5.7643" data-paper-data="{&quot;index&quot;:null}" fill="none" stroke="#d4d4d4" stroke-width="1.5" stroke-linecap="round"/><path d="M233.79467,177.77747v-4.11736" data-paper-data="{&quot;index&quot;:null}" fill="none" stroke="#d4d4d4" stroke-width="1.5" stroke-linecap="round"/><path d="M227.98142,174.41958v-5.64399h8.13263v5.64399z" data-paper-data="{&quot;index&quot;:null}" fill="#d4d4d4" stroke="#000000" stroke-width="1" stroke-linecap="butt"/><path d="M214.44308,175.30706v-4.94083h4.11736v4.94083z" data-paper-data="{&quot;index&quot;:null}" fill="#393939" stroke="#000000" stroke-width="1" stroke-linecap="butt"/></g></g></svg>