<svg version="1.1" xmlns="http://www.w3.org/2000/svg" xmlns:xlink="http://www.w3.org/1999/xlink" width="54" height="50" viewBox="0,0,54,50"><g transform="translate(-214.5,-156.5)"><g data-paper-data="{&quot;isPaintingLayer&quot;:true}" fill="#000000" fill-rule="nonzero" stroke="none" stroke-width="0" stroke-linecap="butt" stroke-linejoin="miter" stroke-miterlimit="10" stroke-dasharray="" stroke-dashoffset="0" style="mix-blend-mode: normal"><path d="M243.5,180c0,1.38071 -1.567,2.5 -3.5,2.5c-1.933,0 -3.5,-1.11929 -3.5,-2.5c0,-1.38071 1.567,-2.5 3.5,-2.5c1.933,0 3.5,1.11929 3.5,2.5z"/><path d="M255.5,169c0,1.38071 -1.567,2.5 -3.5,2.5c-1.933,0 -3.5,-1.11929 -3.5,-2.5c0,-1.38071 1.567,-2.5 3.5,-2.5c1.933,0 3.5,1.11929 3.5,2.5z"/><path d="M258.5,204c0,1.38071 -1.567,2.5 -3.5,2.5c-1.933,0 -3.5,-1.11929 -3.5,-2.5c0,-1.38071 1.567,-2.5 3.5,-2.5c1.933,0 3.5,1.11929 3.5,2.5z"/><path d="M238.5,204c0,1.38071 -1.567,2.5 -3.5,2.5c-1.933,0 -3.5,-1.11929 -3.5,-2.5c0,-1.38071 1.567,-2.5 3.5,-2.5c1.933,0 3.5,1.11929 3.5,2.5z"/><path d="M221.5,188c0,1.38071 -1.567,2.5 -3.5,2.5c-1.933,0 -3.5,-1.11929 -3.5,-2.5c0,-1.38071 1.567,-2.5 3.5,-2.5c1.933,0 3.5,1.11929 3.5,2.5z"/><path d="M223.5,160c0,1.38071 -1.567,2.5 -3.5,2.5c-1.933,0 -3.5,-1.11929 -3.5,-2.5c0,-1.38071 1.567,-2.5 3.5,-2.5c1.933,0 3.5,1.11929 3.5,2.5z"/><path d="M268.5,159c0,1.38071 -1.567,2.5 -3.5,2.5c-1.933,0 -3.5,-1.11929 -3.5,-2.5c0,-1.38071 1.567,-2.5 3.5,-2.5c1.933,0 3.5,1.11929 3.5,2.5z"/></g></g></svg>