<svg version="1.1" xmlns="http://www.w3.org/2000/svg" xmlns:xlink="http://www.w3.org/1999/xlink" width="187" height="142.10244" viewBox="0,0,187,142.10244"><g transform="translate(-146.5,0.51893)"><g data-paper-data="{&quot;isPaintingLayer&quot;:true}" stroke-miterlimit="10" stroke-dasharray="" stroke-dashoffset="0" style="mix-blend-mode: normal"><path d="M284.46255,2.78663l-1.54201,4.96535l-47.06725,16.80623l1.54201,-4.96535z" data-paper-data="{&quot;index&quot;:null}" fill="#737373" fill-rule="nonzero" stroke="#000000" stroke-width="3" stroke-linecap="butt" stroke-linejoin="miter"/><path d="M190.9394,2.02635l13.04504,-1.02316l44.98787,17.42102l-13.04503,1.02315z" data-paper-data="{&quot;index&quot;:null}" fill="#737373" fill-rule="nonzero" stroke="#000000" stroke-width="3" stroke-linecap="butt" stroke-linejoin="miter"/><path d="M199.73124,31.717l-14.31606,-1.85587l43.32598,-13.47297l14.31606,1.85587z" data-paper-data="{&quot;index&quot;:null}" fill="#737373" fill-rule="nonzero" stroke="#000000" stroke-width="3" stroke-linecap="butt" stroke-linejoin="miter"/><path d="M194,128.08352v-28h19v28z" data-paper-data="{&quot;index&quot;:null}" fill="#737373" fill-rule="nonzero" stroke="#000000" stroke-width="3" stroke-linecap="butt" stroke-linejoin="miter"/><path d="M241,127.08352v-21h18v21z" data-paper-data="{&quot;index&quot;:null}" fill="#737373" fill-rule="nonzero" stroke="#000000" stroke-width="3" stroke-linecap="butt" stroke-linejoin="miter"/><path d="M176,140.08352v-19h124v19z" data-paper-data="{&quot;index&quot;:null}" fill="#737373" fill-rule="nonzero" stroke="#000000" stroke-width="3" stroke-linecap="butt" stroke-linejoin="miter"/><path d="M332,75.08352c0,22.09139 -41.18981,40 -92,40c-50.81019,0 -92,-17.90861 -92,-40c0,-22.09139 41.18981,-40 92,-40c50.81019,0 92,17.90861 92,40z" data-paper-data="{&quot;index&quot;:null}" fill="#737373" fill-rule="nonzero" stroke="#000000" stroke-width="3" stroke-linecap="butt" stroke-linejoin="miter"/><path d="M295.13115,104.08352c-18.85011,0 -34.13115,-12.76909 -34.13115,-28.52055c0,-15.75146 15.28104,-28.52055 34.13115,-28.52055c18.85011,0 34.13115,12.76909 34.13115,28.52055c0,15.75147 -15.28104,28.52055 -34.13115,28.52055z" data-paper-data="{&quot;index&quot;:null}" fill="#ffffff" fill-rule="nonzero" stroke="none" stroke-width="0" stroke-linecap="butt" stroke-linejoin="miter"/><g data-paper-data="{&quot;index&quot;:null}" fill-rule="evenodd"><path d="M299.79589,54.71417c0.21781,-0.12795 0.58082,-0.06397 0.65342,0.19192l1.88767,6.84521c0,0 4.64658,3.00678 6.02603,5.11792c2.32329,3.51856 2.39589,6.39739 2.39589,6.39739c0,0 5.15479,1.34345 6.02603,4.98997c0.87124,3.64651 -2.32328,10.5557 -15.9726,12.92273c-13.64932,2.36704 -24.61233,-0.89564 -29.76712,-8.18866c-5.1548,-7.29302 2.97671,-15.99348 2.54109,-15.48169l-1.52465,-11.45133c-0.07261,-0.25589 0.29041,-0.44782 0.58082,-0.31987l8.78493,5.05394c0,0 3.26713,-1.08755 6.67946,-1.2155c2.03287,-0.12795 3.77534,0 5.4452,0.25589z" fill="#ffab19" stroke="#001026" stroke-width="1.2" stroke-linecap="butt" stroke-linejoin="miter"/><path d="M310.5411,73.5225c0,0 5.00959,1.15153 5.88082,4.79805c0.87124,3.64651 -2.6137,10.23582 -16.11781,12.53888c-17.56986,3.1987 -25.91918,-6.01355 -21.0548,-12.79478c4.86438,-6.84521 13.2137,-1.02358 19.31233,-1.40743c5.2274,-0.31987 5.80822,-4.35022 11.97945,-3.13472z" fill="#ffffff" stroke="none" stroke-width="1" stroke-linecap="butt" stroke-linejoin="miter"/><path d="M287.67124,80.36771c0,-0.25589 0.29041,-0.44782 0.58082,-0.38384c1.37945,0.44782 5.3,1.4714 9.65616,1.72729c3.92055,0.19192 6.24383,0 7.33288,-0.19192c0.36301,-0.06397 0.65342,0.25589 0.50822,0.57576c-0.65342,1.72729 -3.41233,6.52534 -11.03562,6.1415c-6.60685,-0.63974 -7.26027,-4.73407 -7.04246,-7.86879z" fill="#ffffff" stroke="#001026" stroke-width="1.2" stroke-linecap="round" stroke-linejoin="round"/><path d="M323.9,74.2262c-3.41233,2.43101 -8.63972,2.49498 -8.63972,2.49498" fill="none" stroke="#001026" stroke-width="1.2" stroke-linecap="round" stroke-linejoin="round"/><path d="M322.95617,81.39129c-4.57397,0.31987 -7.40548,-0.89564 -7.40548,-0.89564" fill="none" stroke="#001026" stroke-width="1.2" stroke-linecap="round" stroke-linejoin="round"/><path d="M298.27124,74.99389c1.52466,0 3.12192,0.12795 3.19452,0.57576c0.07261,0.89563 -1.01644,2.68691 -2.17809,2.75088c-1.30685,0.12795 -4.35617,-1.4714 -4.35617,-2.49498c-0.07261,-0.76769 1.88768,-0.83166 3.33973,-0.83166z" fill="#001026" stroke="#001026" stroke-width="1.2" stroke-linecap="round" stroke-linejoin="round"/><path d="M265.6,74.03429c0,0 6.24383,1.79127 8.78493,3.77446" fill="none" stroke="#001026" stroke-width="1.2" stroke-linecap="round" stroke-linejoin="round"/><path d="M274.60274,80.04784c-3.12192,1.08755 -8.49452,0.38384 -8.49452,0.38384" fill="none" stroke="#001026" stroke-width="1.2" stroke-linecap="round" stroke-linejoin="round"/><g><path d="M306.83836,67.50895c2.10548,2.87883 2.17808,6.1415 0.14521,7.29303c-2.03287,1.15153 -5.37261,-0.19192 -7.55069,-3.07075c-2.10548,-2.87883 -2.17808,-6.1415 -0.14521,-7.29302c2.03287,-1.2155 5.44521,0.19192 7.55069,3.07074z" fill="#ffffff" stroke="#001026" stroke-width="1.2" stroke-linecap="round" stroke-linejoin="round"/><path d="M306.54795,71.15546c0,0.70372 -0.58083,1.27948 -1.30685,1.27948c-0.72602,0 -1.30685,-0.57576 -1.30685,-1.27948c0,-0.70372 0.58083,-1.27948 1.30685,-1.27948c0.72602,0 1.30685,0.57577 1.30685,1.27948" fill="#001026" stroke="none" stroke-width="1" stroke-linecap="butt" stroke-linejoin="miter"/></g><g><path d="M288.83288,69.30021c2.17808,2.81485 2.03288,6.26945 0.07261,7.48495c-2.39589,1.2155 -5.59042,0.31986 -7.7685,-2.49498c-2.25069,-2.81485 -2.39589,-6.46137 -0.14521,-7.86879c2.25069,-1.4714 5.66302,0.06397 7.84109,2.87883z" fill="#ffffff" stroke="#001026" stroke-width="1.2" stroke-linecap="round" stroke-linejoin="round"/><path d="M288.39726,73.01071c0,0.70372 -0.58083,1.27948 -1.30685,1.27948c-0.72602,0 -1.30685,-0.57576 -1.30685,-1.27948c0,-0.70372 0.58083,-1.27948 1.30685,-1.27948c0.72602,0.06397 1.30685,0.57576 1.30685,1.27948" fill="#001026" stroke="none" stroke-width="1" stroke-linecap="butt" stroke-linejoin="miter"/></g></g><path d="M205,107.08352v-61h49v61z" data-paper-data="{&quot;index&quot;:null}" fill="#2d2d2d" fill-rule="nonzero" stroke="none" stroke-width="NaN" stroke-linecap="butt" stroke-linejoin="miter"/><path d="M300,59.08352l-8,10l-9,-8" data-paper-data="{&quot;index&quot;:null}" fill="none" fill-rule="nonzero" stroke="#000000" stroke-width="1.5" stroke-linecap="round" stroke-linejoin="miter"/><path d="M234,43.08353v-27h7v27z" data-paper-data="{&quot;index&quot;:null}" fill="#737373" fill-rule="nonzero" stroke="#000000" stroke-width="3" stroke-linecap="butt" stroke-linejoin="miter"/><path d="M186.9394,2.02635l13.04504,-1.02316l44.98787,17.42102l-13.04503,1.02315z" data-paper-data="{&quot;index&quot;:null}" fill="#737373" fill-rule="nonzero" stroke="#000000" stroke-width="3" stroke-linecap="butt" stroke-linejoin="miter"/><path d="M195.73124,31.717l-14.31606,-1.85587l43.32598,-13.47297l14.31606,1.85587z" data-paper-data="{&quot;index&quot;:null}" fill="#737373" fill-rule="nonzero" stroke="#000000" stroke-width="3" stroke-linecap="butt" stroke-linejoin="miter"/><path d="M285.46255,2.78663l-1.54201,4.96535l-47.06725,16.80623l1.54201,-4.96535z" data-paper-data="{&quot;index&quot;:null}" fill="#737373" fill-rule="nonzero" stroke="#000000" stroke-width="3" stroke-linecap="butt" stroke-linejoin="miter"/><path d="M194,128.08352v-28h19v28z" data-paper-data="{&quot;index&quot;:null}" fill="#737373" fill-rule="nonzero" stroke="#000000" stroke-width="3" stroke-linecap="butt" stroke-linejoin="miter"/><path d="M241,127.08352v-21h18v21z" data-paper-data="{&quot;index&quot;:null}" fill="#737373" fill-rule="nonzero" stroke="#000000" stroke-width="3" stroke-linecap="butt" stroke-linejoin="miter"/><path d="M176,140.08352v-19h124v19z" data-paper-data="{&quot;index&quot;:null}" fill="#737373" fill-rule="nonzero" stroke="#000000" stroke-width="3" stroke-linecap="butt" stroke-linejoin="miter"/><path d="M332,75.08352c0,22.09139 -41.18981,40 -92,40c-50.81019,0 -92,-17.90861 -92,-40c0,-22.09139 41.18981,-40 92,-40c50.81019,0 92,17.90861 92,40z" data-paper-data="{&quot;index&quot;:null}" fill="#737373" fill-rule="nonzero" stroke="#000000" stroke-width="3" stroke-linecap="butt" stroke-linejoin="miter"/><path d="M295.13115,104.08352c-18.85011,0 -34.13115,-12.76909 -34.13115,-28.52055c0,-15.75146 15.28104,-28.52055 34.13115,-28.52055c18.85011,0 34.13115,12.76909 34.13115,28.52055c0,15.75147 -15.28104,28.52055 -34.13115,28.52055z" data-paper-data="{&quot;index&quot;:null}" fill="#ffffff" fill-rule="nonzero" stroke="#000000" stroke-width="3" stroke-linecap="butt" stroke-linejoin="miter"/><g data-paper-data="{&quot;index&quot;:null}" fill-rule="evenodd"><path d="M299.79589,54.71417c0.21781,-0.12795 0.58082,-0.06397 0.65342,0.19192l1.88767,6.84521c0,0 4.64658,3.00678 6.02603,5.11792c2.32329,3.51856 2.39589,6.39739 2.39589,6.39739c0,0 5.15479,1.34345 6.02603,4.98997c0.87124,3.64651 -2.32328,10.5557 -15.9726,12.92273c-13.64932,2.36704 -24.61233,-0.89564 -29.76712,-8.18866c-5.1548,-7.29302 2.97671,-15.99348 2.54109,-15.48169l-1.52465,-11.45133c-0.07261,-0.25589 0.29041,-0.44782 0.58082,-0.31987l8.78493,5.05394c0,0 3.26713,-1.08755 6.67946,-1.2155c2.03287,-0.12795 3.77534,0 5.4452,0.25589z" fill="#ffab19" stroke="#001026" stroke-width="1.2" stroke-linecap="butt" stroke-linejoin="miter"/><path d="M310.5411,73.5225c0,0 5.00959,1.15153 5.88082,4.79805c0.87124,3.64651 -2.6137,10.23582 -16.11781,12.53888c-17.56986,3.1987 -25.91918,-6.01355 -21.0548,-12.79478c4.86438,-6.84521 13.2137,-1.02358 19.31233,-1.40743c5.2274,-0.31987 5.80822,-4.35022 11.97945,-3.13472z" fill="#ffffff" stroke="none" stroke-width="1" stroke-linecap="butt" stroke-linejoin="miter"/><path d="M287.67124,80.36771c0,-0.25589 0.29041,-0.44782 0.58082,-0.38384c1.37945,0.44782 5.3,1.4714 9.65616,1.72729c3.92055,0.19192 6.24383,0 7.33288,-0.19192c0.36301,-0.06397 0.65342,0.25589 0.50822,0.57576c-0.65342,1.72729 -3.41233,6.52534 -11.03562,6.1415c-6.60685,-0.63974 -7.26027,-4.73407 -7.04246,-7.86879z" fill="#ffffff" stroke="#001026" stroke-width="1.2" stroke-linecap="round" stroke-linejoin="round"/><path d="M323.9,74.2262c-3.41233,2.43101 -8.63972,2.49498 -8.63972,2.49498" fill="none" stroke="#001026" stroke-width="1.2" stroke-linecap="round" stroke-linejoin="round"/><path d="M322.95617,81.39129c-4.57397,0.31987 -7.40548,-0.89564 -7.40548,-0.89564" fill="none" stroke="#001026" stroke-width="1.2" stroke-linecap="round" stroke-linejoin="round"/><path d="M298.27124,74.99389c1.52466,0 3.12192,0.12795 3.19452,0.57576c0.07261,0.89563 -1.01644,2.68691 -2.17809,2.75088c-1.30685,0.12795 -4.35617,-1.4714 -4.35617,-2.49498c-0.07261,-0.76769 1.88768,-0.83166 3.33973,-0.83166z" fill="#001026" stroke="#001026" stroke-width="1.2" stroke-linecap="round" stroke-linejoin="round"/><path d="M265.6,74.03429c0,0 6.24383,1.79127 8.78493,3.77446" fill="none" stroke="#001026" stroke-width="1.2" stroke-linecap="round" stroke-linejoin="round"/><path d="M274.60274,80.04784c-3.12192,1.08755 -8.49452,0.38384 -8.49452,0.38384" fill="none" stroke="#001026" stroke-width="1.2" stroke-linecap="round" stroke-linejoin="round"/><g><path d="M306.83836,67.50895c2.10548,2.87883 2.17808,6.1415 0.14521,7.29303c-2.03287,1.15153 -5.37261,-0.19192 -7.55069,-3.07075c-2.10548,-2.87883 -2.17808,-6.1415 -0.14521,-7.29302c2.03287,-1.2155 5.44521,0.19192 7.55069,3.07074z" fill="#ffffff" stroke="#001026" stroke-width="1.2" stroke-linecap="round" stroke-linejoin="round"/><path d="M306.54795,71.15546c0,0.70372 -0.58083,1.27948 -1.30685,1.27948c-0.72602,0 -1.30685,-0.57576 -1.30685,-1.27948c0,-0.70372 0.58083,-1.27948 1.30685,-1.27948c0.72602,0 1.30685,0.57577 1.30685,1.27948" fill="#001026" stroke="none" stroke-width="1" stroke-linecap="butt" stroke-linejoin="miter"/></g><g><path d="M288.83288,69.30021c2.17808,2.81485 2.03288,6.26945 0.07261,7.48495c-2.39589,1.2155 -5.59042,0.31986 -7.7685,-2.49498c-2.25069,-2.81485 -2.39589,-6.46137 -0.14521,-7.86879c2.25069,-1.4714 5.66302,0.06397 7.84109,2.87883z" fill="#ffffff" stroke="#001026" stroke-width="1.2" stroke-linecap="round" stroke-linejoin="round"/><path d="M288.39726,73.01071c0,0.70372 -0.58083,1.27948 -1.30685,1.27948c-0.72602,0 -1.30685,-0.57576 -1.30685,-1.27948c0,-0.70372 0.58083,-1.27948 1.30685,-1.27948c0.72602,0.06397 1.30685,0.57576 1.30685,1.27948" fill="#001026" stroke="none" stroke-width="1" stroke-linecap="butt" stroke-linejoin="miter"/></g></g><path d="M205,107.08352v-61h49v61z" data-paper-data="{&quot;index&quot;:null}" fill="#2d2d2d" fill-rule="nonzero" stroke="none" stroke-width="NaN" stroke-linecap="butt" stroke-linejoin="miter"/><path d="M300,59.08352l-8,10l-9,-8" data-paper-data="{&quot;index&quot;:null}" fill="none" fill-rule="nonzero" stroke="#000000" stroke-width="1.5" stroke-linecap="round" stroke-linejoin="miter"/></g></g></svg>