<svg version="1.1" xmlns="http://www.w3.org/2000/svg" xmlns:xlink="http://www.w3.org/1999/xlink" width="613.07782" height="628.29226" viewBox="0,0,613.07782,628.29226"><g transform="translate(66.53891,134.14613)"><g data-paper-data="{&quot;isPaintingLayer&quot;:true}" fill-rule="nonzero" stroke="#000000" stroke-linejoin="miter" stroke-miterlimit="10" stroke-dasharray="" stroke-dashoffset="0" style="mix-blend-mode: normal"><path d="M204.49963,141.11865v-25.35741h45.64334v25.35741z" fill="#000000" stroke-width="4.5" stroke-linecap="butt"/><path d="M463.1452,186.33935c0,119.73857 -99.9055,216.80585 -223.1452,216.80585c-123.2397,0 -223.1452,-97.06727 -223.1452,-216.80585c0,-119.73857 99.9055,-216.80585 223.1452,-216.80585c123.2397,0 223.1452,97.06727 223.1452,216.80585z" fill="#ff0000" stroke-width="4.5" stroke-linecap="butt"/><path d="M359.17982,231.98269c0,-72.12322 41.43809,-130.59066 92.55454,-130.59066c51.11645,0 92.55454,58.46744 92.55454,130.59066c0,72.12322 -41.43809,130.59066 -92.55454,130.59066c-51.11645,0 -92.55454,-58.46744 -92.55454,-130.59066z" fill="#ffb900" stroke-width="4.5" stroke-linecap="butt"/><path d="M257.75019,25.3198c0,-56.01804 51.08805,-101.42964 114.10834,-101.42964c63.02029,0 114.10834,45.41159 114.10834,101.42964c0,56.01804 -51.08805,101.42964 -114.10834,101.42964c-63.02029,0 -114.10834,-45.41159 -114.10834,-101.42964z" fill="#ffb900" stroke-width="4.5" stroke-linecap="butt"/><path d="M95.46277,-31.73437c0,-55.31782 49.95275,-100.16177 111.5726,-100.16177c61.61985,0 111.5726,44.84394 111.5726,100.16177c0,55.31782 -49.95275,100.16177 -111.5726,100.16177c-61.61985,0 -111.5726,-44.84394 -111.5726,-100.16177z" fill="#ffb900" stroke-width="4.5" stroke-linecap="butt"/><path d="M-41.46724,37.99851c0,-60.21938 53.35863,-109.03686 119.17982,-109.03686c65.82119,0 119.17982,48.81748 119.17982,109.03686c0,60.21938 -53.35863,109.03686 -119.17982,109.03686c-65.82119,0 -119.17982,-48.81748 -119.17982,-109.03686z" fill="#ffb900" stroke-width="4.5" stroke-linecap="butt"/><path d="M26.99776,111.535c50.41623,0 91.28667,42.57337 91.28667,95.09028c0,52.51692 -40.87044,95.09028 -91.28667,95.09028c-50.41623,0 -91.28667,-42.57337 -91.28667,-95.09028c0,-52.51692 40.87044,-95.09028 91.28667,-95.09028z" fill="#ffb900" stroke-width="4.5" stroke-linecap="butt"/><path d="M181.67796,384.12714c0,55.31782 -36.89693,100.16177 -82.41158,100.16177c-45.51465,0 -82.41158,-44.84394 -82.41158,-100.16177c0,-55.31782 36.89693,-100.16177 82.41158,-100.16177c45.51465,0 82.41158,44.84394 82.41158,100.16177z" fill="#ffb900" stroke-width="4.5" stroke-linecap="butt"/><path d="M336.35815,410.75242c0,40.61309 -37.46456,73.53649 -83.67945,73.53649c-46.21489,0 -83.67945,-32.9234 -83.67945,-73.53649c0,-40.61309 37.46456,-73.53649 83.67945,-73.53649c46.21489,0 83.67945,32.9234 83.67945,73.53649z" fill="#ffb900" stroke-width="4.5" stroke-linecap="butt"/><path d="M478.35965,398.07372c0,51.8167 -42.00571,93.82241 -93.82241,93.82241c-51.8167,0 -93.82241,-42.00571 -93.82241,-93.82241c0,-51.8167 42.00571,-93.82241 93.82241,-93.82241c51.8167,0 93.82241,42.00571 93.82241,93.82241z" fill="#ffb900" stroke-width="4.5" stroke-linecap="butt"/><path d="M382.00149,93.78481c0,-35.01128 33.49105,-63.39352 74.80436,-63.39352c41.31331,0 74.80436,28.38224 74.80436,63.39352c0,35.01128 -33.49105,63.39352 -74.80436,63.39352c-41.31331,0 -74.80436,-28.38224 -74.80436,-63.39352z" fill="#ffb900" stroke-width="4.5" stroke-linecap="butt"/><path d="M190.75,188.92248v-16.51163h71v16.51163z" fill="#00641b" stroke-width="3.5" stroke-linecap="butt"/><path d="M289.25,184l-28,11v-30z" fill="#00af30" stroke-width="3.5" stroke-linecap="round"/></g></g></svg>