<svg version="1.1" xmlns="http://www.w3.org/2000/svg" xmlns:xlink="http://www.w3.org/1999/xlink" width="91.44325" height="99.84077" viewBox="0,0,91.44325,99.84077"><g transform="translate(-194.27838,-130.18002)"><g data-paper-data="{&quot;isPaintingLayer&quot;:true}" stroke="#82ffff" stroke-miterlimit="10" stroke-dasharray="" stroke-dashoffset="0" style="mix-blend-mode: normal"><path d="M251.92165,130.67925c0.3,-0.2 0.8,-0.1 0.9,0.3l2.6,10.7c0,0 6.4,4.7 8.3,8c3.2,5.5 3.3,10 3.3,10c0,0 7.1,2.1 8.3,7.8c1.2,5.7 -3.2,16.5 -22,20.2c-18.8,3.7 -33.9,-1.4 -41,-12.8c-7.1,-11.4 4.1,-25 3.5,-24.2l-2.1,-17.9c-0.1,-0.4 0.4,-0.7 0.8,-0.5l12.1,7.9c0,0 4.5,-1.7 9.2,-1.9c2.8,-0.2 5.2,0 7.5,0.4z" fill="#ffab19" fill-rule="evenodd" stroke-width="1.2" stroke-linecap="butt" stroke-linejoin="miter"/><path d="M266.72165,160.07924c0,0 6.9,1.8 8.1,7.5c1.2,5.7 -3.6,16 -22.2,19.6c-24.2,5 -35.7,-9.4 -29,-20c6.7,-10.7 18.2,-1.6 26.6,-2.2c7.2,-0.5 8,-6.8 16.5,-4.9z" fill="#ffffff" fill-rule="evenodd" stroke-width="1" stroke-linecap="butt" stroke-linejoin="miter"/><path d="M235.22165,170.77925c0,-0.4 0.4,-0.7 0.8,-0.6c1.9,0.7 7.3,2.3 13.3,2.7c5.4,0.3 8.6,0 10.1,-0.3c0.5,-0.1 0.9,0.4 0.7,0.9c-0.9,2.7 -4.7,10.2 -15.2,9.6c-9.1,-1 -10,-7.4 -9.7,-12.3z" fill="#ffffff" fill-rule="evenodd" stroke-width="1.2" stroke-linecap="round" stroke-linejoin="round"/><path d="M285.12164,161.17925c-4.7,3.8 -11.9,3.9 -11.9,3.9" fill="none" fill-rule="evenodd" stroke-width="1.2" stroke-linecap="round" stroke-linejoin="round"/><path d="M283.82165,172.37925c-6.3,0.5 -10.2,-1.4 -10.2,-1.4" fill="none" fill-rule="evenodd" stroke-width="1.2" stroke-linecap="round" stroke-linejoin="round"/><path d="M249.82165,162.37925c2.1,0 4.3,0.2 4.4,0.9c0.1,1.4 -1.4,4.2 -3,4.3c-1.8,0.2 -6,-2.3 -6,-3.9c-0.1,-1.2 2.6,-1.3 4.6,-1.3z" fill="#001026" fill-rule="evenodd" stroke-width="1.2" stroke-linecap="round" stroke-linejoin="round"/><path d="M204.82165,160.87925c0,0 8.6,2.8 12.1,5.9" fill="none" fill-rule="evenodd" stroke-width="1.2" stroke-linecap="round" stroke-linejoin="round"/><path d="M217.22165,170.27925c-4.3,1.7 -11.7,0.6 -11.7,0.6" fill="none" fill-rule="evenodd" stroke-width="1.2" stroke-linecap="round" stroke-linejoin="round"/><g fill-rule="evenodd"><path d="M261.62164,150.67925c2.9,4.5 3,9.6 0.2,11.4c-2.8,1.8 -7.4,-0.3 -10.4,-4.8c-2.9,-4.5 -3,-9.6 -0.2,-11.4c2.8,-1.9 7.5,0.3 10.4,4.8z" fill="#ffffff" stroke-width="1.2" stroke-linecap="round" stroke-linejoin="round"/><path d="M261.22165,156.37925c0,1.1 -0.8,2 -1.8,2c-1,0 -1.8,-0.9 -1.8,-2c0,-1.1 0.8,-2 1.8,-2c1,0 1.8,0.9 1.8,2" fill="#001026" stroke-width="1" stroke-linecap="butt" stroke-linejoin="miter"/></g><g fill-rule="evenodd"><path d="M236.82165,153.47923c3,4.4 2.8,9.8 0.1,11.7c-3.3,1.9 -7.7,0.5 -10.7,-3.9c-3.1,-4.4 -3.3,-10.1 -0.2,-12.3c3.1,-2.3 7.8,0.1 10.8,4.5z" fill="#ffffff" stroke-width="1.2" stroke-linecap="round" stroke-linejoin="round"/><path d="M236.22165,159.27925c0,1.1 -0.8,2 -1.8,2c-1,0 -1.8,-0.9 -1.8,-2c0,-1.1 0.8,-2 1.8,-2c1,0.1 1.8,0.9 1.8,2" fill="#001026" stroke-width="1" stroke-linecap="butt" stroke-linejoin="miter"/></g><g fill-rule="evenodd"><path d="M237.24965,150.76092c3.50641,5.14273 3.27265,11.45426 0.11688,13.67498c-3.85704,2.22072 -8.99977,0.5844 -12.50617,-4.55832c-3.62329,-5.14273 -3.85705,-11.80489 -0.23376,-14.37626c3.62329,-2.68824 9.11665,0.11688 12.62305,5.2596z" fill="#ffffff" stroke-width="1.2" stroke-linecap="round" stroke-linejoin="round"/><path d="M236.54837,157.53998c0,1.28568 -0.93504,2.3376 -2.10384,2.3376c-1.1688,0 -2.10385,-1.05192 -2.10385,-2.3376c0,-1.28568 0.93505,-2.3376 2.10385,-2.3376c1.1688,0.11688 2.10384,1.05192 2.10384,2.3376" fill="#001026" stroke-width="1" stroke-linecap="butt" stroke-linejoin="miter"/></g><g fill-rule="evenodd"><path d="M263.26321,150.39079c3.5064,5.14273 3.27265,11.45425 0.11688,13.67497c-3.85705,2.22072 -8.99977,0.5844 -12.50617,-4.55832c-3.62329,-5.14273 -3.85704,-11.80488 -0.23376,-14.37625c3.62329,-2.68824 9.11665,0.11688 12.62305,5.2596z" fill="#ffffff" stroke-width="1.2" stroke-linecap="round" stroke-linejoin="round"/><path d="M262.56192,157.16985c0,1.28568 -0.93504,2.3376 -2.10384,2.3376c-1.1688,0 -2.10385,-1.05192 -2.10385,-2.3376c0,-1.28568 0.93505,-2.3376 2.10385,-2.3376c1.1688,0.11688 2.10384,1.05192 2.10384,2.3376" fill="#001026" stroke-width="1" stroke-linecap="butt" stroke-linejoin="miter"/></g><g fill-rule="evenodd"><path d="M237.67681,150.72108c3.50641,5.14273 3.27265,11.45426 0.11688,13.67498c-3.85704,2.22072 -8.99977,0.5844 -12.50617,-4.55832c-3.62329,-5.14273 -3.85705,-11.80489 -0.23376,-14.37626c3.62329,-2.68824 9.11665,0.11688 12.62305,5.2596z" fill="#ffffff" stroke-width="1.2" stroke-linecap="round" stroke-linejoin="round"/><path d="M236.97553,157.50016c0,1.28568 -0.93504,2.33761 -2.10384,2.33761c-1.1688,0 -2.10385,-1.05193 -2.10385,-2.33761c0,-1.28568 0.93505,-2.3376 2.10385,-2.3376c1.1688,0.11688 2.10384,1.05192 2.10384,2.3376" fill="#001026" stroke-width="1" stroke-linecap="butt" stroke-linejoin="miter"/></g><g fill-rule="evenodd"><path d="M263.69034,150.35098c3.5064,5.14273 3.27265,11.45425 0.11689,13.67497c-3.85705,2.22072 -8.99977,0.5844 -12.50618,-4.55832c-3.62329,-5.14273 -3.85704,-11.80489 -0.23376,-14.37625c3.62329,-2.68824 9.11665,0.11688 12.62305,5.2596z" fill="#ffffff" stroke-width="1.2" stroke-linecap="round" stroke-linejoin="round"/><path d="M262.98909,157.13001c0,1.28568 -0.93504,2.3376 -2.10384,2.3376c-1.1688,0 -2.10384,-1.05192 -2.10384,-2.3376c0,-1.28568 0.93505,-2.3376 2.10384,-2.3376c1.1688,0.11688 2.10384,1.05192 2.10384,2.3376" fill="#001026" stroke-width="1" stroke-linecap="butt" stroke-linejoin="miter"/></g><path d="M230.29052,163.8308l9.33936,-5.13665l-0.23349,4.43619l-4.66968,2.33484z" fill="#000000" fill-rule="nonzero" stroke-width="0.5" stroke-linecap="round" stroke-linejoin="miter"/><path d="M254.90318,163.11447l11.20723,-5.4909l-0.28019,4.74214l-5.60361,2.49586z" fill="#000000" fill-rule="nonzero" stroke-width="0.5" stroke-linecap="round" stroke-linejoin="miter"/><g fill-rule="evenodd"><path d="M226.65737,200.77923c0.8,0.4 2.5,1.3 0.1,4.7c-2.4,3.4 -9.3,4.1 -10.1,4.1c-3.1,0.1 -6.9,0.1 -11.1,-1.3c-12.2,-4 -12.3,-17.1 -8.4,-19.2c3.8,-2.1 5.5,6 11,10.9c2.4,2.2 5.3,3 7.7,3.5c3.4,0.6 9.9,-3.2 10.8,-2.7z" fill="#ffab19" stroke-width="1.2" stroke-linecap="round" stroke-linejoin="round"/><path d="M201.85737,192.67923c1.6,2.7 4.7,6.5 4.7,6.5c0,0 -3.7,-0.9 -5.8,0.8c-1.7,1.3 -1.3,3.5 -1.1,4.2c-1.3,-1.3 -2.9,-3.1 -3.9,-6.6c-1,-3.5 0,-7.7 2,-8.3c2,-0.4 2.5,1.1 4.1,3.4z" fill="#ffffff" stroke-width="1" stroke-linecap="butt" stroke-linejoin="miter"/></g><path d="M241.65737,211.17923c-1.8,1.2 -8,5.6 -15.9,8.1l-0.4,0.1c-0.4,0.1 -0.6,0.6 -0.4,1c1.7,2.4 4.8,7.2 -0.7,8.9c-5.3,1.7 -15.2,-12.4 -11,-16.1c1.9,-1.4 3.6,-0.7 4.5,-0.3c0.5,0.2 1,0.2 1.5,0.1c1.2,-0.4 3.4,-1.2 5.1,-2.1c4.3,-2.2 5.3,-3.1 7.3,-4.6c2,-1.5 6.6,-5.2 10.3,-2c3.2,2.7 1.4,5.7 -0.3,6.9z" fill="#ffab19" fill-rule="evenodd" stroke-width="1.2" stroke-linecap="round" stroke-linejoin="round"/><g fill-rule="evenodd"><path d="M247.05375,213.30909c2.1,1.9 6.7,5.8 6.7,5.8c0,0 14.3,-2.5 14.3,4.7c0,4.3 -7.2,5.3 -16.9,4.4c-0.6,-0.1 -1.2,-0.3 -1.7,-0.7c-2.2,-1.9 -8.5,-7.5 -12.5,-11.4c-1.70648,-1.67756 -3.32931,-3.1878 -4.77411,-4.48719c1.17481,-1.28116 2.09671,-2.85206 3.56788,-3.75679c0.45125,-0.27751 2.40145,-0.36435 2.85893,-0.73823c0.33285,-0.27203 0.72598,-0.57912 1.15879,-0.91195z" fill="#ffab19" stroke-width="1.2" stroke-linecap="round" stroke-linejoin="round"/><path d="" fill="#ffffff" stroke-width="1" stroke-linecap="butt" stroke-linejoin="miter"/></g><path d="M233.45084,206.66835c0.69338,-1.04006 1.73344,-0.34669 1.73344,-0.34669l0.51822,0.38197c0.05282,-0.23792 0.09671,-0.48958 0.15841,-0.75194c0,0 0.30317,-1.21268 1.51585,-0.90951c0.16842,0.04211 0.3076,0.10175 0.42242,0.17326c1.19031,-0.21284 1.84224,0.43639 2.91942,1.10622c0,0 1.04006,0.69338 0.34669,1.73344c-0.69338,1.04006 -1.73344,0.34669 -1.73344,0.34669c-1.68232,-1.26135 -1.23492,-0.09214 -2.12975,0.98182c0.00963,0.06254 0.01463,0.12661 0.01463,0.19185c0,0.69036 -0.55964,1.25 -1.25,1.25c-0.26266,0 -0.5064,-0.08101 -0.7076,-0.21942l-0.29272,-0.19515c-0.59194,0.49828 -0.98628,1.23896 -1.6269,1.68045l-0.5474,0.58173c0,0 -0.88388,0.88388 -1.76777,0c-0.88388,-0.88388 0,-1.76777 0,-1.76777l0.92842,-0.89409c0.39848,-0.25297 0.75278,-0.49192 1.08973,-0.72387l-0.32007,-0.48011c-0.1384,-0.20119 -0.21942,-0.44493 -0.21942,-0.7076c0,-0.53345 0.33416,-0.98885 0.80457,-1.1683c0.03589,-0.08489 0.08304,-0.17263 0.14328,-0.26298z" fill="#ffab19" fill-rule="nonzero" stroke-width="0.5" stroke-linecap="butt" stroke-linejoin="miter"/><path d="M232.70072,205.44882c-8.5,-8.3 -1.6,-11.8 1.1,-16.6c2.5,-4.1 3.6,-3.3 9.6,-2.1c3.4,0.5 5.4,0.8 7.6,0.7c3.3,-0.1 2.7,4.7 1.8,7.2c0,0 -1.4,3.7 -2.7,5.6c-1.6,2.3 -2.8,3.8 -4,4.7l0.0079,0.00769c-2.7603,1.20486 -5.4479,3.26758 -7.55227,5.45224c-3.4591,-3.1014 -5.85564,-4.95994 -5.85564,-4.95994z" fill="#ffab19" fill-rule="evenodd" stroke-width="1.2" stroke-linecap="round" stroke-linejoin="round"/><path d="M245.13778,205.56615c0,0 -1.5,-1.2 -3.1,-2.7c-2,-1.8 -4,-3.3 -2,-6.4c1.8,-2.4 3.5,-5.6 8,-2.7c4.3,2.7 2.4,5.2 2.4,5.2c-2.2,4.5 -5.3,6.6 -5.3,6.6z" fill="#ffffff" fill-rule="evenodd" stroke-width="1" stroke-linecap="butt" stroke-linejoin="miter"/></g></g></svg>