<svg version="1.1" xmlns="http://www.w3.org/2000/svg" xmlns:xlink="http://www.w3.org/1999/xlink" width="187" height="147.19739" viewBox="0,0,187,147.19739"><g transform="translate(-146.5,0.15402)"><g data-paper-data="{&quot;isPaintingLayer&quot;:true}" stroke-miterlimit="10" stroke-dasharray="" stroke-dashoffset="0" style="mix-blend-mode: normal"><path d="M235.41135,21.17164l2.83648,-3.2366l78.34083,3.82652l-2.83648,3.2366z" data-paper-data="{&quot;index&quot;:null}" fill="#737373" fill-rule="nonzero" stroke="#000000" stroke-width="3" stroke-linecap="butt" stroke-linejoin="miter"/><path d="M239.57678,18.34002l6.29709,2.95194l-71.45066,8.49503l-6.29709,-2.95194z" data-paper-data="{&quot;index&quot;:null}" fill="#737373" fill-rule="nonzero" stroke="#000000" stroke-width="3" stroke-linecap="butt" stroke-linejoin="miter"/><path d="M241.82332,20.33061l-13.99397,-0.09698l2.34733,-18.87843l13.99397,0.09698z" data-paper-data="{&quot;index&quot;:null}" fill="#737373" fill-rule="nonzero" stroke="#000000" stroke-width="3" stroke-linecap="butt" stroke-linejoin="miter"/><path d="M267,133.54337v-28h19v28z" data-paper-data="{&quot;index&quot;:null}" fill="#737373" fill-rule="nonzero" stroke="#000000" stroke-width="3" stroke-linecap="butt" stroke-linejoin="miter"/><path d="M221,132.54337v-21h18v21z" data-paper-data="{&quot;index&quot;:null}" fill="#737373" fill-rule="nonzero" stroke="#000000" stroke-width="3" stroke-linecap="butt" stroke-linejoin="miter"/><path d="M180,145.54337v-19h124v19z" data-paper-data="{&quot;index&quot;:null}" fill="#737373" fill-rule="nonzero" stroke="#000000" stroke-width="3" stroke-linecap="butt" stroke-linejoin="miter"/><path d="M240,40.54337c50.81019,0 92,17.90861 92,40c0,22.09139 -41.18981,40 -92,40c-50.81019,0 -92,-17.90861 -92,-40c0,-22.09139 41.18981,-40 92,-40z" data-paper-data="{&quot;index&quot;:null}" fill="#737373" fill-rule="nonzero" stroke="#000000" stroke-width="3" stroke-linecap="butt" stroke-linejoin="miter"/><path d="M150.7377,81.02282c0,-15.75146 15.28104,-28.52055 34.13115,-28.52055c18.85011,0 34.13115,12.76909 34.13115,28.52055c0,15.75146 -15.28104,28.52055 -34.13115,28.52055c-18.85011,0 -34.13115,-12.76908 -34.13115,-28.52055z" data-paper-data="{&quot;index&quot;:null}" fill="#ffffff" fill-rule="nonzero" stroke="none" stroke-width="0" stroke-linecap="butt" stroke-linejoin="miter"/><g data-paper-data="{&quot;index&quot;:null}" fill-rule="evenodd"><path d="M186.44794,65.29193c1.66986,-0.25589 3.41233,-0.38384 5.4452,-0.25589c3.41233,0.12795 6.67946,1.2155 6.67946,1.2155l8.78493,-5.05394c0.29041,-0.12795 0.65343,0.06398 0.58082,0.31987l-1.52465,11.45133c-0.43562,-0.51179 7.69589,8.18867 2.54109,15.48169c-5.15479,7.29302 -16.1178,10.5557 -29.76712,8.18866c-13.64932,-2.36703 -16.84384,-9.27622 -15.9726,-12.92273c0.87124,-3.64652 6.02603,-4.98997 6.02603,-4.98997c0,0 0.0726,-2.87883 2.39589,-6.39739c1.37945,-2.11114 6.02603,-5.11792 6.02603,-5.11792l1.88767,-6.84521c0.0726,-0.25589 0.43561,-0.31987 0.65342,-0.19192z" fill="#ffab19" stroke="#001026" stroke-width="1.2" stroke-linecap="butt" stroke-linejoin="miter"/><path d="M169.45891,78.98235c6.17123,-1.2155 6.75205,2.81485 11.97945,3.13472c6.09863,0.38385 14.44795,-5.43778 19.31233,1.40743c4.86438,6.78123 -3.48494,15.99348 -21.0548,12.79478c-13.50411,-2.30306 -16.98905,-8.89237 -16.11781,-12.53888c0.87123,-3.64652 5.88082,-4.79805 5.88082,-4.79805z" fill="#ffffff" stroke="none" stroke-width="1" stroke-linecap="butt" stroke-linejoin="miter"/><path d="M185.2863,93.69635c-7.62329,0.38384 -10.3822,-4.41421 -11.03562,-6.1415c-0.1452,-0.31987 0.14521,-0.63973 0.50822,-0.57576c1.08905,0.19192 3.41233,0.38384 7.33288,0.19192c4.35616,-0.25589 8.27671,-1.27947 9.65616,-1.72729c0.29041,-0.06398 0.58082,0.12795 0.58082,0.38384c0.21781,3.13472 -0.43561,7.22905 -7.04246,7.86879z" fill="#ffffff" stroke="#001026" stroke-width="1.2" stroke-linecap="round" stroke-linejoin="round"/><path d="M164.73972,82.18104c0,0 -5.22739,-0.06397 -8.63972,-2.49498" fill="none" stroke="#001026" stroke-width="1.2" stroke-linecap="round" stroke-linejoin="round"/><path d="M164.44931,85.9555c0,0 -2.83151,1.21551 -7.40548,0.89564" fill="none" stroke="#001026" stroke-width="1.2" stroke-linecap="round" stroke-linejoin="round"/><path d="M181.72877,80.45375c1.45205,0 3.41234,0.06397 3.33973,0.83166c0,1.02358 -3.04932,2.62293 -4.35617,2.49498c-1.16165,-0.06397 -2.2507,-1.85525 -2.17809,-2.75088c0.0726,-0.44781 1.66986,-0.57576 3.19452,-0.57576z" fill="#001026" stroke="#001026" stroke-width="1.2" stroke-linecap="round" stroke-linejoin="round"/><path d="M205.61507,83.2686c2.5411,-1.98319 8.78493,-3.77446 8.78493,-3.77446" fill="none" stroke="#001026" stroke-width="1.2" stroke-linecap="round" stroke-linejoin="round"/><path d="M213.89178,85.89153c0,0 -5.3726,0.70371 -8.49452,-0.38384" fill="none" stroke="#001026" stroke-width="1.2" stroke-linecap="round" stroke-linejoin="round"/><g><path d="M180.71233,69.89806c2.03287,1.15152 1.96027,4.41419 -0.14521,7.29302c-2.17808,2.87883 -5.51782,4.22228 -7.55069,3.07075c-2.03287,-1.15153 -1.96027,-4.4142 0.14521,-7.29303c2.10548,-2.87882 5.51782,-4.28624 7.55069,-3.07074z" fill="#ffffff" stroke="#001026" stroke-width="1.2" stroke-linecap="round" stroke-linejoin="round"/><path d="M173.45205,76.61531c0,-0.70371 0.58083,-1.27948 1.30685,-1.27948c0.72602,0 1.30685,0.57576 1.30685,1.27948c0,0.70372 -0.58083,1.27948 -1.30685,1.27948c-0.72602,0 -1.30685,-0.57576 -1.30685,-1.27948" fill="#001026" stroke="none" stroke-width="1" stroke-linecap="butt" stroke-linejoin="miter"/></g><g><path d="M191.16713,74.76008c2.17807,-2.81486 5.5904,-4.35023 7.84109,-2.87883c2.25068,1.40742 2.10548,5.05394 -0.14521,7.86879c-2.17808,2.81484 -5.37261,3.71048 -7.7685,2.49498c-1.96027,-1.2155 -2.10547,-4.6701 0.07261,-7.48495z" fill="#ffffff" stroke="#001026" stroke-width="1.2" stroke-linecap="round" stroke-linejoin="round"/><path d="M191.60274,78.47056c0,-0.70372 0.58083,-1.21551 1.30685,-1.27948c0.72602,0 1.30685,0.57576 1.30685,1.27948c0,0.70372 -0.58083,1.27948 -1.30685,1.27948c-0.72602,0 -1.30685,-0.57576 -1.30685,-1.27948" fill="#001026" stroke="none" stroke-width="1" stroke-linecap="butt" stroke-linejoin="miter"/></g></g><path d="M226,112.54337v-61h49v61z" data-paper-data="{&quot;index&quot;:null}" fill="#2d2d2d" fill-rule="nonzero" stroke="none" stroke-width="NaN" stroke-linecap="butt" stroke-linejoin="miter"/><path d="M197,66.54337l-9,8l-8,-10" data-paper-data="{&quot;index&quot;:null}" fill="none" fill-rule="nonzero" stroke="#000000" stroke-width="1.5" stroke-linecap="round" stroke-linejoin="miter"/><path d="M239,48.54337v-27h7v27z" data-paper-data="{&quot;index&quot;:null}" fill="#737373" fill-rule="nonzero" stroke="#000000" stroke-width="3" stroke-linecap="butt" stroke-linejoin="miter"/><path d="M234.41135,21.17164l2.83648,-3.2366l78.34083,3.82652l-2.83648,3.2366z" data-paper-data="{&quot;index&quot;:null}" fill="#737373" fill-rule="nonzero" stroke="#000000" stroke-width="3" stroke-linecap="butt" stroke-linejoin="miter"/><path d="M238.57678,18.34002l6.29709,2.95194l-71.45066,8.49503l-6.29709,-2.95194z" data-paper-data="{&quot;index&quot;:null}" fill="#737373" fill-rule="nonzero" stroke="#000000" stroke-width="3" stroke-linecap="butt" stroke-linejoin="miter"/><path d="M240.82332,20.3306l-13.99397,-0.09698l2.34733,-18.87843l13.99397,0.09698z" data-paper-data="{&quot;index&quot;:null}" fill="#737373" fill-rule="nonzero" stroke="#000000" stroke-width="3" stroke-linecap="butt" stroke-linejoin="miter"/><path d="M267,133.54336v-28h19v28z" data-paper-data="{&quot;index&quot;:null}" fill="#737373" fill-rule="nonzero" stroke="#000000" stroke-width="3" stroke-linecap="butt" stroke-linejoin="miter"/><path d="M221,132.54336v-21h18v21z" data-paper-data="{&quot;index&quot;:null}" fill="#737373" fill-rule="nonzero" stroke="#000000" stroke-width="3" stroke-linecap="butt" stroke-linejoin="miter"/><path d="M180,145.54336v-19h124v19z" data-paper-data="{&quot;index&quot;:null}" fill="#737373" fill-rule="nonzero" stroke="#000000" stroke-width="3" stroke-linecap="butt" stroke-linejoin="miter"/><path d="M240,40.54336c50.81019,0 92,17.90861 92,40c0,22.09139 -41.18981,40 -92,40c-50.81019,0 -92,-17.90861 -92,-40c0,-22.09139 41.18981,-40 92,-40z" data-paper-data="{&quot;index&quot;:null}" fill="#737373" fill-rule="nonzero" stroke="#000000" stroke-width="3" stroke-linecap="butt" stroke-linejoin="miter"/><path d="M150.7377,81.02281c0,-15.75146 15.28104,-28.52055 34.13115,-28.52055c18.85011,0 34.13115,12.76909 34.13115,28.52055c0,15.75146 -15.28104,28.52055 -34.13115,28.52055c-18.85011,0 -34.13115,-12.76908 -34.13115,-28.52055z" data-paper-data="{&quot;index&quot;:null}" fill="#ffffff" fill-rule="nonzero" stroke="#000000" stroke-width="3" stroke-linecap="butt" stroke-linejoin="miter"/><g data-paper-data="{&quot;index&quot;:null}" fill-rule="evenodd"><path d="M186.44794,65.29193c1.66986,-0.25589 3.41233,-0.38384 5.4452,-0.25589c3.41233,0.12795 6.67946,1.2155 6.67946,1.2155l8.78493,-5.05394c0.29041,-0.12795 0.65343,0.06398 0.58082,0.31987l-1.52465,11.45133c-0.43562,-0.51179 7.69589,8.18867 2.54109,15.48169c-5.15479,7.29302 -16.1178,10.5557 -29.76712,8.18866c-13.64932,-2.36703 -16.84384,-9.27622 -15.9726,-12.92273c0.87124,-3.64652 6.02603,-4.98997 6.02603,-4.98997c0,0 0.0726,-2.87883 2.39589,-6.39739c1.37945,-2.11114 6.02603,-5.11792 6.02603,-5.11792l1.88767,-6.84521c0.0726,-0.25589 0.43561,-0.31987 0.65342,-0.19192z" fill="#ffab19" stroke="#001026" stroke-width="1.2" stroke-linecap="butt" stroke-linejoin="miter"/><path d="M169.45891,78.98234c6.17123,-1.2155 6.75205,2.81485 11.97945,3.13472c6.09863,0.38385 14.44795,-5.43778 19.31233,1.40743c4.86438,6.78123 -3.48494,15.99348 -21.0548,12.79478c-13.50411,-2.30306 -16.98905,-8.89237 -16.11781,-12.53888c0.87123,-3.64652 5.88082,-4.79805 5.88082,-4.79805z" fill="#ffffff" stroke="none" stroke-width="1" stroke-linecap="butt" stroke-linejoin="miter"/><path d="M185.2863,93.69634c-7.62329,0.38384 -10.3822,-4.41421 -11.03562,-6.1415c-0.1452,-0.31987 0.14521,-0.63973 0.50822,-0.57576c1.08905,0.19192 3.41233,0.38384 7.33288,0.19192c4.35616,-0.25589 8.27671,-1.27947 9.65616,-1.72729c0.29041,-0.06398 0.58082,0.12795 0.58082,0.38384c0.21781,3.13472 -0.43561,7.22905 -7.04246,7.86879z" fill="#ffffff" stroke="#001026" stroke-width="1.2" stroke-linecap="round" stroke-linejoin="round"/><path d="M164.73972,82.18103c0,0 -5.22739,-0.06397 -8.63972,-2.49498" fill="none" stroke="#001026" stroke-width="1.2" stroke-linecap="round" stroke-linejoin="round"/><path d="M164.44931,85.95549c0,0 -2.83151,1.21551 -7.40548,0.89564" fill="none" stroke="#001026" stroke-width="1.2" stroke-linecap="round" stroke-linejoin="round"/><path d="M181.72877,80.45374c1.45205,0 3.41234,0.06397 3.33973,0.83166c0,1.02358 -3.04932,2.62293 -4.35617,2.49498c-1.16165,-0.06397 -2.2507,-1.85525 -2.17809,-2.75088c0.0726,-0.44781 1.66986,-0.57576 3.19452,-0.57576z" fill="#001026" stroke="#001026" stroke-width="1.2" stroke-linecap="round" stroke-linejoin="round"/><path d="M205.61507,83.26859c2.5411,-1.98319 8.78493,-3.77446 8.78493,-3.77446" fill="none" stroke="#001026" stroke-width="1.2" stroke-linecap="round" stroke-linejoin="round"/><path d="M213.89178,85.89152c0,0 -5.3726,0.70371 -8.49452,-0.38384" fill="none" stroke="#001026" stroke-width="1.2" stroke-linecap="round" stroke-linejoin="round"/><g><path d="M180.71233,69.89805c2.03287,1.15152 1.96027,4.41419 -0.14521,7.29302c-2.17808,2.87883 -5.51782,4.22228 -7.55069,3.07075c-2.03287,-1.15153 -1.96027,-4.4142 0.14521,-7.29303c2.10548,-2.87882 5.51782,-4.28624 7.55069,-3.07074z" fill="#ffffff" stroke="#001026" stroke-width="1.2" stroke-linecap="round" stroke-linejoin="round"/><path d="M173.45205,76.6153c0,-0.70371 0.58083,-1.27948 1.30685,-1.27948c0.72602,0 1.30685,0.57576 1.30685,1.27948c0,0.70372 -0.58083,1.27948 -1.30685,1.27948c-0.72602,0 -1.30685,-0.57576 -1.30685,-1.27948" fill="#001026" stroke="none" stroke-width="1" stroke-linecap="butt" stroke-linejoin="miter"/></g><g><path d="M191.16713,74.76007c2.17807,-2.81486 5.5904,-4.35023 7.84109,-2.87883c2.25068,1.40742 2.10548,5.05394 -0.14521,7.86879c-2.17808,2.81484 -5.37261,3.71048 -7.7685,2.49498c-1.96027,-1.2155 -2.10547,-4.6701 0.07261,-7.48495z" fill="#ffffff" stroke="#001026" stroke-width="1.2" stroke-linecap="round" stroke-linejoin="round"/><path d="M191.60274,78.47055c0,-0.70372 0.58083,-1.21551 1.30685,-1.27948c0.72602,0 1.30685,0.57576 1.30685,1.27948c0,0.70372 -0.58083,1.27948 -1.30685,1.27948c-0.72602,0 -1.30685,-0.57576 -1.30685,-1.27948" fill="#001026" stroke="none" stroke-width="1" stroke-linecap="butt" stroke-linejoin="miter"/></g></g><path d="M226,112.54336v-61h49v61z" data-paper-data="{&quot;index&quot;:null}" fill="#2d2d2d" fill-rule="nonzero" stroke="none" stroke-width="NaN" stroke-linecap="butt" stroke-linejoin="miter"/><path d="M197,66.54336l-9,8l-8,-10" data-paper-data="{&quot;index&quot;:null}" fill="none" fill-rule="nonzero" stroke="#000000" stroke-width="1.5" stroke-linecap="round" stroke-linejoin="miter"/></g></g></svg>