<svg version="1.1" xmlns="http://www.w3.org/2000/svg" xmlns:xlink="http://www.w3.org/1999/xlink" width="265" height="246" viewBox="0,0,265,246"><g transform="translate(-95,-57)"><g data-paper-data="{&quot;isPaintingLayer&quot;:true}" fill-rule="nonzero" stroke="none" stroke-linecap="butt" stroke-linejoin="miter" stroke-miterlimit="10" stroke-dasharray="" stroke-dashoffset="0" style="mix-blend-mode: normal"><path d="M226,164.66667v-10h18v10z" fill="#000000" stroke-width="NaN"/><path d="M328,182.5c0,47.22035 -39.39894,85.5 -88,85.5c-48.60106,0 -88,-38.27965 -88,-85.5c0,-47.22035 39.39894,-85.5 88,-85.5c48.60106,0 88,38.27965 88,85.5z" fill="#ff0000" stroke-width="0"/><path d="M287,200.5c0,-28.44266 16.34161,-51.5 36.5,-51.5c20.15839,0 36.5,23.05734 36.5,51.5c0,28.44266 -16.34161,51.5 -36.5,51.5c-20.15839,0 -36.5,-23.05734 -36.5,-51.5z" fill="#ffb900" stroke-width="0"/><path d="M247,119c0,-22.09139 20.14719,-40 45,-40c24.85281,0 45,17.90861 45,40c0,22.09139 -20.14719,40 -45,40c-24.85281,0 -45,-17.90861 -45,-40z" fill="#ffb900" stroke-width="0"/><path d="M183,96.5c0,-21.81525 19.69947,-39.5 44,-39.5c24.30053,0 44,17.68475 44,39.5c0,21.81525 -19.69947,39.5 -44,39.5c-24.30053,0 -44,-17.68475 -44,-39.5z" fill="#ffb900" stroke-width="0"/><path d="M129,124c0,-23.74824 21.04262,-43 47,-43c25.95738,0 47,19.25176 47,43c0,23.74824 -21.04262,43 -47,43c-25.95738,0 -47,-19.25176 -47,-43z" fill="#ffb900" stroke-width="0"/><path d="M156,153c19.88225,0 36,16.78932 36,37.5c0,20.71068 -16.11775,37.5 -36,37.5c-19.88225,0 -36,-16.78932 -36,-37.5c0,-20.71068 16.11775,-37.5 36,-37.5z" fill="#ffb900" stroke-width="0"/><path d="M217,260.5c0,21.81525 -14.55075,39.5 -32.5,39.5c-17.94925,0 -32.5,-17.68475 -32.5,-39.5c0,-21.81525 14.55075,-39.5 32.5,-39.5c17.94925,0 32.5,17.68475 32.5,39.5z" fill="#ffb900" stroke-width="0"/><path d="M278,271c0,16.01626 -14.7746,29 -33,29c-18.2254,0 -33,-12.98374 -33,-29c0,-16.01626 14.7746,-29 33,-29c18.2254,0 33,12.98374 33,29z" fill="#ffb900" stroke-width="0"/><path d="M334,266c0,20.43454 -16.56546,37 -37,37c-20.43454,0 -37,-16.56546 -37,-37c0,-20.43454 16.56546,-37 37,-37c20.43454,0 37,16.56546 37,37z" fill="#ffb900" stroke-width="0"/><path d="M296,146c0,-13.80712 13.2076,-25 29.5,-25c16.2924,0 29.5,11.19288 29.5,25c0,13.80712 -13.2076,25 -29.5,25c-16.2924,0 -29.5,-11.19288 -29.5,-25z" fill="#ffb900" stroke-width="0"/><path d="M95,203.58333v-24.16667h70.5v24.16667z" fill="#000000" stroke-width="NaN"/><path d="M147,211.33333v-40h70v40z" fill="#000000" stroke-width="0"/></g></g></svg>