<svg version="1.1" xmlns="http://www.w3.org/2000/svg" xmlns:xlink="http://www.w3.org/1999/xlink" width="262.56143" height="194.46305" viewBox="0,0,262.56143,194.46305"><g transform="translate(-106.4789,-70.76847)"><g data-paper-data="{&quot;isPaintingLayer&quot;:true}" stroke-miterlimit="10" stroke-dasharray="" stroke-dashoffset="0" style="mix-blend-mode: normal"><path d="M108.86587,265.23152v-194.46305h260.17446v194.46305z" fill="#000000" fill-rule="nonzero" stroke="none" stroke-width="NaN" stroke-linecap="butt" stroke-linejoin="miter"/><path d="M177.29863,155.93516c0.16712,-0.25935 0.59359,-0.35157 0.8086,-0.07183l5.69289,7.50831c0,0 6.62633,1.50311 9.24375,3.44387c4.3885,3.22323 6.0032,6.72008 6.0032,6.72008c0,0 6.28801,-0.77599 9.17548,3.28692c2.88747,4.06293 3.12184,14.03938 -10.36673,23.36058c-13.48857,9.32119 -27.07803,10.47425 -36.5409,3.95288c-9.46284,-6.52138 -5.31737,-21.01625 -5.51506,-20.18371l-7.7585,-13.32858c-0.21502,-0.27973 0.07491,-0.68582 0.45704,-0.66544l12.19135,2.06814c0,0 2.95063,-2.87014 6.57028,-4.63155c2.12877,-1.11281 4.08025,-1.77518 6.02154,-2.24648z" fill="#ffab19" fill-rule="evenodd" stroke="#001026" stroke-width="1.2" stroke-linecap="butt" stroke-linejoin="miter"/><path d="M198.94822,175.01925c0,0 6.02868,-0.94313 8.91613,3.1198c2.88747,4.06293 2.63729,13.78359 -10.72851,22.95805c-17.28196,12.18471 -31.22148,4.81141 -29.58285,-5.79326c1.60448,-10.68316 13.73469,-7.46857 20.12103,-10.80698c5.47888,-2.85026 3.95593,-8.06675 11.2742,-9.47763z" fill="#ffffff" fill-rule="evenodd" stroke="none" stroke-width="1" stroke-linecap="butt" stroke-linejoin="miter"/><path d="M177.88409,193.10123c-0.13656,-0.31386 0.07491,-0.68582 0.4229,-0.7439c1.72983,-0.09936 6.51322,-0.68735 11.35776,-2.42177c4.33959,-1.60806 6.74812,-2.93588 7.82269,-3.68333c0.35818,-0.24917 0.84276,0.00662 0.8565,0.46724c0.21552,2.42584 -0.20585,9.60807 -8.64965,12.72175c-7.48182,2.32189 -10.37286,-2.39271 -11.81022,-6.33998z" fill="#ffffff" fill-rule="evenodd" stroke="#001026" stroke-width="1.2" stroke-linecap="round" stroke-linejoin="round"/><path d="M215.3706,168.39066c-2.39069,4.58621 -8.00612,7.12261 -8.00612,7.12261" fill="none" fill-rule="evenodd" stroke="#001026" stroke-width="1.2" stroke-linecap="round" stroke-linejoin="round"/><path d="M218.174,177.62267c-4.77269,2.54302 -8.4815,2.38355 -8.4815,2.38355" fill="none" fill-rule="evenodd" stroke="#001026" stroke-width="1.2" stroke-linecap="round" stroke-linejoin="round"/><path d="M186.47258,181.52591c1.6478,-0.71689 3.44234,-1.311 3.75978,-0.79586c0.55638,1.0644 0.33526,3.77353 -0.88606,4.3982c-1.3441,0.77141 -5.49317,0.24355 -6.03937,-1.01191c-0.48812,-0.90745 1.59632,-1.90764 3.16565,-2.59041z" fill="#001026" fill-rule="evenodd" stroke="#001026" stroke-width="1.2" stroke-linecap="round" stroke-linejoin="round"/><path d="M150.65062,195.71101c0,0 7.70396,-0.73881 11.50856,0.49881" fill="none" fill-rule="evenodd" stroke="#001026" stroke-width="1.2" stroke-linecap="round" stroke-linejoin="round"/><path d="M163.58943,198.85374c-2.79372,2.80186 -8.97574,4.46496 -8.97574,4.46496" fill="none" fill-rule="evenodd" stroke="#001026" stroke-width="1.2" stroke-linecap="round" stroke-linejoin="round"/><g fill-rule="evenodd"><path d="M192.61346,169.05011c3.81175,2.54098 5.63124,6.50862 4.04866,8.87689c-1.58257,2.36826 -5.90892,2.2908 -9.79913,-0.21604c-3.81175,-2.54098 -5.63124,-6.50865 -4.04866,-8.87689c1.54843,-2.44672 5.98739,-2.32494 9.79913,0.21605z" fill="#ffffff" stroke="#001026" stroke-width="1.2" stroke-linecap="round" stroke-linejoin="round"/><path d="M194.24547,173.65923c0.37551,0.86313 0.05503,1.84244 -0.72963,2.18381c-0.78467,0.34137 -1.71965,-0.09173 -2.09515,-0.95484c-0.37551,-0.86313 -0.05503,-1.84241 0.72963,-2.1838c0.78467,-0.34137 1.71965,0.09172 2.09515,0.95483" fill="#001026" stroke="none" stroke-width="1" stroke-linecap="butt" stroke-linejoin="miter"/></g><g fill-rule="evenodd"><path d="M173.23366,178.98032c3.85606,2.42837 5.54259,6.73384 4.07262,9.14643c-1.94077,2.61741 -5.87123,3.02096 -9.72727,0.59257c-3.93453,-2.39424 -6.03732,-6.79855 -4.3559,-9.58309c1.64729,-2.86301 6.1545,-2.58429 10.01057,-0.15593z" fill="#ffffff" stroke="#001026" stroke-width="1.2" stroke-linecap="round" stroke-linejoin="round"/><path d="M174.74288,183.73621c0.37551,0.86313 0.05502,1.84244 -0.72965,2.18381c-0.78467,0.34137 -1.71965,-0.09172 -2.09515,-0.95484c-0.37551,-0.86313 -0.05502,-1.84241 0.72965,-2.1838c0.81878,-0.26292 1.71965,0.09172 2.09515,0.95483" fill="#001026" stroke="none" stroke-width="1" stroke-linecap="butt" stroke-linejoin="miter"/></g><path d="M184.0969,199.07558l-0.16994,0.07394c0.08179,0.00494 0.16358,0.00952 0.24539,0.01368zM190.07883,202.84817c-0.66984,0.19988 -1.3832,0.44462 -2.10791,0.67584c-1.07144,0.68953 -2.20563,1.26644 -3.49949,1.25333c-1.3101,-0.01327 -2.43282,-0.97342 -3.64923,-1.46013l-0.10148,-0.15552l-0.04423,0.06863l-2.05036,-1.32126c-0.40567,-0.25313 -0.74155,-0.6275 -0.94674,-1.09912c-0.24267,-0.55781 -0.26119,-1.15661 -0.0952,-1.6957c-0.52719,-0.2864 -0.84554,-0.6828 -0.84554,-0.6828c-0.72343,-1.1652 -2.22147,-2.12504 -2.17028,-3.49559c0.18405,-4.92753 7.67471,-6.88689 11.47034,-6.94884c1.58468,-0.02586 3.23836,0.44211 4.75467,-0.01912c2.23927,-0.68113 4.44301,-1.79443 6.66677,-2.65874l1.20109,-2.20175c0.25072,-0.47026 0.65609,-0.86233 1.18273,-1.09145c1.23959,-0.5393 2.68167,0.02839 3.22096,1.26798c0.15355,0.3529 0.21736,0.72227 0.20148,1.08249l-0.07099,3.22017l-0.07491,-0.00165c0.0159,0.11948 0.02949,0.23941 0.04055,0.35977c0.02988,0.32488 -0.03234,0.6386 -0.13763,0.94761c-0.01015,0.62977 -0.26436,1.23676 -0.70945,1.6859c-0.01771,0.05606 -0.03396,0.11237 -0.04843,0.16891c-0.30022,1.17388 -0.67094,4.83402 -1.1987,5.60874c-1.71732,2.52089 -5.54263,3.47785 -8.58993,4.6466l0.16544,1.6489c0,0 -1.31935,0.91773 -2.56355,0.19683zM179.9872,194.95427c-0.0151,-0.1511 -0.0302,-0.30218 -0.04529,-0.45331c-0.09071,0.13881 -0.08698,0.28952 0.04529,0.45331z" fill="#ffffff" fill-rule="nonzero" stroke="none" stroke-width="0.5" stroke-linecap="butt" stroke-linejoin="miter"/><g fill-rule="evenodd"><path d="M172.64152,176.70126c4.50697,2.8383 6.47818,7.87053 4.76008,10.69035c-2.26837,3.05923 -6.86228,3.53089 -11.36927,0.69262c-4.59869,-2.7984 -7.05645,-7.94617 -5.09119,-11.20073c1.92535,-3.34629 7.1934,-3.02054 11.70037,-0.18224z" fill="#ffffff" stroke="#001026" stroke-width="1.2" stroke-linecap="round" stroke-linejoin="round"/><path d="M174.40549,182.25993c0.43891,1.00884 0.06432,2.15343 -0.85279,2.55244c-0.91711,0.39901 -2.00992,-0.10718 -2.44883,-1.11601c-0.43891,-1.00884 -0.06431,-2.15343 0.85281,-2.55245c0.95702,-0.3073 2.00992,0.10718 2.44883,1.11602" fill="#001026" stroke="none" stroke-width="1" stroke-linecap="butt" stroke-linejoin="miter"/></g><path d="M160.39741,182.63717c-0.98882,-1.55608 -2.33985,-2.36132 -1.25625,-4.53671c-0.18291,-0.52158 -0.26876,-1.04279 -0.06973,-1.43856c0.5867,-1.16665 4.10759,-1.71354 5.25224,-2.20409c1.7264,-0.29761 4.94484,-1.59279 6.58163,-1.3279c1.4688,0.23769 1.74806,2.00012 1.837,3.22509c0.54963,1.28483 0.26021,2.82616 -0.4272,4.19695c-0.49736,1.71179 -1.37238,3.32801 -2.53127,4.71289c-0.64382,0.93551 -1.26602,1.12721 -2.28822,1.56883c-2.9732,1.2845 -4.61726,-0.0128 -5.74615,-2.09257c-0.50197,-0.69557 -0.93305,-1.44452 -1.35207,-2.10393zM170.65725,174.49515c-0.15834,0.00352 -0.32065,0.01422 -0.48625,0.031c0.25099,-0.00792 0.49657,0.00278 0.72709,0.05415c-0.06948,-0.05625 -0.14925,-0.08719 -0.24084,-0.08515z" fill="#ffab19" fill-rule="nonzero" stroke="#000000" stroke-width="1.5" stroke-linecap="butt" stroke-linejoin="miter"/><g fill-rule="evenodd"><path d="M192.92708,167.53031c4.50697,2.8383 6.47818,7.87053 4.76006,10.69035c-2.26837,3.05923 -6.86228,3.53089 -11.36924,0.69262c-4.59869,-2.7984 -7.05643,-7.94615 -5.09119,-11.20073c1.92535,-3.34629 7.1934,-3.02054 11.70037,-0.18224z" fill="#ffffff" stroke="#001026" stroke-width="1.2" stroke-linecap="round" stroke-linejoin="round"/><path d="M194.69102,173.089c0.43891,1.00884 0.06431,2.15343 -0.85279,2.55244c-0.91711,0.39901 -2.00992,-0.10718 -2.44883,-1.11601c-0.43891,-1.00884 -0.06431,-2.15343 0.85281,-2.55245c0.95702,-0.3073 2.00992,0.10718 2.44883,1.11602" fill="#001026" stroke="none" stroke-width="1" stroke-linecap="butt" stroke-linejoin="miter"/></g><path d="M180.55872,172.75074c-0.91467,-1.43942 -2.1644,-2.18429 -1.16206,-4.19657c-0.16919,-0.48248 -0.24859,-0.9646 -0.06451,-1.3307c0.54271,-1.07916 3.79961,-1.58507 4.85843,-2.03883c1.59696,-0.2753 4.5741,-1.47338 6.08817,-1.22833c1.35866,0.21988 1.61701,1.85017 1.69928,2.98328c0.50841,1.18849 0.24069,2.61427 -0.39517,3.8823c-0.46007,1.58344 -1.26949,3.07847 -2.34148,4.35953c-0.59557,0.86537 -1.1711,1.04269 -2.11665,1.4512c-2.75029,1.18819 -4.27108,-0.01185 -5.31531,-1.93568c-0.46433,-0.64342 -0.86308,-1.33621 -1.25068,-1.94617zM190.0493,165.21918c-0.14647,0.00326 -0.2966,0.01315 -0.44981,0.02869c0.23215,-0.00732 0.45935,0.00256 0.67258,0.05008c-0.06426,-0.05201 -0.13806,-0.08066 -0.22278,-0.07877z" fill="#ffab19" fill-rule="nonzero" stroke="#000000" stroke-width="1.5" stroke-linecap="butt" stroke-linejoin="miter"/><path d="M182.59825,196.98545l16.59327,-2.42571" fill="none" fill-rule="nonzero" stroke="#000000" stroke-width="1.5" stroke-linecap="round" stroke-linejoin="miter"/><g fill-rule="evenodd"><path d="M193.24863,167.35327c4.50697,2.8383 6.47818,7.87053 4.76008,10.69035c-2.26837,3.05923 -6.86228,3.53089 -11.36927,0.69262c-4.59869,-2.7984 -7.05643,-7.94617 -5.09119,-11.20073c1.92535,-3.34629 7.1934,-3.02054 11.70037,-0.18224z" fill="#ffffff" stroke="#001026" stroke-width="1.2" stroke-linecap="round" stroke-linejoin="round"/><path d="M195.01261,172.91191c0.43891,1.00884 0.06431,2.15343 -0.85279,2.55245c-0.91711,0.39901 -2.00992,-0.10718 -2.44883,-1.11602c-0.43891,-1.00884 -0.06431,-2.15343 0.85279,-2.55245c0.95702,-0.3073 2.00992,0.10718 2.44883,1.11602" fill="#001026" stroke="none" stroke-width="1" stroke-linecap="butt" stroke-linejoin="miter"/></g><path d="M180.8803,172.57367c-0.91467,-1.43942 -2.1644,-2.18429 -1.16206,-4.19658c-0.16919,-0.48248 -0.24859,-0.9646 -0.06451,-1.3307c0.54271,-1.07916 3.7996,-1.58507 4.85841,-2.03883c1.59696,-0.2753 4.5741,-1.47338 6.08817,-1.22833c1.35866,0.21988 1.61701,1.85017 1.69928,2.98328c0.50841,1.18849 0.24069,2.61427 -0.39517,3.88229c-0.46007,1.58344 -1.26949,3.07847 -2.34148,4.35953c-0.59557,0.86537 -1.1711,1.04269 -2.11665,1.4512c-2.75029,1.18819 -4.27106,-0.01185 -5.31531,-1.93568c-0.46433,-0.64342 -0.86308,-1.33621 -1.2507,-1.94617zM190.37088,165.04211c-0.14647,0.00326 -0.2966,0.01315 -0.44981,0.02869c0.23215,-0.00732 0.45933,0.00256 0.67258,0.05008c-0.06426,-0.05201 -0.13805,-0.08066 -0.22278,-0.07877z" fill="#ffab19" fill-rule="nonzero" stroke="#000000" stroke-width="1.5" stroke-linecap="butt" stroke-linejoin="miter"/><path d="M182.91983,196.8084l16.59327,-2.42571" fill="none" fill-rule="nonzero" stroke="#000000" stroke-width="1.5" stroke-linecap="round" stroke-linejoin="miter"/><path d="M171.64274,189.33242l5.57472,-7.21881l1.33121,3.56063l-2.86706,3.42619z" fill="#000000" fill-rule="nonzero" stroke="#000000" stroke-width="0.5" stroke-linecap="round" stroke-linejoin="miter"/><path d="M190.91466,180.83648l6.91943,-8.13444l1.39901,3.81664l-3.54492,3.87137z" fill="#000000" fill-rule="nonzero" stroke="#000000" stroke-width="0.5" stroke-linecap="round" stroke-linejoin="miter"/><g fill-rule="evenodd"><path d="M181.40538,219.56482c0.76429,0.04076 2.40545,0.16661 1.68294,3.65378c-0.72251,3.48719 -5.89772,6.39195 -6.52544,6.66506c-2.39831,1.13675 -5.38004,2.43398 -9.15357,2.76924c-10.93842,1.02618 -15.48897,-9.21879 -13.14568,-12.19796c2.26484,-2.94505 6.36393,2.8304 12.35234,4.79767c2.63422,0.90695 5.18285,0.54469 7.23674,0.1177c2.87268,-0.68988 6.67577,-5.89059 7.55266,-5.80549z" fill="#ffab19" stroke="#001026" stroke-width="1.2" stroke-linecap="round" stroke-linejoin="round"/><path d="M159.18053,221.67524c2.1772,1.57238 5.90689,3.49584 5.90689,3.49584c0,0 -3.21051,0.55692 -4.27796,2.60774c-0.89013,1.60041 0.17476,3.19011 0.57066,3.67111c-1.46385,-0.57626 -3.3338,-1.44244 -5.31329,-3.8474c-1.9795,-2.40494 -2.62864,-6.04191 -1.26413,-7.19548c1.43277,-0.99662 2.33718,0.00967 4.37782,1.26819z" fill="#ffffff" stroke="none" stroke-width="1" stroke-linecap="butt" stroke-linejoin="miter"/></g><path d="M197.08983,224.22739c-0.94503,1.5918 -4.10148,7.28041 -9.27249,12.13178l-0.27167,0.22512c-0.27167,0.22512 -0.24101,0.68493 0.06127,0.91959c2.19954,1.22304 6.36716,3.78009 2.75208,7.12637c-3.46075,3.27231 -16.3156,-3.94544 -14.44347,-8.35407c0.94821,-1.7831 2.51891,-1.87184 3.36134,-1.8961c0.45981,-0.03063 0.84561,-0.21558 1.19443,-0.4777c0.77799,-0.75256 2.17963,-2.18366 3.15847,-3.50698c2.50415,-3.28819 2.94286,-4.35257 3.93123,-6.24984c0.98837,-1.89725 3.16915,-6.45387 7.2079,-5.35336c3.46795,0.89966 3.18877,3.88037 2.32091,5.43517z" fill="#ffab19" fill-rule="evenodd" stroke="#001026" stroke-width="1.2" stroke-linecap="round" stroke-linejoin="round"/><g fill-rule="evenodd"><path d="M202.69947,222.66164c1.98247,1.39367 6.29762,4.22403 6.29762,4.22403c0,0 11.88278,-3.62096 12.6369,2.49382c0.45038,3.65189 -5.55965,5.25528 -13.89189,5.5069c-0.52005,-0.02208 -1.05056,-0.12909 -1.51708,-0.41643c-2.06741,-1.3832 -8.00438,-5.47928 -11.80996,-8.37249c-1.62499,-1.24597 -3.16137,-2.3586 -4.52451,-3.31082c0.86355,-1.21111 1.48196,-2.64179 2.63663,-3.56424c0.35418,-0.28295 2.00133,-0.56096 2.3507,-0.92641c0.25419,-0.26588 0.55589,-0.56786 0.88862,-0.89586z" fill="#ffab19" stroke="#001026" stroke-width="1.2" stroke-linecap="round" stroke-linejoin="round"/><path d="" fill="#ffffff" stroke="none" stroke-width="1" stroke-linecap="butt" stroke-linejoin="miter"/></g><path d="M188.7464,221.86664c0.18902,-1.05281 1.2418,-0.86379 1.2418,-0.86379l0.53702,0.12281c-0.03977,-0.2047 -0.09125,-0.41717 -0.1324,-0.6441c0,0 -0.17611,-1.05504 0.87893,-1.23115c0.14653,-0.02444 0.27611,-0.02516 0.39061,-0.00826c0.86133,-0.57336 1.5945,-0.28648 2.6684,-0.12862c0,0 1.05281,0.18902 0.86379,1.24183c-0.18902,1.05281 -1.2418,0.86379 -1.2418,0.86379c-1.75066,-0.41543 -1.00045,0.34928 -1.33596,1.49745c0.02891,0.04578 0.0547,0.09434 0.07698,0.14555c0.23567,0.54171 -0.01241,1.17189 -0.55411,1.40755c-0.20611,0.08966 -0.425,0.10931 -0.63013,0.06939l-0.29629,-0.0532c-0.29436,0.59306 -0.35094,1.30887 -0.7029,1.87398l-0.23093,0.64333c0,0 -0.3918,0.99529 -1.3871,0.60347c-0.99529,-0.3918 -0.60347,-1.3871 -0.60347,-1.3871l0.42328,-1.0185c0.22632,-0.33452 0.42275,-0.64298 0.60796,-0.94l-0.41504,-0.26746c-0.17728,-0.11061 -0.32405,-0.27421 -0.41373,-0.48033c-0.18211,-0.41858 -0.07537,-0.89 0.23248,-1.19138c-0.00082,-0.07885 0.00621,-0.16379 0.02265,-0.25526z" fill="#ffab19" fill-rule="nonzero" stroke="none" stroke-width="0.5" stroke-linecap="butt" stroke-linejoin="miter"/><path d="M187.8799,223.19404c-9.50308,-3.61098 -5.28375,-8.71283 -4.80378,-13.40093c0.56201,-4.07058 1.69826,-3.81837 6.81588,-4.92505c2.83854,-0.76836 4.51029,-1.21572 6.2024,-2.04522c2.55525,-1.20503 3.72307,2.76619 3.87033,5.03509c0,0 0.16459,3.3812 -0.20685,5.31584c-0.4703,2.35094 -0.89981,3.93759 -1.53416,5.05344l0.00882,0.00333c-1.75459,1.88773 -3.15929,4.42375 -4.06471,6.85636c-3.77299,-1.25269 -6.28792,-1.89288 -6.28792,-1.89288z" fill="#ffab19" fill-rule="evenodd" stroke="#000000" stroke-width="1.2" stroke-linecap="round" stroke-linejoin="round"/><path d="M197.67887,219.04035c0,0 -1.58666,-0.42953 -3.3542,-1.06032c-2.18381,-0.72963 -4.26521,-1.22387 -3.75416,-4.33909c0.5931,-2.49768 0.8346,-5.58894 5.35558,-4.84964c4.29578,0.65066 3.65838,3.26094 3.65838,3.26094c-0.19006,4.28203 -1.90562,6.9881 -1.90562,6.9881z" fill="#ffffff" fill-rule="evenodd" stroke="#000000" stroke-width="1" stroke-linecap="butt" stroke-linejoin="miter"/><path d="M201.80475,199.19924c-2.52988,-1.69837 -6.22131,-3.64978 -3.48675,-7.14539c3.93133,-4.24358 10.55956,2.60268 12.29747,5.1876c1.55091,2.28573 -0.03746,4.60003 -1.37945,6.56454c-2.68177,3.65842 -4.87294,6.88787 -8.52479,6.7228c-4.54503,-0.14528 -2.67063,-4.35147 -1.11086,-6.47657c0.93059,-1.29133 1.83478,-2.66407 2.54537,-3.52424c0.11221,-0.4862 0.03521,-1.00097 -0.34098,-1.32874z" fill="#ffab19" fill-rule="evenodd" stroke="#001026" stroke-width="1.2" stroke-linecap="round" stroke-linejoin="round"/><path d="M194.6813,199.38228l9.74443,-7.32132l3.18067,4.36008l-9.74443,7.32132z" fill="#9e3700" fill-rule="nonzero" stroke="#000000" stroke-width="2" stroke-linecap="butt" stroke-linejoin="miter"/><path d="M199.0899,194.1504l-1.12835,-1.81988c1.08692,-2.1204 1.31114,-4.62739 0.53667,-6.95961l17.46961,-10.49324l4.12685,6.65608z" fill="#d4d4d4" fill-rule="nonzero" stroke="#000000" stroke-width="2" stroke-linecap="butt" stroke-linejoin="miter"/><path d="M205.2871,194.97132l4.99524,-9.17629" fill="none" fill-rule="nonzero" stroke="#d4d4d4" stroke-width="1.5" stroke-linecap="round" stroke-linejoin="miter"/><path d="M203.32181,188.21138l1.9929,3.21428" fill="none" fill-rule="nonzero" stroke="#d4d4d4" stroke-width="1.5" stroke-linecap="round" stroke-linejoin="miter"/><path d="M201.86208,189.90186l-2.73183,-4.40606l6.40733,-3.84861l2.73183,4.40606z" fill="#d4d4d4" fill-rule="nonzero" stroke="#000000" stroke-width="1" stroke-linecap="butt" stroke-linejoin="miter"/><path d="M216.12132,182.2878l-2.39147,-3.85715l3.24387,-1.94845l2.39147,3.85715z" fill="#393939" fill-rule="nonzero" stroke="#000000" stroke-width="1" stroke-linecap="butt" stroke-linejoin="miter"/><path d="M200.23379,196.94031c-0.90066,-1.78122 0.42027,-4.45057 2.80453,-3.85819c2.19402,0.6276 4.0214,3.0324 5.11382,4.42037c1.09242,1.38797 4.86841,7.48698 0.77052,12.49879c-1.88864,2.05883 -8.07467,6.38372 -10.08619,2.58189c-2.01152,-3.80183 2.15704,-5.56699 4.44457,-7.06359c1.9485,-1.2351 -2.8171,-8.06531 -3.04726,-8.57927z" fill="#ffab19" fill-rule="evenodd" stroke="#001026" stroke-width="1.2" stroke-linecap="round" stroke-linejoin="round"/><path d="M232.34895,172.94092l-3.16161,-4.43806l0.71968,-0.51269l3.16161,4.43806z" fill="#b78e00" fill-rule="nonzero" stroke="none" stroke-width="0" stroke-linecap="butt" stroke-linejoin="miter"/><path d="M232.35056,171.67405l-1.96532,-2.7588l0.95958,-0.68359l1.96532,2.75879z" fill="#b78e00" fill-rule="nonzero" stroke="none" stroke-width="0" stroke-linecap="butt" stroke-linejoin="miter"/><path d="M233.36224,171.4958l-2.39255,-3.35853l5.99738,-4.27243l2.39255,3.35853z" fill="#b78e00" fill-rule="nonzero" stroke="none" stroke-width="0" stroke-linecap="butt" stroke-linejoin="miter"/><path d="M239.10328,166.86354l-1.87986,-2.63885l2.13622,-1.5218l1.87986,2.63885z" fill="#9a9a9a" fill-rule="nonzero" stroke="none" stroke-width="0" stroke-linecap="butt" stroke-linejoin="miter"/><path d="M219.398,177.18988v-0.65786h1.18415v0.65786z" fill="#000000" fill-rule="nonzero" stroke="#000000" stroke-width="4.5" stroke-linecap="butt" stroke-linejoin="miter"/><path d="M226.10817,178.36308c0,3.10643 -2.59189,5.6247 -5.78916,5.6247c-3.19727,0 -5.78916,-2.51827 -5.78916,-5.6247c0,-3.10643 2.59191,-5.62469 5.78916,-5.62469c3.19727,0 5.78916,2.51825 5.78916,5.62469z" fill="#ff0000" fill-rule="nonzero" stroke="#000000" stroke-width="4.5" stroke-linecap="butt" stroke-linejoin="miter"/><path d="M223.41095,179.54723c0,-1.87113 1.07505,-3.38797 2.40119,-3.38797c1.32614,0 2.40119,1.51686 2.40119,3.38797c0,1.87113 -1.07505,3.38797 -2.40119,3.38797c-1.32614,0 -2.40119,-1.51686 -2.40119,-3.38797z" fill="#ffb900" fill-rule="nonzero" stroke="#000000" stroke-width="4.5" stroke-linecap="butt" stroke-linejoin="miter"/><path d="M220.77951,174.18567c0,-1.45331 1.3254,-2.63144 2.96036,-2.63144c1.63496,0 2.96037,1.17815 2.96037,2.63144c0,1.45331 -1.32541,2.63144 -2.96037,2.63144c-1.63496,0 -2.96036,-1.17812 -2.96036,-2.63144z" fill="#ffb900" fill-rule="nonzero" stroke="#000000" stroke-width="4.5" stroke-linecap="butt" stroke-linejoin="miter"/><path d="M216.56921,172.70548c0,-1.43514 1.29594,-2.59854 2.89458,-2.59854c1.59864,0 2.89458,1.1634 2.89458,2.59854c0,1.43514 -1.29594,2.59856 -2.89458,2.59856c-1.59864,0 -2.89458,-1.16342 -2.89458,-2.59856z" fill="#ffb900" fill-rule="nonzero" stroke="#000000" stroke-width="4.5" stroke-linecap="butt" stroke-linejoin="miter"/><path d="M213.01678,174.5146c0,-1.56231 1.3843,-2.82879 3.09194,-2.82879c1.70764,0 3.09194,1.2665 3.09194,2.82879c0,1.56231 -1.3843,2.82879 -3.09194,2.82879c-1.70764,0 -3.09194,-1.2665 -3.09194,-2.82879z" fill="#ffb900" fill-rule="nonzero" stroke="#000000" stroke-width="4.5" stroke-linecap="butt" stroke-linejoin="miter"/><path d="M214.79299,176.42237c1.30798,0 2.3683,1.1045 2.3683,2.46698c0,1.36247 -1.06032,2.46698 -2.3683,2.46698c-1.30797,0 -2.3683,-1.1045 -2.3683,-2.46698c0,-1.36247 1.06031,-2.46698 2.3683,-2.46698z" fill="#ffb900" fill-rule="nonzero" stroke="#000000" stroke-width="4.5" stroke-linecap="butt" stroke-linejoin="miter"/><path d="M218.80593,183.49438c0,1.43514 -0.95723,2.59854 -2.13805,2.59854c-1.1808,0 -2.13805,-1.1634 -2.13805,-2.59854c0,-1.43514 0.95723,-2.59856 2.13805,-2.59856c1.1808,0 2.13805,1.16342 2.13805,2.59856z" fill="#ffb900" fill-rule="nonzero" stroke="#000000" stroke-width="4.5" stroke-linecap="butt" stroke-linejoin="miter"/><path d="M222.81887,184.18514c0,1.05364 -0.97196,1.9078 -2.17093,1.9078c-1.19899,0 -2.17093,-0.85413 -2.17093,-1.9078c0,-1.05364 0.97196,-1.9078 2.17093,-1.9078c1.19899,0 2.17093,0.85416 2.17093,1.9078z" fill="#ffb900" fill-rule="nonzero" stroke="#000000" stroke-width="4.5" stroke-linecap="butt" stroke-linejoin="miter"/><path d="M226.50288,183.85619c0,1.34431 -1.08977,2.43408 -2.43408,2.43408c-1.34431,0 -2.43408,-1.08978 -2.43408,-2.43408c0,-1.34431 1.08978,-2.43408 2.43408,-2.43408c1.34431,0 2.43408,1.08978 2.43408,2.43408z" fill="#ffb900" fill-rule="nonzero" stroke="#000000" stroke-width="4.5" stroke-linecap="butt" stroke-linejoin="miter"/><path d="M224.00302,175.96189c0,-0.90831 0.86886,-1.64466 1.94068,-1.64466c1.07182,0 1.94068,0.73633 1.94068,1.64466c0,0.90831 -0.86889,1.64466 -1.94068,1.64466c-1.07182,0 -1.94068,-0.73633 -1.94068,-1.64466z" fill="#ffb900" fill-rule="nonzero" stroke="#000000" stroke-width="4.5" stroke-linecap="butt" stroke-linejoin="miter"/><path d="M198.23988,176.54709c-0.23148,1.87677 0.31336,3.39513 -1.96283,4.41127c-0.19522,0.53225 -0.467,1.00092 -0.88263,1.18455c-1.22512,0.5413 -4.36957,-1.32098 -5.59572,-1.67877c-1.56103,-0.88981 -4.95383,-1.96242 -6.07719,-3.23925c-1.00807,-1.14578 -0.08022,-2.72337 0.64791,-3.75129c0.4024,-1.37568 1.6364,-2.40745 3.07435,-3.04476c1.50978,-1.03119 3.25627,-1.74052 5.07675,-2.08161c1.11968,-0.32103 1.73732,-0.06722 2.83462,0.24949c3.19167,0.9212 3.64772,3.02022 3.18577,5.40297c-0.056,0.87802 -0.20289,1.75207 -0.30099,2.54739zM184.80795,176.30558c0.12767,0.10042 0.26317,0.19777 0.40525,0.29245c-0.20389,-0.15736 -0.3914,-0.32592 -0.54044,-0.51687c0.01835,0.08982 0.06133,0.16633 0.13518,0.22442z" fill="#ffab19" fill-rule="nonzero" stroke="#000000" stroke-width="1.5" stroke-linecap="butt" stroke-linejoin="miter"/><path d="M178.11509,186.3397c-0.23148,1.87677 0.31337,3.39513 -1.96283,4.41127c-0.19522,0.53225 -0.46701,1.00092 -0.88263,1.18455c-1.22512,0.5413 -4.36957,-1.32098 -5.59574,-1.67877c-1.56103,-0.88981 -4.95381,-1.96242 -6.07718,-3.23924c-1.00807,-1.14578 -0.08022,-2.72337 0.64791,-3.75129c0.4024,-1.37568 1.6364,-2.40745 3.07435,-3.04476c1.50978,-1.03119 3.25626,-1.74052 5.07674,-2.08161c1.11968,-0.32103 1.73732,-0.06722 2.83462,0.24949c3.19165,0.9212 3.64772,3.02023 3.18577,5.40297c-0.056,0.87801 -0.20289,1.75207 -0.30099,2.54739zM164.68315,186.09817c0.12766,0.10042 0.26317,0.19778 0.40525,0.29245c-0.20389,-0.15736 -0.3914,-0.32592 -0.54044,-0.51687c0.01835,0.08982 0.06133,0.16633 0.13518,0.22442z" fill="#ffab19" fill-rule="nonzero" stroke="#000000" stroke-width="1.5" stroke-linecap="butt" stroke-linejoin="miter"/><g fill-rule="evenodd"><path d="M251.83286,164.64458c0.19475,0.14232 0.6086,0.46254 0.02435,1.67227c-0.58428,1.20972 -2.26402,1.4588 -2.45877,1.4588c-0.75466,0.03557 -1.67974,0.03557 -2.7022,-0.46255c-2.96999,-1.42321 -2.99433,-6.08422 -2.04491,-6.83141c0.92508,-0.74718 1.33893,2.13481 2.67787,3.87824c0.58428,0.78276 1.29025,1.06742 1.8745,1.24531c0.82771,0.21349 2.41007,-1.13858 2.62916,-0.96067z" fill="#ffab19" stroke="#001026" stroke-width="1.2" stroke-linecap="round" stroke-linejoin="round"/><path d="M245.79551,161.76257c0.3895,0.96067 1.14418,2.31272 1.14418,2.31272c0,0 -0.90073,-0.32023 -1.41195,0.28464c-0.41385,0.46254 -0.31648,1.24531 -0.26778,1.49438c-0.31648,-0.46254 -0.70598,-1.10298 -0.94941,-2.3483c-0.24343,-1.24531 0,-2.73969 0.48688,-2.95317c0.48688,-0.14232 0.6086,0.39138 0.99811,1.20974z" fill="#ffffff" stroke="none" stroke-width="1" stroke-linecap="butt" stroke-linejoin="miter"/></g><path d="M254.26726,169.94763c-0.39606,0.42698 -1.76023,1.9925 -3.49847,2.88201l-0.08802,0.03557c-0.08802,0.03557 -0.13202,0.21349 -0.08802,0.3558c0.37404,0.85393 1.05614,2.56178 -0.15403,3.16665c-1.16616,0.60487 -3.34444,-4.41196 -2.42032,-5.72845c0.41804,-0.49812 0.79211,-0.24907 0.99014,-0.10673c0.11001,0.07116 0.22002,0.07116 0.33004,0.03557c0.26403,-0.14232 0.74811,-0.42696 1.12214,-0.74718c0.94613,-0.78276 1.16616,-1.10298 1.60621,-1.6367c0.44006,-0.53369 1.4522,-1.85017 2.2663,-0.7116c0.7041,0.96067 0.30803,2.02807 -0.066,2.45503z" fill="#ffab19" fill-rule="evenodd" stroke="#001026" stroke-width="1.2" stroke-linecap="round" stroke-linejoin="round"/><path d="M257.03796,163.08116c0.09531,0.14232 1.25811,2.7041 1.63935,2.06366c0.45749,-0.74718 1.08655,-2.20597 1.7728,-1.03183c0.68624,1.17414 -0.60999,3.16665 -1.16281,3.70035c-1.31529,1.103 -2.38279,-0.99625 -2.61155,-1.56554c-0.22873,-0.56928 -0.62906,-1.52995 -0.62906,-2.45505c0.01907,-0.99625 0.66719,-1.24531 0.99123,-0.7116z" fill="#ffab19" fill-rule="evenodd" stroke="#001026" stroke-width="1.2" stroke-linecap="round" stroke-linejoin="round"/><g fill-rule="evenodd"><path d="M255.95107,169.76867c0.47894,0.67603 1.52806,2.06367 1.52806,2.06367c0,0 3.2614,-0.88951 3.2614,1.67227c0,1.52995 -1.6421,1.88576 -3.85439,1.56554c-0.13686,-0.03557 -0.27368,-0.10673 -0.3877,-0.24905c-0.50176,-0.67603 -1.9386,-2.66853 -2.85088,-4.05616c-1.34562,-2.06366 -2.46316,-3.41572 -2.46316,-3.41572c-1.9386,-2.95317 -0.36492,-4.19848 0.25087,-5.90634c0.57018,-1.45878 0.82106,-1.17415 2.18949,-0.74718c0.77543,0.17791 1.23158,0.28464 1.73332,0.24907c0.75263,-0.03557 0.6158,1.67227 0.41052,2.56177c0,0 -0.31931,1.31647 -0.6158,1.9925c-0.36491,0.81835 -0.6386,1.35206 -0.91229,1.67227z" fill="#ffab19" stroke="#001026" stroke-width="1.2" stroke-linecap="round" stroke-linejoin="round"/><path d="M254.03527,167.13572c0,0 -0.34211,-0.42698 -0.70702,-0.96067c-0.45615,-0.64045 -0.91229,-1.17414 -0.45615,-2.27714c0.41052,-0.85393 0.79825,-1.9925 1.82457,-0.96067c0.98071,0.96067 0.54736,1.85017 0.54736,1.85017c-0.50176,1.60112 -1.20877,2.3483 -1.20877,2.3483z" fill="#ffffff" stroke="none" stroke-width="1" stroke-linecap="butt" stroke-linejoin="miter"/></g><path d="M251.09463,165.28661c0.44045,0.99625 1.12114,2.24156 0.26025,3.27339c-1.18121,1.17414 -2.16221,-2.38389 -2.36242,-3.62919c-0.18018,-1.103 0.34036,-1.81461 0.78079,-2.41947c0.86087,-1.103 1.58161,-2.09923 2.38243,-1.56552c1.00101,0.64045 0.28029,2.06366 -0.22022,2.7041c-0.30031,0.39138 -0.60061,0.81834 -0.82083,1.0674c-0.06006,0.17791 -0.08009,0.39138 -0.02002,0.56928z" fill="#ffab19" fill-rule="evenodd" stroke="#001026" stroke-width="1.2" stroke-linecap="round" stroke-linejoin="round"/><g fill-rule="evenodd"><path d="M258.89407,140.23701c0.0768,-0.07116 0.20481,-0.03557 0.23042,0.10673l0.66562,3.8071c0,0 1.63844,1.67227 2.12487,2.84644c0.81923,1.95692 0.84482,3.55804 0.84482,3.55804c0,0 1.81765,0.74718 2.12485,2.77526c0.30721,2.02807 -0.81922,5.87076 -5.63216,7.18723c-4.81294,1.31647 -8.67867,-0.49812 -10.4963,-4.55428c-1.81766,-4.05616 1.04963,-8.89508 0.89601,-8.61043l-0.53762,-6.36887c-0.02561,-0.14232 0.10242,-0.24907 0.20482,-0.17791l3.09771,2.81085c0,0 1.15203,-0.60487 2.35528,-0.67604c0.71682,-0.07116 1.33123,0 1.92005,0.14232z" fill="#ffab19" stroke="#001026" stroke-width="1.2" stroke-linecap="butt" stroke-linejoin="miter"/><path d="M262.68298,150.69761c0,0 1.76646,0.64045 2.07367,2.66852c0.30721,2.02807 -0.92163,5.69285 -5.68338,6.97374c-6.19538,1.77903 -9.13947,-3.34455 -7.42421,-7.11605c1.71526,-3.8071 4.65933,-0.56928 6.8098,-0.78276c1.84325,-0.17791 2.04807,-2.41947 4.22413,-1.74345z" fill="#ffffff" stroke="none" stroke-width="1" stroke-linecap="butt" stroke-linejoin="miter"/><path d="M254.61875,154.50471c0,-0.14232 0.10242,-0.24905 0.20481,-0.21348c0.48643,0.24907 1.86885,0.81834 3.4049,0.96067c1.38244,0.10673 2.20166,0 2.58567,-0.10673c0.12801,-0.03557 0.23042,0.14232 0.1792,0.32023c-0.23042,0.96067 -1.20323,3.62919 -3.8913,3.41572c-2.32966,-0.3558 -2.56008,-2.63294 -2.48328,-4.37638z" fill="#ffffff" stroke="#001026" stroke-width="1.2" stroke-linecap="round" stroke-linejoin="round"/><path d="M267.39353,151.08901c-1.20324,1.35206 -3.0465,1.38763 -3.0465,1.38763" fill="none" stroke="#001026" stroke-width="1.2" stroke-linecap="round" stroke-linejoin="round"/><path d="M267.06071,155.07399c-1.61285,0.17791 -2.61128,-0.49812 -2.61128,-0.49812" fill="none" stroke="#001026" stroke-width="1.2" stroke-linecap="round" stroke-linejoin="round"/><path d="M258.35646,151.51596c0.53762,0 1.10084,0.07116 1.12644,0.32023c0.02561,0.49812 -0.35842,1.49438 -0.76803,1.52995c-0.46081,0.07116 -1.53604,-0.81835 -1.53604,-1.38763c-0.02561,-0.42698 0.66562,-0.46255 1.17763,-0.46255z" fill="#001026" stroke="#001026" stroke-width="1.2" stroke-linecap="round" stroke-linejoin="round"/><path d="M246.83611,150.98226c0,0 2.20167,0.99623 3.09771,2.09923" fill="none" stroke="#001026" stroke-width="1.2" stroke-linecap="round" stroke-linejoin="round"/><path d="M250.0106,154.32681c-1.10084,0.60487 -2.99529,0.21349 -2.99529,0.21349" fill="none" stroke="#001026" stroke-width="1.2" stroke-linecap="round" stroke-linejoin="round"/><g><path d="M261.37735,147.35306c0.74242,1.60112 0.76803,3.41572 0.0512,4.05616c-0.71682,0.64045 -1.89447,-0.10673 -2.66248,-1.70787c-0.74242,-1.60112 -0.76801,-3.41572 -0.0512,-4.05615c0.71682,-0.67603 1.92005,0.10673 2.66247,1.70786z" fill="#ffffff" stroke="#001026" stroke-width="1.2" stroke-linecap="round" stroke-linejoin="round"/><path d="M261.27494,149.38114c0,0.39138 -0.20481,0.7116 -0.46081,0.7116c-0.256,0 -0.46081,-0.32023 -0.46081,-0.7116c0,-0.39138 0.20481,-0.7116 0.46081,-0.7116c0.256,0 0.46081,0.32023 0.46081,0.7116" fill="#001026" stroke="none" stroke-width="1" stroke-linecap="butt" stroke-linejoin="miter"/></g><g><path d="M255.02836,148.34931c0.76801,1.56554 0.71682,3.48686 0.0256,4.16289c-0.84482,0.67603 -1.97127,0.17791 -2.73929,-1.38763c-0.79362,-1.56554 -0.84482,-3.59361 -0.0512,-4.37638c0.79362,-0.81835 1.99686,0.03557 2.76489,1.60112z" fill="#ffffff" stroke="#001026" stroke-width="1.2" stroke-linecap="round" stroke-linejoin="round"/><path d="M254.87475,150.41297c0,0.39138 -0.20481,0.7116 -0.46081,0.7116c-0.256,0 -0.46081,-0.32023 -0.46081,-0.7116c0,-0.39138 0.20481,-0.7116 0.46081,-0.7116c0.256,0.03557 0.46081,0.32023 0.46081,0.7116" fill="#001026" stroke="none" stroke-width="1" stroke-linecap="butt" stroke-linejoin="miter"/></g></g><path d="M365.83488,186.16412l-155.99783,9.61632" fill="none" fill-rule="nonzero" stroke="#000000" stroke-width="0.5" stroke-linecap="round" stroke-linejoin="miter"/><path d="M158.5501,202.19129l-51.8212,4.80815" fill="none" fill-rule="nonzero" stroke="#000000" stroke-width="0.5" stroke-linecap="round" stroke-linejoin="miter"/><text transform="translate(145.00875,151.25249) scale(0.50191,0.50191)" font-size="40" xml:space="preserve" fill="#ffffff" fill-rule="nonzero" stroke="none" stroke-width="1" stroke-linecap="butt" stroke-linejoin="miter" stroke-miterlimit="10" stroke-dasharray="" stroke-dashoffset="0" font-family="Pixel" font-weight="normal" text-anchor="start" style="mix-blend-mode: normal"><tspan x="0" dy="0">Attack Invasion</tspan></text></g></g></svg>