<svg version="1.1" xmlns="http://www.w3.org/2000/svg" xmlns:xlink="http://www.w3.org/1999/xlink" width="329.94604" height="99.12753" viewBox="0,0,329.94604,99.12753"><g transform="translate(-242.62607,-137.29844)"><g data-paper-data="{&quot;isPaintingLayer&quot;:true}" fill="#9a9a9a" fill-rule="nonzero" stroke="#000000" stroke-width="1" stroke-linecap="butt" stroke-linejoin="miter" stroke-miterlimit="10" stroke-dasharray="" stroke-dashoffset="0" style="mix-blend-mode: normal"><path d="M518.14992,190.11526c0,1.38071 -1.567,2.5 -3.5,2.5c-1.933,0 -3.5,-1.11929 -3.5,-2.5c0,-1.38071 1.567,-2.5 3.5,-2.5c1.933,0 3.5,1.11929 3.5,2.5z"/><path d="M520.14992,162.11526c0,1.38071 -1.567,2.5 -3.5,2.5c-1.933,0 -3.5,-1.11929 -3.5,-2.5c0,-1.38071 1.567,-2.5 3.5,-2.5c1.933,0 3.5,1.11929 3.5,2.5z"/><path d="M518.6304,189.09424c0,1.38071 -1.567,2.5 -3.5,2.5c-1.933,0 -3.5,-1.11929 -3.5,-2.5c0,-1.38071 1.567,-2.5 3.5,-2.5c1.933,0 3.5,1.11929 3.5,2.5z"/><path d="M520.6304,161.09424c0,1.38071 -1.567,2.5 -3.5,2.5c-1.933,0 -3.5,-1.11929 -3.5,-2.5c0,-1.38071 1.567,-2.5 3.5,-2.5c1.933,0 3.5,1.11929 3.5,2.5z"/><path d="M519.48978,177.53173c0,1.38071 -1.567,2.5 -3.5,2.5c-1.933,0 -3.5,-1.11929 -3.5,-2.5c0,-1.38071 1.567,-2.5 3.5,-2.5c1.933,0 3.5,1.11929 3.5,2.5z"/><path d="M516.93898,230.3106c0,1.38071 -1.567,2.5 -3.5,2.5c-1.933,0 -3.5,-1.11929 -3.5,-2.5c0,-1.38071 1.567,-2.5 3.5,-2.5c1.933,0 3.5,1.11929 3.5,2.5z"/><path d="M518.93898,202.3106c0,1.38071 -1.567,2.5 -3.5,2.5c-1.933,0 -3.5,-1.11929 -3.5,-2.5c0,-1.38071 1.567,-2.5 3.5,-2.5c1.933,0 3.5,1.11929 3.5,2.5z"/><path d="M517.41946,229.28958c0,1.38071 -1.567,2.5 -3.5,2.5c-1.933,0 -3.5,-1.11929 -3.5,-2.5c0,-1.38071 1.567,-2.5 3.5,-2.5c1.933,0 3.5,1.11929 3.5,2.5z"/><path d="M519.41946,201.28958c0,1.38071 -1.567,2.5 -3.5,2.5c-1.933,0 -3.5,-1.11929 -3.5,-2.5c0,-1.38071 1.567,-2.5 3.5,-2.5c1.933,0 3.5,1.11929 3.5,2.5z"/><path d="M518.27883,217.72707c0,1.38071 -1.567,2.5 -3.5,2.5c-1.933,0 -3.5,-1.11929 -3.5,-2.5c0,-1.38071 1.567,-2.5 3.5,-2.5c1.933,0 3.5,1.11929 3.5,2.5z"/><path d="M519.86867,153.87826c0,1.38071 -1.567,2.5 -3.5,2.5c-1.933,0 -3.5,-1.11929 -3.5,-2.5c0,-1.38071 1.567,-2.5 3.5,-2.5c1.933,0 3.5,1.11929 3.5,2.5z"/><path d="M520.34915,152.85724c0,1.38071 -1.567,2.5 -3.5,2.5c-1.933,0 -3.5,-1.11929 -3.5,-2.5c0,-1.38071 1.567,-2.5 3.5,-2.5c1.933,0 3.5,1.11929 3.5,2.5z"/><path d="M521.20852,141.29473c0,1.38071 -1.567,2.5 -3.5,2.5c-1.933,0 -3.5,-1.11929 -3.5,-2.5c0,-1.38071 1.567,-2.5 3.5,-2.5c1.933,0 3.5,1.11929 3.5,2.5z"/><path d="M476.51213,189.11897c0,1.38071 -1.567,2.5 -3.5,2.5c-1.933,0 -3.5,-1.11929 -3.5,-2.5c0,-1.38071 1.567,-2.5 3.5,-2.5c1.933,0 3.5,1.11929 3.5,2.5z"/><path d="M478.51213,161.11897c0,1.38071 -1.567,2.5 -3.5,2.5c-1.933,0 -3.5,-1.11929 -3.5,-2.5c0,-1.38071 1.567,-2.5 3.5,-2.5c1.933,0 3.5,1.11929 3.5,2.5z"/><path d="M476.99261,188.09795c0,1.38071 -1.567,2.5 -3.5,2.5c-1.933,0 -3.5,-1.11929 -3.5,-2.5c0,-1.38071 1.567,-2.5 3.5,-2.5c1.933,0 3.5,1.11929 3.5,2.5z"/><path d="M478.99261,160.09795c0,1.38071 -1.567,2.5 -3.5,2.5c-1.933,0 -3.5,-1.11929 -3.5,-2.5c0,-1.38071 1.567,-2.5 3.5,-2.5c1.933,0 3.5,1.11929 3.5,2.5z"/><path d="M477.85199,176.53544c0,1.38071 -1.567,2.5 -3.5,2.5c-1.933,0 -3.5,-1.11929 -3.5,-2.5c0,-1.38071 1.567,-2.5 3.5,-2.5c1.933,0 3.5,1.11929 3.5,2.5z"/><path d="M475.30119,229.31431c0,1.38071 -1.567,2.5 -3.5,2.5c-1.933,0 -3.5,-1.11929 -3.5,-2.5c0,-1.38071 1.567,-2.5 3.5,-2.5c1.933,0 3.5,1.11929 3.5,2.5z"/><path d="M477.30119,201.31431c0,1.38071 -1.567,2.5 -3.5,2.5c-1.933,0 -3.5,-1.11929 -3.5,-2.5c0,-1.38071 1.567,-2.5 3.5,-2.5c1.933,0 3.5,1.11929 3.5,2.5z"/><path d="M475.78167,228.29329c0,1.38071 -1.567,2.5 -3.5,2.5c-1.933,0 -3.5,-1.11929 -3.5,-2.5c0,-1.38071 1.567,-2.5 3.5,-2.5c1.933,0 3.5,1.11929 3.5,2.5z"/><path d="M477.78167,200.29329c0,1.38071 -1.567,2.5 -3.5,2.5c-1.933,0 -3.5,-1.11929 -3.5,-2.5c0,-1.38071 1.567,-2.5 3.5,-2.5c1.933,0 3.5,1.11929 3.5,2.5z"/><path d="M476.64104,216.73078c0,1.38071 -1.567,2.5 -3.5,2.5c-1.933,0 -3.5,-1.11929 -3.5,-2.5c0,-1.38071 1.567,-2.5 3.5,-2.5c1.933,0 3.5,1.11929 3.5,2.5z"/><path d="M478.23088,152.88197c0,1.38071 -1.567,2.5 -3.5,2.5c-1.933,0 -3.5,-1.11929 -3.5,-2.5c0,-1.38071 1.567,-2.5 3.5,-2.5c1.933,0 3.5,1.11929 3.5,2.5z"/><path d="M478.71136,151.86095c0,1.38071 -1.567,2.5 -3.5,2.5c-1.933,0 -3.5,-1.11929 -3.5,-2.5c0,-1.38071 1.567,-2.5 3.5,-2.5c1.933,0 3.5,1.11929 3.5,2.5z"/><path d="M479.57073,140.29844c0,1.38071 -1.567,2.5 -3.5,2.5c-1.933,0 -3.5,-1.11929 -3.5,-2.5c0,-1.38071 1.567,-2.5 3.5,-2.5c1.933,0 3.5,1.11929 3.5,2.5z"/><path d="M569.01351,193.23063c0,1.38071 -1.567,2.5 -3.5,2.5c-1.933,0 -3.5,-1.11929 -3.5,-2.5c0,-1.38071 1.567,-2.5 3.5,-2.5c1.933,0 3.5,1.11929 3.5,2.5z"/><path d="M571.01351,165.23063c0,1.38071 -1.567,2.5 -3.5,2.5c-1.933,0 -3.5,-1.11929 -3.5,-2.5c0,-1.38071 1.567,-2.5 3.5,-2.5c1.933,0 3.5,1.11929 3.5,2.5z"/><path d="M569.49399,192.20961c0,1.38071 -1.567,2.5 -3.5,2.5c-1.933,0 -3.5,-1.11929 -3.5,-2.5c0,-1.38071 1.567,-2.5 3.5,-2.5c1.933,0 3.5,1.11929 3.5,2.5z"/><path d="M571.49399,164.20961c0,1.38071 -1.567,2.5 -3.5,2.5c-1.933,0 -3.5,-1.11929 -3.5,-2.5c0,-1.38071 1.567,-2.5 3.5,-2.5c1.933,0 3.5,1.11929 3.5,2.5z"/><path d="M570.35337,180.6471c0,1.38071 -1.567,2.5 -3.5,2.5c-1.933,0 -3.5,-1.11929 -3.5,-2.5c0,-1.38071 1.567,-2.5 3.5,-2.5c1.933,0 3.5,1.11929 3.5,2.5z"/><path d="M567.80257,233.42597c0,1.38071 -1.567,2.5 -3.5,2.5c-1.933,0 -3.5,-1.11929 -3.5,-2.5c0,-1.38071 1.567,-2.5 3.5,-2.5c1.933,0 3.5,1.11929 3.5,2.5z"/><path d="M569.80257,205.42597c0,1.38071 -1.567,2.5 -3.5,2.5c-1.933,0 -3.5,-1.11929 -3.5,-2.5c0,-1.38071 1.567,-2.5 3.5,-2.5c1.933,0 3.5,1.11929 3.5,2.5z"/><path d="M568.28305,232.40495c0,1.38071 -1.567,2.5 -3.5,2.5c-1.933,0 -3.5,-1.11929 -3.5,-2.5c0,-1.38071 1.567,-2.5 3.5,-2.5c1.933,0 3.5,1.11929 3.5,2.5z"/><path d="M570.28305,204.40495c0,1.38071 -1.567,2.5 -3.5,2.5c-1.933,0 -3.5,-1.11929 -3.5,-2.5c0,-1.38071 1.567,-2.5 3.5,-2.5c1.933,0 3.5,1.11929 3.5,2.5z"/><path d="M569.14242,220.84244c0,1.38071 -1.567,2.5 -3.5,2.5c-1.933,0 -3.5,-1.11929 -3.5,-2.5c0,-1.38071 1.567,-2.5 3.5,-2.5c1.933,0 3.5,1.11929 3.5,2.5z"/><path d="M570.73226,156.99363c0,1.38071 -1.567,2.5 -3.5,2.5c-1.933,0 -3.5,-1.11929 -3.5,-2.5c0,-1.38071 1.567,-2.5 3.5,-2.5c1.933,0 3.5,1.11929 3.5,2.5z"/><path d="M571.21274,155.97261c0,1.38071 -1.567,2.5 -3.5,2.5c-1.933,0 -3.5,-1.11929 -3.5,-2.5c0,-1.38071 1.567,-2.5 3.5,-2.5c1.933,0 3.5,1.11929 3.5,2.5z"/><path d="M572.07211,144.4101c0,1.38071 -1.567,2.5 -3.5,2.5c-1.933,0 -3.5,-1.11929 -3.5,-2.5c0,-1.38071 1.567,-2.5 3.5,-2.5c1.933,0 3.5,1.11929 3.5,2.5z"/><path d="M292.9748,188.31991c0,1.38071 -1.567,2.5 -3.5,2.5c-1.933,0 -3.5,-1.11929 -3.5,-2.5c0,-1.38071 1.567,-2.5 3.5,-2.5c1.933,0 3.5,1.11929 3.5,2.5z"/><path d="M293.45528,187.29889c0,1.38071 -1.567,2.5 -3.5,2.5c-1.933,0 -3.5,-1.11929 -3.5,-2.5c0,-1.38071 1.567,-2.5 3.5,-2.5c1.933,0 3.5,1.11929 3.5,2.5z"/><path d="M294.31466,175.73638c0,1.38071 -1.567,2.5 -3.5,2.5c-1.933,0 -3.5,-1.11929 -3.5,-2.5c0,-1.38071 1.567,-2.5 3.5,-2.5c1.933,0 3.5,1.11929 3.5,2.5z"/><path d="M293.76386,200.51525c0,1.38071 -1.567,2.5 -3.5,2.5c-1.933,0 -3.5,-1.11929 -3.5,-2.5c0,-1.38071 1.567,-2.5 3.5,-2.5c1.933,0 3.5,1.11929 3.5,2.5z"/><path d="M294.24434,199.49423c0,1.38071 -1.567,2.5 -3.5,2.5c-1.933,0 -3.5,-1.11929 -3.5,-2.5c0,-1.38071 1.567,-2.5 3.5,-2.5c1.933,0 3.5,1.11929 3.5,2.5z"/><path d="M251.33701,187.32362c0,1.38071 -1.567,2.5 -3.5,2.5c-1.933,0 -3.5,-1.11929 -3.5,-2.5c0,-1.38071 1.567,-2.5 3.5,-2.5c1.933,0 3.5,1.11929 3.5,2.5z"/><path d="M251.81749,186.3026c0,1.38071 -1.567,2.5 -3.5,2.5c-1.933,0 -3.5,-1.11929 -3.5,-2.5c0,-1.38071 1.567,-2.5 3.5,-2.5c1.933,0 3.5,1.11929 3.5,2.5z"/><path d="M252.67687,174.74009c0,1.38071 -1.567,2.5 -3.5,2.5c-1.933,0 -3.5,-1.11929 -3.5,-2.5c0,-1.38071 1.567,-2.5 3.5,-2.5c1.933,0 3.5,1.11929 3.5,2.5z"/><path d="M250.12607,201.52042c0,1.38071 -1.567,2.5 -3.5,2.5c-1.933,0 -3.5,-1.11929 -3.5,-2.5c0,-1.38071 1.567,-2.5 3.5,-2.5c1.933,0 3.5,1.11929 3.5,2.5z"/><path d="M252.12607,173.52042c0,1.38071 -1.567,2.5 -3.5,2.5c-1.933,0 -3.5,-1.11929 -3.5,-2.5c0,-1.38071 1.567,-2.5 3.5,-2.5c1.933,0 3.5,1.11929 3.5,2.5z"/><path d="M250.60655,200.4994c0,1.38071 -1.567,2.5 -3.5,2.5c-1.933,0 -3.5,-1.11929 -3.5,-2.5c0,-1.38071 1.567,-2.5 3.5,-2.5c1.933,0 3.5,1.11929 3.5,2.5z"/><path d="M252.60655,172.4994c0,1.38071 -1.567,2.5 -3.5,2.5c-1.933,0 -3.5,-1.11929 -3.5,-2.5c0,-1.38071 1.567,-2.5 3.5,-2.5c1.933,0 3.5,1.11929 3.5,2.5z"/><path d="M251.46592,188.93689c0,1.38071 -1.567,2.5 -3.5,2.5c-1.933,0 -3.5,-1.11929 -3.5,-2.5c0,-1.38071 1.567,-2.5 3.5,-2.5c1.933,0 3.5,1.11929 3.5,2.5z"/><path d="M343.83839,191.43528c0,1.38071 -1.567,2.5 -3.5,2.5c-1.933,0 -3.5,-1.11929 -3.5,-2.5c0,-1.38071 1.567,-2.5 3.5,-2.5c1.933,0 3.5,1.11929 3.5,2.5z"/><path d="M345.83839,163.43528c0,1.38071 -1.567,2.5 -3.5,2.5c-1.933,0 -3.5,-1.11929 -3.5,-2.5c0,-1.38071 1.567,-2.5 3.5,-2.5c1.933,0 3.5,1.11929 3.5,2.5z"/><path d="M344.31887,190.41426c0,1.38071 -1.567,2.5 -3.5,2.5c-1.933,0 -3.5,-1.11929 -3.5,-2.5c0,-1.38071 1.567,-2.5 3.5,-2.5c1.933,0 3.5,1.11929 3.5,2.5z"/><path d="M346.31887,162.41426c0,1.38071 -1.567,2.5 -3.5,2.5c-1.933,0 -3.5,-1.11929 -3.5,-2.5c0,-1.38071 1.567,-2.5 3.5,-2.5c1.933,0 3.5,1.11929 3.5,2.5z"/><path d="M345.17825,178.85175c0,1.38071 -1.567,2.5 -3.5,2.5c-1.933,0 -3.5,-1.11929 -3.5,-2.5c0,-1.38071 1.567,-2.5 3.5,-2.5c1.933,0 3.5,1.11929 3.5,2.5z"/><path d="M344.62745,203.63062c0,1.38071 -1.567,2.5 -3.5,2.5c-1.933,0 -3.5,-1.11929 -3.5,-2.5c0,-1.38071 1.567,-2.5 3.5,-2.5c1.933,0 3.5,1.11929 3.5,2.5z"/><path d="M345.10793,202.6096c0,1.38071 -1.567,2.5 -3.5,2.5c-1.933,0 -3.5,-1.11929 -3.5,-2.5c0,-1.38071 1.567,-2.5 3.5,-2.5c1.933,0 3.5,1.11929 3.5,2.5z"/><path d="M343.9673,219.04709c0,1.38071 -1.567,2.5 -3.5,2.5c-1.933,0 -3.5,-1.11929 -3.5,-2.5c0,-1.38071 1.567,-2.5 3.5,-2.5c1.933,0 3.5,1.11929 3.5,2.5z"/></g></g></svg>