<svg version="1.1" xmlns="http://www.w3.org/2000/svg" xmlns:xlink="http://www.w3.org/1999/xlink" width="53.0934" height="25.39063" viewBox="0,0,53.0934,25.39063"><g transform="translate(-236.8283,-176.80469)"><g data-paper-data="{&quot;isPaintingLayer&quot;:true}" fill-rule="nonzero" stroke-linejoin="miter" stroke-miterlimit="10" stroke-dasharray="" stroke-dashoffset="0" style="mix-blend-mode: normal"><path d="M260.2502,201.19533v-13.26923h6.15954v13.26923z" fill="#9e3700" stroke="#000000" stroke-width="2" stroke-linecap="butt"/><path d="M262.26095,186.35767v-2.33119c2.2211,-1.36975 3.86602,-3.58396 4.48709,-6.19495h22.17366v8.52614z" fill="#d4d4d4" stroke="#000000" stroke-width="2" stroke-linecap="butt"/><path d="M277.40331,184.8339l-9.88166,5.7643" fill="none" stroke="#d4d4d4" stroke-width="1.5" stroke-linecap="round"/><path d="M269.58033,187.30429v-4.11736" fill="none" stroke="#d4d4d4" stroke-width="1.5" stroke-linecap="round"/><path d="M267.26095,183.94641v-5.64399h8.13263v5.64399z" fill="#d4d4d4" stroke="#000000" stroke-width="1" stroke-linecap="butt"/><path d="M284.81456,184.8339v-4.94083h4.11736v4.94083z" fill="#393939" stroke="#000000" stroke-width="1" stroke-linecap="butt"/><path d="M237.8283,186.33084v-8.52614h22.17366c0.62107,2.61099 2.26599,4.8252 4.48709,6.19495v2.33119z" data-paper-data="{&quot;index&quot;:null}" fill="#d4d4d4" stroke="#000000" stroke-width="2" stroke-linecap="butt"/><path d="M259.22835,190.57137l-9.88166,-5.7643" data-paper-data="{&quot;index&quot;:null}" fill="none" stroke="#d4d4d4" stroke-width="1.5" stroke-linecap="round"/><path d="M257.16967,187.27748v-4.11736" data-paper-data="{&quot;index&quot;:null}" fill="none" stroke="#d4d4d4" stroke-width="1.5" stroke-linecap="round"/><path d="M251.35642,183.91957v-5.64399h8.13263v5.64399z" data-paper-data="{&quot;index&quot;:null}" fill="#d4d4d4" stroke="#000000" stroke-width="1" stroke-linecap="butt"/><path d="M237.81808,184.80707v-4.94083h4.11736v4.94083z" data-paper-data="{&quot;index&quot;:null}" fill="#393939" stroke="#000000" stroke-width="1" stroke-linecap="butt"/></g></g></svg>