<svg version="1.1" xmlns="http://www.w3.org/2000/svg" xmlns:xlink="http://www.w3.org/1999/xlink" width="44.39647" height="31.08616" viewBox="0,0,44.39647,31.08616"><g transform="translate(-217.99665,-164.25692)"><g data-paper-data="{&quot;isPaintingLayer&quot;:true}" stroke-miterlimit="10" stroke-dasharray="" stroke-dashoffset="0" style="mix-blend-mode: normal"><path d="M232.53154,183.71482c1.74727,-3.10275 3.68306,-7.58189 8.00571,-4.71578c5.30352,4.19198 -2.06634,12.54034 -4.91892,14.80149c-2.52111,2.01593 -5.36263,0.3771 -7.7741,-1.00667c-4.50749,-2.78972 -8.47034,-5.04712 -8.61207,-9.31677c-0.24648,-5.30841 4.82536,-3.50941 7.44384,-1.88659c1.58957,0.96605 3.27156,1.8939 4.33868,2.64309c0.57668,0.08625 1.16938,-0.05053 1.51686,-0.51878z" fill="#ffab19" fill-rule="evenodd" stroke="#001026" stroke-width="1.2" stroke-linecap="round" stroke-linejoin="round"/><path d="M234.73237,186.60998v-13.26923h5.87229v13.26923z" fill="#9e3700" fill-rule="nonzero" stroke="#000000" stroke-width="2" stroke-linecap="butt" stroke-linejoin="miter"/><path d="M234.73237,173.78306v-2.33119c2.2211,-1.36975 3.86602,-3.58396 4.48709,-6.19495h22.17366v8.52614z" fill="#d4d4d4" fill-rule="nonzero" stroke="#000000" stroke-width="2" stroke-linecap="butt" stroke-linejoin="miter"/><path d="M239.99307,178.02359l9.88166,-5.7643" fill="none" fill-rule="nonzero" stroke="#d4d4d4" stroke-width="1.5" stroke-linecap="round" stroke-linejoin="miter"/><path d="M242.05176,174.7297v-4.11736" fill="none" fill-rule="nonzero" stroke="#d4d4d4" stroke-width="1.5" stroke-linecap="round" stroke-linejoin="miter"/><path d="M239.73238,171.37181v-5.64399h8.13263v5.64399z" fill="#d4d4d4" fill-rule="nonzero" stroke="#000000" stroke-width="1" stroke-linecap="butt" stroke-linejoin="miter"/><path d="M257.28599,172.25929v-4.94083h4.11736v4.94083z" fill="#393939" fill-rule="nonzero" stroke="#000000" stroke-width="1" stroke-linecap="butt" stroke-linejoin="miter"/><path d="M223.79665,179.48922c0.5,0.4 6.6,7.6 8.6,5.8c2.4,-2.1 5.7,-6.2 9.3,-2.9c3.6,3.3 -3.2,8.9 -6.1,10.4c-6.9,3.1 -12.5,-2.8 -13.7,-4.4c-1.2,-1.6 -3.3,-4.3 -3.3,-6.9c0.1,-2.8 3.5,-3.5 5.2,-2z" fill="#ffab19" fill-rule="evenodd" stroke="#001026" stroke-width="1.2" stroke-linecap="round" stroke-linejoin="round"/></g></g></svg>