<svg version="1.1" xmlns="http://www.w3.org/2000/svg" xmlns:xlink="http://www.w3.org/1999/xlink" width="324.50596" height="242.54655" viewBox="0,0,324.50596,242.54655"><g transform="translate(-77.74702,-58.72673)"><g data-paper-data="{&quot;isPaintingLayer&quot;:true}" fill-rule="nonzero" stroke-linecap="butt" stroke-linejoin="miter" stroke-miterlimit="10" stroke-dasharray="" stroke-dashoffset="0" style="mix-blend-mode: normal"><path d="M77.74702,301.27329v-242.54655h324.50596v242.54655z" fill="#000000" stroke="none" stroke-width="NaN"/><path d="M203.71734,181.84345c-0.31064,3.35054 -1.31803,5.8934 -3.07096,7.74397c-1.02069,1.07838 -2.53398,1.93044 -5.05465,2.83576c-0.04882,0.01775 -0.10207,0.0355 -0.15532,0.05325c-1.20708,0.38609 -2.52511,0.58579 -3.91414,0.58579c-2.11683,0 -4.08278,-0.41716 -5.84458,-1.23815c-2.60499,-1.21596 -3.90083,-2.91564 -4.54431,-4.34904c-0.09319,-0.15532 -0.19082,-0.31508 -0.28402,-0.48816c-0.26627,-0.48372 -0.45266,-1.00738 -0.54141,-1.55323c-0.1287,-0.7633 -0.33283,-1.91269 -0.61242,-3.43929c-0.05325,-0.29289 -0.07988,-0.58579 -0.07988,-0.88312v-3.86089c0,-0.47929 0.03994,-1.18045 0.32839,-3.07984c0.27958,-1.85944 0.3994,-2.43635 0.62129,-3.00439c0.58135,-1.54879 2.32097,-6.10198 6.53688,-7.00285c1.3846,-0.29289 2.94227,-0.33283 4.41561,-0.17307c1.04288,-1.67305 2.90676,-2.67155 5.02359,-2.67155c3.6745,0 5.70701,2.42304 6.08867,4.81945c0.03994,0.25295 0.05769,0.51035 0.05769,0.76774v6.16411c0,0.00444 0,0.00888 0,0.00888c0,0.00444 0,0.00444 0,0.00888c0,0 0,0 0,0.00444c0,0.40384 -0.05325,0.78993 -0.14201,1.16714c0.8565,0.97188 1.33134,2.17009 1.35353,3.45261c0.02663,1.28697 -0.0355,2.68043 -0.18195,4.13159z" fill="#ffab19" stroke="#007272" stroke-width="0.5"/><path d="M199.01726,177.79528c0.0253,1.09303 -0.02618,2.27748 -0.15621,3.55202c-0.20902,2.23843 -0.79392,3.86444 -1.75693,4.87937c-0.44289,0.46863 -1.49643,1.00206 -3.16149,1.60027c-0.72913,0.23432 -1.53592,0.35148 -2.42037,0.35148c-1.40501,0 -2.66756,-0.26006 -3.78633,-0.78105c-1.2235,-0.57204 -1.97793,-1.31359 -2.26417,-2.22511c-0.10385,-0.13002 -0.22145,-0.31198 -0.35103,-0.5463c-0.13092,-0.78061 -0.33861,-1.9513 -0.62485,-3.51296v-3.86444c0,-0.36435 0.09098,-1.14495 0.27337,-2.34227c0.18151,-1.19643 0.29911,-1.85988 0.35148,-1.99035c0.91063,-2.42037 1.91269,-3.74728 3.00528,-3.98204c0.49393,-0.1034 1.04067,-0.15621 1.63932,-0.15621c1.92556,0 3.66962,0.46863 5.23084,1.40545c0.1034,0.05237 0.23387,0.07811 0.39008,0.07811c0.02618,-0.07811 0.05192,-0.40295 0.07855,-0.97587c0.02574,0 0.02574,-0.45487 0,-1.36595c-0.02663,-0.62485 0.03506,-1.06685 0.18461,-1.32735c0.14867,-0.25961 0.44733,-0.39052 0.89378,-0.39052c0.76774,0 1.18933,0.23432 1.26388,0.70295c0,0.02618 0,0.98919 0,2.88856c0,1.43163 0,2.3294 0,2.6933c0,0.44289 0,0.63816 0,0.58535c-0.10473,0.39052 -0.28668,0.6244 -0.54674,0.7025c-0.70206,0.23432 -1.184,0.24807 -1.44406,0.03905c-0.13047,0 -0.27293,-0.03905 -0.42958,-0.11716c-0.13047,-0.3639 -0.41626,-0.84495 -0.85872,-1.44406c-0.59911,-0.49393 -1.37972,-0.9235 -2.34183,-1.28829c-0.96344,-0.3639 -1.78311,-0.5463 -2.45943,-0.5463c-0.85916,0 -1.54835,0.66345 -2.06891,1.9908c-0.72913,1.82172 -1.05398,4.17641 -0.97587,7.06543c0.05192,1.27542 0.09098,2.08222 0.1176,2.41993c0.12958,1.06729 0.41626,1.97793 0.85872,2.73235c0.31242,0.521 0.79348,0.95057 1.4445,1.28829c0.65014,0.33861 1.28785,0.52055 1.91269,0.5463c3.09714,0.13047 4.9051,-1.23593 5.42655,-4.09876c0.28624,-1.53504 0.31198,-2.82333 0.07811,-3.86444c-0.05281,-0.20813 -0.02707,-0.48816 0.07811,-0.83963c0.10295,-0.35103 0.55917,-0.56582 1.36595,-0.64393c0.18195,0 0.40295,0.08476 0.66389,0.25385c0.25828,0.17041 0.38919,0.3457 0.38919,0.52766z" fill="#000000" stroke="#007272" stroke-width="0.5"/><path d="M183.06824,188.58092c-1.43341,3.97183 -5.3298,6.386 -11.57822,7.17593c-0.28402,0.0355 -0.5636,0.05769 -0.84318,0.06657c-0.3639,0.53254 -0.83874,0.99407 -1.39791,1.35353c-1.46448,0.93638 -2.83576,1.39347 -4.18928,1.39347c-2.7825,0 -5.77802,-2.07689 -5.77802,-6.63895c0,-0.31064 0.01331,-0.71449 0.04438,-1.27365c0.01331,-0.23964 0.02663,-0.42603 0.03106,-0.5636c-0.07544,-0.34615 -0.11538,-0.69674 -0.11538,-1.05176v-2.1479c0,-0.35058 0.0355,-0.70117 0.10651,-1.05176c0.00444,-0.29733 0.01775,-0.63017 0.03994,-0.99407c-0.10651,-0.39052 -0.18639,-0.84318 -0.18639,-1.34909c0,-0.23076 0.01775,-0.46153 0.04882,-0.68786c0.16863,-1.18933 0.69674,-2.3831 1.58873,-3.33723c-0.30621,-0.8565 -0.46597,-1.76181 -0.46597,-2.68931v-2.26328c0,-0.91862 0.18195,-2.06358 1.07395,-4.91265c0.37277,-1.22484 0.4926,-1.60648 0.6568,-1.96151c0.87425,-1.96151 2.19228,-2.94227 3.15084,-3.42598c1.56654,-0.78105 3.24847,-1.18045 4.99696,-1.18045c0.80768,0 1.57986,0.08432 2.31653,0.24408c0.32839,-0.22189 0.67898,-0.40828 1.05176,-0.5636c0.47485,-0.20414 0.98075,-0.34615 1.53992,-0.43491c1.39791,-0.23964 2.8757,0.05769 4.16266,0.83874c1.35353,0.82543 2.90676,2.53842 2.71593,6.06204c-0.03106,0.62129 -0.08432,1.45116 -0.1642,2.53398c-0.00444,0.02663 -0.00444,0.05325 -0.00888,0.07988c-0.071,0.78549 -0.17307,1.95707 -0.31064,3.50586c0.0355,0.59911 0.02219,1.26921 -0.03106,2.05914c-0.02219,0.30177 -0.071,0.60354 -0.15088,0.89644c-0.01775,0.06657 -0.0355,0.1287 -0.05325,0.18639c0.59911,0.76774 1.00738,1.53548 1.28697,2.20115c0.26183,0.5281 0.48372,1.13607 0.67898,1.87719c0.07544,0.27958 0.12426,0.5636 0.14645,0.85206c0.1997,2.48961 0.09763,3.95852 -0.3639,5.2011z" fill="#ffab19" stroke="#007272" stroke-width="0.5"/><path d="M178.56653,183.77212c0.13002,1.61403 0.1034,2.65425 -0.07811,3.12288c-0.75531,2.13414 -3.29285,3.47391 -7.61172,4.02065c-1.45782,0.18239 -2.91475,-0.50724 -4.37257,-2.06891c0,0.23432 0.05192,0.93682 0.15665,2.1084c0.07811,0.85872 0.06479,1.56122 -0.03905,2.10752c-0.65103,0.41626 -1.17113,0.62485 -1.56166,0.62485c-0.59911,0 -0.89776,-0.58535 -0.89776,-1.75693c0,-0.20813 0.01287,-0.53963 0.03905,-0.99495c0.02574,-0.45487 0.03905,-0.77395 0.03905,-0.95635c0,-0.44245 -0.03905,-0.75443 -0.11716,-0.93682v-2.14701c0,-0.05192 0.01287,-0.1105 0.03905,-0.17574c0.02574,-0.06479 0.05192,-0.12337 0.07811,-0.17574c-0.02618,-0.3639 -0.01331,-0.9235 0.03905,-1.67837c0.05192,-0.46863 0.05192,-0.7673 0,-0.89776c-0.13047,-0.25961 -0.19482,-0.41582 -0.19482,-0.46819c0.1034,-0.72869 0.63771,-1.09303 1.60027,-1.09303c0.6244,0 1.00161,0.22145 1.13209,0.66345c0,0.41626 0.05192,1.02824 0.15621,1.83459c0.15665,0.93682 0.65058,1.87409 1.48356,2.81046c0.91063,1.06729 1.78222,1.56166 2.61564,1.48356c0.93682,-0.1034 1.87364,-0.32485 2.81046,-0.66345c1.30117,-0.46863 2.08178,-1.01493 2.34227,-1.63932c0.18151,-0.46863 0.27293,-0.96256 0.27293,-1.48356c0,-1.58696 -0.58535,-2.77141 -1.75648,-3.55202c-0.521,-0.33816 -1.48356,-0.61153 -2.88901,-0.82011c-0.80679,-0.1034 -1.30161,-0.15621 -1.48311,-0.15621c-1.24924,0.02618 -2.41416,-0.37721 -3.49388,-1.21019c-1.08016,-0.83253 -1.6198,-1.79598 -1.6198,-2.88901v-2.26372c0,-0.49393 0.28624,-1.65219 0.85916,-3.47391c0.25961,-0.85916 0.40295,-1.31404 0.42958,-1.3664c0.23387,-0.5463 0.53298,-0.91063 0.89732,-1.09303c0.88445,-0.442 1.82128,-0.66345 2.81046,-0.66345c1.92556,0 3.34389,0.78061 4.25496,2.34183c0.07811,0.07811 0.20813,0.19526 0.39052,0.35148c0.02574,-0.3639 0.07811,-0.9235 0.15621,-1.67837c-0.02618,-0.33816 -0.05237,-0.66345 -0.07811,-0.97587c0,-0.3639 0.18151,-0.61108 0.5463,-0.74156c0.10385,-0.05192 0.24719,-0.09098 0.42958,-0.11716c0.26006,-0.05192 0.54008,0.01331 0.83963,0.19482c0.29867,0.18239 0.42248,0.72913 0.37056,1.63932c-0.02618,0.57248 -0.07811,1.37927 -0.15621,2.41993c-0.07811,0.85916 -0.19482,2.17319 -0.35148,3.94298c0.05192,0.41626 0.05192,0.98919 0,1.71743c-0.13047,0.49437 -0.521,0.74156 -1.17113,0.74156c-0.33861,0 -0.66345,-0.09098 -0.97587,-0.27293c-0.15621,-0.49393 -0.23387,-0.70295 -0.23387,-0.62485c0.05148,-0.7025 -0.09142,-1.63932 -0.42958,-2.81046c-0.28668,-0.59822 -0.68298,-1.45028 -1.19066,-2.55662c-0.50768,-1.1059 -1.17779,-1.69835 -2.01032,-1.77646c-1.04111,-0.07811 -1.71743,0.27337 -2.02985,1.05398c-0.10385,0.33861 -0.24763,0.83342 -0.42913,1.48356c-0.31242,0.963 -0.50768,1.88696 -0.58579,2.77141c-0.02618,0.28668 -0.05237,0.40384 -0.07811,0.35148c0.07811,0.521 0.16908,1.04111 0.27337,1.56166c0.13002,0.65058 0.44911,1.1454 0.95635,1.48311c0.50768,0.33861 1.47646,0.5463 2.90809,0.6244c3.51296,0.20902 5.68571,1.43208 6.51869,3.66962c0.12958,0.20857 0.25961,0.55961 0.39008,1.05354z" fill="#000000" stroke="#007272" stroke-width="0.5"/><path d="M227.93487,185.76691c0.1034,0.39052 -0.07145,0.98298 -0.52632,1.77646c-0.45399,0.79392 -0.93416,1.35974 -1.44051,1.69791c-0.50636,0.33816 -1.29185,0.55961 -2.35559,0.66345c-0.85694,0.07811 -1.6553,-0.29955 -2.39464,-1.13209c-0.74023,-0.83253 -1.16137,-1.75648 -1.26522,-2.77141c-0.28624,-2.86239 -0.64969,-4.91841 -1.09081,-6.16765c-0.05237,-0.31198 -0.19482,-0.77351 -0.42869,-1.38548c-0.23343,-0.61108 -0.76552,-1.11256 -1.59628,-1.50309c-0.62351,-0.23387 -1.259,-0.48106 -1.90781,-0.74156c-0.10385,-0.02574 -0.23343,-0.02574 -0.38919,0c-0.36345,0.10385 -1.11699,0.31198 -2.25884,0.6244v0.74156v3.04478c0,0.05237 0.01952,0.29955 0.05858,0.74156c0.03905,0.44289 0.05858,0.75531 0.05858,0.93682c0.05192,0.44289 0.1176,1.61403 0.19526,3.51296c0.18151,0.07855 0.37677,0.07855 0.58535,0c0.7025,-0.28624 1.32691,-0.35103 1.87364,-0.19482c0.39052,0.13047 0.58535,0.44289 0.58535,0.93682c0,0.72913 -0.38387,1.16492 -1.15161,1.30737c-0.76774,0.14334 -1.89317,0.34526 -3.37628,0.60532c-1.19732,0.23387 -2.08222,0.35103 -2.65425,0.35103c-0.88489,0 -1.49687,-0.20813 -1.83459,-0.6244c-0.07811,-0.85916 0.3639,-1.37882 1.32691,-1.56166c0.78105,-0.07811 1.56166,-0.16908 2.34183,-0.27337c0.10385,-0.12958 0.15665,-0.27293 0.15665,-0.42913c-0.02663,-0.59866 -0.16952,-2.74567 -0.42958,-6.44102c-0.07811,-0.88445 -0.10429,-1.56166 -0.07811,-2.02985c-0.46863,-0.02574 -0.78105,-0.06479 -0.93682,-0.11716c-0.39052,-0.13002 -0.63816,-0.37721 -0.74156,-0.74156v-0.1176c0.05148,-0.02574 0.09053,-0.15621 0.11716,-0.39008c0.3639,-0.57248 0.83253,-0.79348 1.40545,-0.66389c0.05148,-0.15621 0.03905,-0.57204 -0.0395,-1.2488c-0.23387,-2.47186 -0.37766,-4.44978 -0.42913,-5.93334c-0.10429,-0.1034 -0.32574,-0.13002 -0.66389,-0.07811c-0.52055,0.10429 -0.79392,0.15621 -0.81966,0.15621c-1.40545,0 -2.08222,-0.33772 -2.02985,-1.01493c0.05192,-0.6244 0.58535,-1.00117 1.60027,-1.13209c0.91063,-0.18151 2.82333,-0.46819 5.73852,-0.85872c-0.13047,0.02618 0.79348,0.06479 2.77141,0.11716c2.28946,0.18239 3.89017,0.56005 4.80126,1.13209c0.98874,0.65103 1.65219,1.5093 1.99035,2.57659c0.1034,0.33861 0.13002,0.84585 0.07811,1.52261c-0.02618,0.67676 -0.13047,1.15782 -0.31198,1.44406c-0.59911,1.09303 -1.80885,2.06891 -3.63057,2.92806c0,0.07811 0.01287,0.13047 0.03905,0.15621c0.65058,0.46863 1.09303,0.88489 1.32735,1.2488c0.67588,1.09303 1.13209,2.68087 1.36595,4.76221c0.33816,2.83709 0.61108,4.61931 0.81966,5.348c0.02618,0.15621 0.20813,0.40339 0.5463,0.74156c0.33816,0.33905 0.61153,0.521 0.82011,0.5463c0.80591,0.05237 1.30117,-0.31198 1.48356,-1.09303c-0.02663,-0.28624 0.09053,-0.67632 0.35103,-1.17113c0.36435,-0.33816 0.80635,-0.50768 1.32735,-0.50768c0.52144,0.00089 0.8596,0.23564 1.01625,0.70339zM220.12789,172.06564c0.23387,-0.23387 0.35103,-0.59822 0.35103,-1.09303c0,-1.32691 -0.46863,-2.27659 -1.40501,-2.84952c-0.93682,-0.57204 -2.96711,-0.83253 -6.09,-0.78061c-0.23387,0 -0.58535,0.10385 -1.05398,0.31198c0.07855,0.39052 0.07855,0.71582 0,0.97587c-0.02618,0.39052 -0.02618,0.75487 0,1.09303c0.01287,0.7025 0.0395,1.57498 0.07855,2.61564c0.12958,1.53548 0.19482,2.39464 0.19482,2.57615c0.442,-0.02574 1.09303,-0.15621 1.95174,-0.39008c0.12958,-0.13002 0.31198,-0.27337 0.5463,-0.42958c0.18151,-0.05192 0.65014,-0.07811 1.40501,-0.07811c1.43163,0.00044 2.77229,-0.64969 4.02153,-1.95174z" fill="#ffab19" stroke="#007272" stroke-width="0.5"/><path d="M223.39366,194.7965c-1.5306,0 -3.78367,-0.48283 -5.82595,-2.78206c-0.03373,-0.03817 -0.06701,-0.07633 -0.10074,-0.11494c-0.62307,0.35547 -1.32468,0.6133 -2.08887,0.75531c-0.7673,0.14289 -1.89538,0.3457 -3.37895,0.60576c-1.51773,0.29511 -2.64493,0.43269 -3.54314,0.43269c-3.02126,0 -4.72715,-1.32247 -5.62669,-2.43192c-0.60975,-0.75176 -0.98209,-1.66861 -1.06951,-2.6325c-0.24985,-2.75321 1.16537,-5.12921 3.56577,-6.25109c-0.03506,-0.50991 -0.075,-1.0877 -0.12071,-1.74095c-0.76996,-0.72203 -1.33755,-1.64642 -1.63932,-2.70884c-0.12337,-0.43401 -0.18594,-0.88312 -0.18594,-1.33444v-0.1176c0,-0.55295 0.09364,-1.09214 0.26849,-1.59805c0.12737,-0.49837 0.33283,-0.97499 0.61064,-1.41167c0.14423,-0.22677 0.29867,-0.44156 0.46242,-0.64481c-0.00355,-0.03905 -0.0071,-0.07855 -0.00976,-0.1176c-0.7917,-0.29689 -1.60781,-0.77173 -2.31165,-1.53193c-1.06729,-1.15383 -1.58785,-2.66135 -1.46492,-4.24609c0.29334,-3.52805 3.18102,-5.1869 5.64888,-5.56944c1.05975,-0.20325 2.9964,-0.4926 5.90849,-0.88268c0.45665,-0.0608 0.90753,-0.05725 1.34288,0.00532c0.27558,0.01243 0.88667,0.0355 2.20515,0.07012c0.08654,0.00222 0.17352,0.0071 0.25961,0.01376c3.15661,0.25118 5.38394,0.84318 7.00862,1.86343c0.03018,0.01864 0.05991,0.03772 0.08964,0.05725c1.91536,1.26167 3.28442,3.05187 3.95896,5.17758c0.00488,0.01598 0.00976,0.03151 0.01464,0.04749c0.28402,0.92794 0.37455,1.95752 0.28402,3.23471c-0.06657,1.44184 -0.3821,2.62585 -0.963,3.61015c-0.33683,0.59644 -0.74244,1.15782 -1.21906,1.68681c0.4065,1.15782 0.7025,2.47186 0.89511,3.96252c0.18195,-0.01376 0.36568,-0.02086 0.55118,-0.02086c2.60943,0 4.82522,1.5843 5.64488,4.03663c0.03239,0.09807 0.06213,0.19615 0.08831,0.296c0.67011,2.52467 -0.59333,4.72981 -1.00827,5.4545c-0.84097,1.4698 -1.81151,2.56061 -2.96534,3.33102c-1.19599,0.7988 -2.69818,1.2772 -4.59135,1.4627c-0.25251,0.02396 -0.47485,0.03373 -0.69451,0.03373z" fill="#ffab19" stroke="#007272" stroke-width="0.5"/><path d="M227.93487,185.76691c0.1034,0.39052 -0.07145,0.98298 -0.52632,1.77646c-0.45399,0.79392 -0.93416,1.35974 -1.44051,1.69791c-0.50636,0.33816 -1.29185,0.55961 -2.35559,0.66345c-0.85694,0.07811 -1.6553,-0.29955 -2.39464,-1.13209c-0.74023,-0.83253 -1.16137,-1.75648 -1.26522,-2.77141c-0.28624,-2.86239 -0.64969,-4.91841 -1.09081,-6.16765c-0.05237,-0.31198 -0.19482,-0.77351 -0.42869,-1.38548c-0.23343,-0.61108 -0.76552,-1.11256 -1.59628,-1.50309c-0.62351,-0.23387 -1.259,-0.48106 -1.90781,-0.74156c-0.10385,-0.02574 -0.23343,-0.02574 -0.38919,0c-0.36345,0.10385 -1.11699,0.31198 -2.25884,0.6244v0.74156v3.04478c0,0.05237 0.01952,0.29955 0.05858,0.74156c0.03905,0.44289 0.05858,0.75531 0.05858,0.93682c0.05192,0.44289 0.1176,1.61403 0.19526,3.51296c0.18151,0.07855 0.37677,0.07855 0.58535,0c0.7025,-0.28624 1.32691,-0.35103 1.87364,-0.19482c0.39052,0.13047 0.58535,0.44289 0.58535,0.93682c0,0.72913 -0.38387,1.16492 -1.15161,1.30737c-0.76774,0.14334 -1.89317,0.34526 -3.37628,0.60532c-1.19732,0.23387 -2.08222,0.35103 -2.65425,0.35103c-0.88489,0 -1.49687,-0.20813 -1.83459,-0.6244c-0.07811,-0.85916 0.3639,-1.37882 1.32691,-1.56166c0.78105,-0.07811 1.56166,-0.16908 2.34183,-0.27337c0.10385,-0.12958 0.15665,-0.27293 0.15665,-0.42913c-0.02663,-0.59866 -0.16952,-2.74567 -0.42958,-6.44102c-0.07811,-0.88445 -0.10429,-1.56166 -0.07811,-2.02985c-0.46863,-0.02574 -0.78105,-0.06479 -0.93682,-0.11716c-0.39052,-0.13002 -0.63816,-0.37721 -0.74156,-0.74156v-0.1176c0.05148,-0.02574 0.09053,-0.15621 0.11716,-0.39008c0.3639,-0.57248 0.83253,-0.79348 1.40545,-0.66389c0.05148,-0.15621 0.03905,-0.57204 -0.0395,-1.2488c-0.23387,-2.47186 -0.37766,-4.44978 -0.42913,-5.93334c-0.10429,-0.1034 -0.32574,-0.13002 -0.66389,-0.07811c-0.52055,0.10429 -0.79392,0.15621 -0.81966,0.15621c-1.40545,0 -2.08222,-0.33772 -2.02985,-1.01493c0.05192,-0.6244 0.58535,-1.00117 1.60027,-1.13209c0.91063,-0.18151 2.82333,-0.46819 5.73852,-0.85872c-0.13047,0.02618 0.79348,0.06479 2.77141,0.11716c2.28946,0.18239 3.89017,0.56005 4.80126,1.13209c0.98874,0.65103 1.65219,1.5093 1.99035,2.57659c0.1034,0.33861 0.13002,0.84585 0.07811,1.52261c-0.02618,0.67676 -0.13047,1.15782 -0.31198,1.44406c-0.59911,1.09303 -1.80885,2.06891 -3.63057,2.92806c0,0.07811 0.01287,0.13047 0.03905,0.15621c0.65058,0.46863 1.09303,0.88489 1.32735,1.2488c0.67588,1.09303 1.13209,2.68087 1.36595,4.76221c0.33816,2.83709 0.61108,4.61931 0.81966,5.348c0.02618,0.15621 0.20813,0.40339 0.5463,0.74156c0.33816,0.33905 0.61153,0.521 0.82011,0.5463c0.80591,0.05237 1.30117,-0.31198 1.48356,-1.09303c-0.02663,-0.28624 0.09053,-0.67632 0.35103,-1.17113c0.36435,-0.33816 0.80635,-0.50768 1.32735,-0.50768c0.52144,0.00089 0.8596,0.23564 1.01625,0.70339zM220.12789,172.06564c0.23387,-0.23387 0.35103,-0.59822 0.35103,-1.09303c0,-1.32691 -0.46863,-2.27659 -1.40501,-2.84952c-0.93682,-0.57204 -2.96711,-0.83253 -6.09,-0.78061c-0.23387,0 -0.58535,0.10385 -1.05398,0.31198c0.07855,0.39052 0.07855,0.71582 0,0.97587c-0.02618,0.39052 -0.02618,0.75487 0,1.09303c0.01287,0.7025 0.0395,1.57498 0.07855,2.61564c0.12958,1.53548 0.19482,2.39464 0.19482,2.57615c0.442,-0.02574 1.09303,-0.15621 1.95174,-0.39008c0.12958,-0.13002 0.31198,-0.27337 0.5463,-0.42958c0.18151,-0.05192 0.65014,-0.07811 1.40501,-0.07811c1.43163,0.00044 2.77229,-0.64969 4.02153,-1.95174z" fill="#000000" stroke="#007272" stroke-width="0.5"/><path d="M252.91037,190.7368c-0.04882,0.06213 -0.09763,0.12426 -0.15532,0.18639c-0.95856,1.09613 -2.20115,1.65086 -3.07096,1.97038c-1.64642,0.64792 -3.05765,1.43341 -4.18928,2.33428c-0.05769,0.04882 -0.11538,0.09319 -0.17751,0.13757c-1.10057,0.79437 -2.47629,1.21596 -4.21591,1.27365c-0.05769,0.00444 -0.11538,0.00444 -0.17307,0.00444c-1.34909,0 -2.64493,-0.47929 -3.74551,-1.3846c-0.53698,-0.43935 -0.98075,-0.95856 -1.32247,-1.53104c-0.71449,0.27514 -1.48223,0.41716 -2.26772,0.41716c-0.29289,0 -0.57248,-0.02219 -0.84762,-0.071c-0.18639,-0.02663 -0.57692,-0.07988 -1.18045,-0.1642c-0.12426,-0.01331 -0.71449,-0.071 -3.33723,-0.28845c-0.02663,0 -0.05325,-0.00444 -0.07988,-0.00888c-1.88163,-0.18639 -3.11978,-0.53698 -4.14934,-1.17158c-0.04882,-0.02663 -0.09763,-0.05769 -0.14201,-0.09319c-1.57986,-1.05176 -2.52511,-2.80469 -2.52511,-4.68188c0,-3.03546 2.01476,-5.40968 5.01471,-5.91115c0.03994,-0.00444 0.07544,-0.00888 0.11538,-0.01775c0.35946,-0.04882 0.73668,-0.071 1.12276,-0.07544c0.00888,-0.06657 0.02219,-0.13313 0.0355,-0.20414c0.01775,-0.09763 0.03994,-0.19526 0.06657,-0.29289c0.39496,-1.57098 0.80324,-3.37273 1.22484,-5.39637c-1.60205,-0.25739 -2.68931,-1.18045 -3.08427,-1.51773c-0.67898,-0.57692 -1.18933,-1.33134 -1.47335,-2.17453c-0.68342,-2.05471 -0.15088,-4.29135 1.39347,-5.84015c0.95413,-0.95413 2.14346,-1.57986 3.43042,-1.80618c0.27958,-0.04882 0.71449,-0.1287 1.30915,-0.24851l0.06657,-0.01331c1.31803,-0.24408 2.83132,-0.42159 4.62863,-0.54141c1.29584,-0.08876 1.29584,-0.08876 1.4911,-0.08876c0.20414,0 0.40828,0.01331 0.61242,0.03994c1.89938,0.23964 3.55024,1.31359 4.52212,2.95558c0.45266,0.75886 0.81212,1.68636 1.14495,2.92895c0.1997,0.73668 0.29733,1.06063 0.33727,1.18045c0.08876,0.20857 0.21745,0.49704 0.38165,0.86537c0.06657,0.14645 0.12426,0.29733 0.17307,0.44822c0.00444,0.00888 0.08432,0.23964 0.39052,0.90531c0.02219,0.05325 0.04438,0.10207 0.06657,0.15532c0.59911,1.42897 1.53548,3.66563 2.80913,6.70995c0.02219,0.05769 0.04882,0.11538 0.071,0.17307c0.13757,0.36833 0.30177,0.80324 0.4926,1.30028c1.59317,-0.11982 3.14196,0.38609 4.42005,1.43341c0.1287,0.10207 0.25295,0.21301 0.36833,0.32839c1.21596,1.21596 1.47335,2.72481 1.55767,3.22184c0.02219,0.15088 0.03994,0.30177 0.05325,0.4571c0.14645,1.98813 -0.55029,3.32391 -1.1627,4.09609zM232.17252,193.9409c-0.55473,-0.17307 -1.07395,-0.43935 -1.5266,-0.78105c0.45266,0.34615 0.96744,0.61686 1.5266,0.78105z" fill="#ffab19" stroke="#007272" stroke-width="0.5"/><path d="M249.08765,187.70312c-0.18283,0.20857 -0.56005,0.41626 -1.13209,0.6244c-2.13503,0.83298 -3.96872,1.86077 -5.50376,3.08383c-0.28668,0.20813 -0.79481,0.32485 -1.52305,0.35103c-0.20857,0 -0.42337,-0.09142 -0.64393,-0.27293c-0.22145,-0.18195 -0.33195,-0.39052 -0.33195,-0.6244c0,-0.31242 0.35148,-0.71537 1.05398,-1.21063c0.49393,-0.31198 0.98919,-0.63771 1.484,-0.97587c0.0253,-0.12958 -0.40384,-1.66506 -1.28962,-4.606c-1.43253,-0.02574 -3.68559,0.442 -6.75833,1.40456c-0.18283,0.05237 -0.28713,0.15621 -0.31287,0.31242c-0.02618,0.15621 -0.06524,0.41582 -0.11716,0.78017c-0.05014,0.07811 -0.09985,0.19482 -0.14955,0.35103c0,0.10429 0.14955,0.21524 0.44911,0.33239c0.29867,0.1176 0.48816,0.22855 0.56582,0.33195c0.07811,0.10429 0.11716,0.23387 0.11716,0.39052c0,0.31198 -0.13668,0.60532 -0.41005,0.87868c-0.27293,0.27293 -0.60487,0.40961 -0.99495,0.40961c0.02574,0 -0.44289,-0.06479 -1.40545,-0.19482c-0.18239,-0.02574 -1.3664,-0.13002 -3.55246,-0.31198c-1.04111,-0.10385 -1.73074,-0.26006 -2.06846,-0.46863c-0.23432,-0.15621 -0.35148,-0.36435 -0.35148,-0.6244c0,-0.62485 0.31242,-0.98919 0.93682,-1.09303c0.3639,-0.05192 0.83253,-0.02618 1.40501,0.07811c0.13002,0.05237 1.15738,0.14289 3.08383,0.27293c0.15621,-1.09303 0.41626,-2.61564 0.78061,-4.56694c0.80635,-3.20098 1.65263,-7.26069 2.53754,-12.1791c-0.2605,-0.05148 -0.53342,-0.07811 -0.81966,-0.07811c-0.49481,0 -1.22972,0.14334 -2.20603,0.42958c-0.97543,0.28668 -1.69791,0.42958 -2.16654,0.42958c-0.18195,0 -0.44245,-0.14245 -0.78061,-0.42958c-0.10429,-0.31242 -0.03284,-0.59156 0.21435,-0.83919c0.24719,-0.24719 0.52055,-0.39674 0.82011,-0.44911c0.29911,-0.05192 0.77395,-0.14289 1.42498,-0.27337c1.11877,-0.20813 2.47186,-0.3639 4.05926,-0.46863c0.75443,-0.05148 1.14495,-0.07811 1.17113,-0.07811c0.41626,0.05237 0.72869,0.25385 0.93682,0.60487c0.20813,0.35148 0.41626,0.91729 0.6244,1.69791c0.26006,0.96344 0.43535,1.54879 0.52721,1.75693c0.09098,0.20857 0.24053,0.5463 0.44911,1.01493c0.1034,0.31198 0.29867,0.78061 0.58535,1.40501c0.59866,1.43163 1.53504,3.66962 2.8109,6.71395c0.46819,1.24924 1.21019,3.14951 2.22511,5.69947c0.442,-0.05192 1.01493,-0.27337 1.71699,-0.66345c0.70295,-0.39052 1.22306,-0.58535 1.56211,-0.58535c0.31198,0 0.61108,0.11716 0.89776,0.35103c0.07811,0.07811 0.14201,0.27337 0.19482,0.58535c0.02618,0.33905 -0.01287,0.57336 -0.11627,0.70339zM240.4215,182.04448c-0.44423,-0.85872 -1.00472,-2.16077 -1.68281,-3.90527c-0.26094,-0.59866 -0.96478,-2.16032 -2.11284,-4.68632l-1.93044,9.84127c2.33739,-0.442 4.16754,-0.78061 5.49222,-1.01537c0.15576,-0.1034 0.23387,-0.18195 0.23387,-0.23432z" fill="#000000" stroke="#007272" stroke-width="0.5"/><path d="M270.58614,168.81007c-0.01775,0.07544 -0.03106,0.15088 -0.05325,0.22633c-0.06657,0.27958 -0.20414,0.94081 -0.34171,2.23222c0,0.02219 0,0.03994 -0.00444,0.05325c0.75886,3.05321 -0.51923,4.91265 -1.36685,5.76027c-0.05325,0.05769 -0.11094,0.11094 -0.17307,0.1642c-0.82987,0.75443 -2.28103,1.6553 -4.44668,1.6553c-1.07838,0 -2.08577,-0.23964 -2.96445,-0.67898c0.02219,1.21152 0.0355,2.88014 0.0355,5.19666c0.7988,0.27958 1.53104,0.73224 2.15234,1.32691c1.23371,1.18489 1.90825,2.76919 1.90825,4.45999c0,2.5118 -1.44673,4.6952 -3.77657,5.6937c-0.05769,0.02663 -0.11982,0.05325 -0.17751,0.07544c-0.78105,0.29733 -1.65974,0.44378 -2.68931,0.44378c-0.37277,0 -0.77218,-0.01775 -1.20708,-0.05769c-0.26627,-0.01331 -0.6568,-0.00888 -1.11832,0.00444c-0.83874,0.09319 -2.0192,0.18639 -3.59905,0.27514c-0.03106,0 -0.06213,0.00444 -0.09763,0.00444c-0.20857,0.00888 -0.40828,0.01331 -0.60354,0.01331c-2.82688,0 -4.89046,-0.89644 -6.13748,-2.65824c-0.02663,-0.0355 -0.04882,-0.071 -0.071,-0.10651c-1.26921,-1.89494 -1.30472,-4.29135 -0.09763,-6.24843c0.00888,-0.02219 0.02219,-0.03994 0.0355,-0.06213c0.76774,-1.20708 1.8905,-2.06802 3.3461,-2.57392c0.01775,-0.8565 0.01331,-1.93044 -0.01331,-3.20409c-0.72336,0.30177 -1.55767,0.47929 -2.49404,0.47929c-2.47186,0 -4.51325,-1.46891 -5.22329,-3.70113c-0.14645,-0.45266 -0.28402,-1.11389 -0.60354,-2.60499c-0.01331,-0.05325 -0.02219,-0.10651 -0.03106,-0.15976l-0.6568,-3.67007c-0.02219,-0.07988 -0.05325,-0.17307 -0.08876,-0.27958c-0.34171,-0.97188 -0.50147,-1.79731 -0.50147,-2.59611c0,-0.98963 0.28845,-2.48517 1.6553,-3.97627c0.68786,-0.75443 1.93932,-1.73074 3.95408,-2.04583c0.24851,-0.03994 0.50147,-0.06213 0.75443,-0.06213h4.90821c0.11094,0 0.22189,0.00444 0.33283,0.01331c1.87275,0.06657 3.55024,0.06213 4.98809,-0.00444c2.01032,-0.08876 4.01621,-0.26183 5.98215,-0.51479c0.22189,-0.071 0.46153,-0.14201 0.71892,-0.20414c0.24408,-0.06213 0.4926,-0.10207 0.74111,-0.1287c1.8905,-0.17307 3.65231,0.37277 5.02359,1.54436c1.69968,1.46004 2.44967,3.67007 2.00145,5.91559z" fill="#ffab19" stroke="#007272" stroke-width="0.5"/><path d="M265.79864,167.85327c-0.18195,0.72913 -0.33816,1.71743 -0.46819,2.96667c-0.05281,0.62485 -0.02707,1.13209 0.07811,1.52261c0.18106,0.65103 0.16908,1.08061 -0.03905,1.28829c-0.28668,0.26006 -0.67676,0.39008 -1.17113,0.39008c-0.57292,0 -0.95102,-0.16997 -1.13209,-0.51079c-0.02707,-1.04821 -0.01376,-2.03162 0.03905,-2.94936c0.05104,-1.1272 0.07811,-1.71699 0.07811,-1.76935c-0.02707,0 -0.06568,-0.02618 -0.11716,-0.07899c-2.42082,0.10518 -4.69785,0.26138 -6.83155,0.46996c-0.05237,0.26138 -0.05237,0.6781 0,1.25146c0.1034,0.80857 0.15621,1.27809 0.15621,1.40767c-0.10385,0.80857 -0.15621,2.00766 -0.15621,3.59861c0.1034,0.6781 0.15621,3.58574 0.15621,8.7225v2.85573c0,0.44333 0.06435,0.7562 0.19349,0.9386h2.39686c0.43801,-0.05192 0.79214,0.05237 1.0633,0.31242c0.27026,0.2605 0.40562,0.57248 0.40562,0.93638c0,0.57204 -0.27293,0.97587 -0.81966,1.21063c-0.33861,0.12958 -0.93682,0.15621 -1.79554,0.07811c-0.41626,-0.02663 -1.02824,-0.02663 -1.83503,0c-0.72869,0.09053 -1.89938,0.18151 -3.51296,0.27293c-1.40545,0.05192 -2.26417,-0.14334 -2.57659,-0.58535c-0.20857,-0.31198 -0.20857,-0.63771 0,-0.97587c0.3639,-0.57204 1.31404,-0.85872 2.84996,-0.85872c0.5463,0 0.88401,-0.04526 1.01448,-0.13624c0.13002,-0.09098 0.19526,-0.26671 0.19526,-0.52676c0,-0.23343 0,-0.45399 0,-0.66212c0,-0.38919 0,-0.96079 0,-1.71388c0.07811,-1.3238 0.07811,-3.29817 0,-5.92136c-0.10429,-3.76547 -0.05237,-7.07607 0.15621,-9.93314c-0.02618,-0.02574 -0.06524,-0.06479 -0.11805,-0.11716c-0.94214,0.05237 -2.45987,0.02618 -4.55319,-0.07855c-0.23564,0 -1.03445,0.05281 -2.39464,0.15665c0.33816,2.36846 0.5463,4.15112 0.6244,5.348c0,0.15621 -0.02618,0.50768 -0.07811,1.05398c-0.02618,0.39008 -0.35148,0.58535 -0.97587,0.58535c-0.33861,0 -0.53342,-0.11627 -0.58535,-0.34837c-0.02618,-0.05104 -0.18239,-0.74866 -0.46863,-2.09065c-0.15621,-0.87736 -0.37766,-2.11639 -0.66345,-3.71666c0,-0.10207 -0.09142,-0.4247 -0.27293,-0.96744c-0.15532,-0.4389 -0.23299,-0.77439 -0.23299,-1.00649c0,-0.18018 0.12293,-0.40694 0.371,-0.67721c0.24719,-0.2707 0.61819,-0.44556 1.11256,-0.52322c0.07811,0 0.20104,0 0.371,0c0.16863,0 0.30532,0 0.40961,0c3.09714,0 4.45023,0 4.0597,0c2.10796,0.07855 3.9816,0.07855 5.62092,0c2.34183,-0.1034 4.65747,-0.31198 6.94826,-0.6244c0.15621,-0.07811 0.39008,-0.15621 0.70206,-0.23387c0.57292,-0.05192 1.04111,0.07811 1.4059,0.39052c0.3639,0.31154 0.49393,0.72824 0.39008,1.2488z" fill="#000000" stroke="#007272" stroke-width="0.5"/><path d="M287.14802,184.06235c-0.31064,3.35054 -1.31803,5.8934 -3.07096,7.74397c-1.02069,1.07838 -2.53398,1.93044 -5.05465,2.83576c-0.04882,0.01775 -0.10207,0.0355 -0.15532,0.05325c-1.20708,0.38609 -2.52511,0.58579 -3.91414,0.58579c-2.11683,0 -4.08278,-0.41716 -5.84458,-1.23815c-2.60499,-1.21596 -3.90083,-2.91564 -4.54431,-4.34904c-0.09319,-0.15532 -0.19082,-0.31508 -0.28402,-0.48816c-0.26627,-0.48372 -0.45266,-1.00738 -0.54141,-1.55323c-0.1287,-0.7633 -0.33283,-1.91269 -0.61242,-3.43929c-0.05325,-0.29289 -0.07988,-0.58579 -0.07988,-0.88312v-3.86089c0,-0.47929 0.03994,-1.18045 0.32839,-3.07984c0.27958,-1.85944 0.3994,-2.43635 0.62129,-3.00439c0.58135,-1.54879 2.32097,-6.10198 6.53688,-7.00285c1.3846,-0.29289 2.94227,-0.33283 4.41561,-0.17307c1.04288,-1.67305 2.90676,-2.67155 5.02359,-2.67155c3.6745,0 5.70701,2.42304 6.08867,4.81945c0.03994,0.25295 0.05769,0.51035 0.05769,0.76774v6.16411c0,0.00444 0,0.00888 0,0.00888c0,0.00444 0,0.00444 0,0.00888c0,0 0,0 0,0.00444c0,0.40384 -0.05325,0.78993 -0.14201,1.16714c0.8565,0.97188 1.33134,2.17009 1.35353,3.45261c0.02663,1.28697 -0.0355,2.68043 -0.18195,4.13159z" fill="#ffab19" stroke="#007272" stroke-width="0.5"/><path d="M282.44794,180.01419c0.0253,1.09303 -0.02618,2.27748 -0.15621,3.55202c-0.20902,2.23843 -0.79392,3.86444 -1.75693,4.87937c-0.44289,0.46863 -1.49643,1.00206 -3.16149,1.60027c-0.72913,0.23432 -1.53592,0.35148 -2.42037,0.35148c-1.40501,0 -2.66756,-0.26006 -3.78633,-0.78105c-1.2235,-0.57204 -1.97793,-1.31359 -2.26417,-2.22511c-0.10385,-0.13002 -0.22145,-0.31198 -0.35103,-0.5463c-0.13092,-0.78061 -0.33861,-1.9513 -0.62485,-3.51296v-3.86444c0,-0.36435 0.09098,-1.14495 0.27337,-2.34227c0.18151,-1.19643 0.29911,-1.85988 0.35148,-1.99035c0.91063,-2.42037 1.91269,-3.74728 3.00528,-3.98204c0.49393,-0.1034 1.04067,-0.15621 1.63932,-0.15621c1.92556,0 3.66962,0.46863 5.23084,1.40545c0.1034,0.05237 0.23387,0.07811 0.39008,0.07811c0.02618,-0.07811 0.05192,-0.40295 0.07855,-0.97587c0.02574,0 0.02574,-0.45487 0,-1.36595c-0.02663,-0.62485 0.03506,-1.06685 0.18461,-1.32735c0.14867,-0.25961 0.44733,-0.39052 0.89378,-0.39052c0.76774,0 1.18933,0.23432 1.26388,0.70295c0,0.02618 0,0.98919 0,2.88856c0,1.43163 0,2.3294 0,2.6933c0,0.44289 0,0.63816 0,0.58535c-0.10473,0.39052 -0.28668,0.6244 -0.54674,0.7025c-0.70206,0.23432 -1.184,0.24807 -1.44406,0.03905c-0.13047,0 -0.27293,-0.03905 -0.42958,-0.11716c-0.13047,-0.3639 -0.41626,-0.84495 -0.85872,-1.44406c-0.59911,-0.49393 -1.37972,-0.9235 -2.34183,-1.28829c-0.96344,-0.3639 -1.78311,-0.5463 -2.45943,-0.5463c-0.85916,0 -1.54835,0.66345 -2.06891,1.9908c-0.72913,1.82172 -1.05398,4.17641 -0.97587,7.06543c0.05192,1.27542 0.09098,2.08222 0.1176,2.41993c0.12958,1.06729 0.41626,1.97793 0.85872,2.73235c0.31242,0.521 0.79348,0.95057 1.4445,1.28829c0.65014,0.33861 1.28785,0.52055 1.91269,0.5463c3.09714,0.13047 4.9051,-1.23593 5.42655,-4.09876c0.28624,-1.53504 0.31198,-2.82333 0.07811,-3.86444c-0.05281,-0.20813 -0.02707,-0.48816 0.07811,-0.83963c0.10295,-0.35103 0.55917,-0.56582 1.36595,-0.64393c0.18195,0 0.40295,0.08476 0.66389,0.25385c0.25828,0.17041 0.38919,0.3457 0.38919,0.52766z" fill="#000000" stroke="#007272" stroke-width="0.5"/><path d="M312.85221,196.64352c-0.87868,0.95413 -2.49404,2.08133 -5.22773,2.08133h-0.74999c-0.46153,0.02663 -0.82099,0.03994 -1.12276,0.03994c-0.18195,0 -0.37277,0.01331 -0.56804,0.03106c-0.15088,0.05325 -0.45266,0.15976 -0.98963,0.36833c-1.46004,0.58579 -2.59167,0.85206 -3.6745,0.85206c-1.51773,0 -2.9467,-0.54141 -4.12716,-1.56211c-0.69674,-0.59911 -1.23371,-1.31803 -1.59317,-2.1124c-0.5636,-0.04438 -1.27809,-0.11094 -2.19228,-0.19082h-2.3121c-0.10651,0 -0.20857,-0.00444 -0.31064,-0.01331c-1.15383,-0.071 -2.26772,-0.40384 -3.30172,-0.98963c-1.92157,-1.08726 -3.06652,-2.96002 -3.06652,-5.01028c0,-2.23665 1.25146,-4.22922 3.35054,-5.33424c0.06657,-0.03994 0.13757,-0.07544 0.20857,-0.10651c0.15088,-0.071 0.30177,-0.13313 0.45266,-0.19526c0.00444,-0.11094 0.00444,-0.22633 0.00888,-0.34171v-3.16859c0,-0.13313 0.00444,-0.26183 0.01331,-0.39052c-0.24851,-1.04288 -0.22189,-2.10796 0.07988,-3.09315c0,-0.05769 0,-0.13313 -0.00444,-0.23076c-0.00888,-0.09763 -0.00888,-0.19526 -0.00888,-0.28845c0,-0.33727 0.02219,-0.7278 0.08432,-1.30028c0.01331,-0.14645 0.02663,-0.26183 0.03106,-0.35502c-0.00444,-0.10651 -0.03106,-0.59911 -0.16863,-2.17453c-2.60499,-1.00738 -3.86977,-3.25291 -4.15378,-5.24548c-0.13757,-0.95856 0.01331,-1.94375 0.43935,-2.818c1.20264,-2.48073 3.64788,-3.96296 6.54132,-3.96296c0.17751,0 0.35502,0.00888 0.5281,0.02663c0.18639,0.01775 0.75886,0.06657 1.70855,0.14645c0.81656,0.071 1.26478,0.08432 1.50442,0.08432h0.15976c0.07544,-0.00888 0.13313,-0.01331 0.20857,-0.01775c0.82099,-0.04438 1.37128,-0.07544 1.64642,-0.09319c0.01775,0 0.03994,-0.00444 0.05769,-0.00444c0.09319,-0.09319 0.19082,-0.18639 0.29289,-0.27514c1.4201,-1.24703 3.19522,-1.89938 5.13453,-1.89938c0.67011,0 1.17601,0.00888 1.55323,0.02663c0.30177,0.01331 0.54585,0.0355 0.77218,0.06657c0.05325,0.00444 0.11094,0.01331 0.16863,0.02663h1.80175c0.08432,-0.00888 0.19526,-0.02219 0.33727,-0.0355c0.55473,-0.05769 0.99407,-0.08432 1.38016,-0.08432c2.77362,0 5.00584,1.36241 6.01322,3.66119c0.38609,0.83874 0.58579,1.70855 0.58579,2.58724c0,2.06358 -1.14495,4.25585 -3.63456,5.29874c0.07988,1.6198 0.11982,3.20409 0.11982,4.74845v10.20695c0.00888,0.08876 0.02663,0.19526 0.04438,0.31952c0.00444,0.03106 0.00888,0.06657 0.01331,0.09763c0.04438,0.31952 0.07988,0.63905 0.10651,0.95856c2.0192,0.87425 3.38604,2.71593 3.56799,5.06797c0.09763,1.16714 -0.13313,2.88901 -1.70855,4.59757z" fill="#ffab19" stroke="#007272" stroke-width="0.5"/><path d="M309.69427,192.43915c0.02574,0.25961 -0.1176,0.55917 -0.42958,0.89732c-0.31242,0.33816 -0.85916,0.50768 -1.63932,0.50768c-0.18239,0 -0.48194,0 -0.89776,0c-0.41626,0.02574 -0.74156,0.03905 -0.97587,0.03905c-0.49437,0 -1.00206,0.03905 -1.52217,0.1176c-0.28668,0.05148 -0.89776,0.25961 -1.83503,0.6244c-0.83298,0.33772 -1.45737,0.50768 -1.87364,0.50768c-0.33861,0 -0.65103,-0.12381 -0.93682,-0.371c-0.28668,-0.24763 -0.42913,-0.54052 -0.42913,-0.87824c0,-0.5463 0.63727,-0.97543 1.91269,-1.28785c1.84746,-0.46863 2.79715,-0.71582 2.84952,-0.74156c-0.05237,-1.66506 -0.11716,-3.57776 -0.19482,-5.73852c-0.07811,-2.02985 -0.1176,-2.99241 -0.1176,-2.88856v-2.18606c0,-0.02618 0,-0.221 0,-0.58579c0.02618,-0.28624 0.02618,-0.49349 0,-0.6244c-0.02618,-0.23387 -0.11716,-0.37677 -0.27293,-0.42913c-0.02618,-0.02618 -0.41626,-0.0395 -1.17113,-0.0395c-1.30161,0.02663 -2.81046,0.20902 -4.52789,0.5463c-0.65103,0.15665 -1.6269,0.3781 -2.92806,0.66389v5.58187c0.02574,0.10429 0.03905,0.61198 0.03905,1.52261c0,0.72913 0.07855,1.17113 0.23432,1.32691c0.13002,0.05237 0.81966,0.10429 2.06891,0.15665c0.85872,0.02618 1.39169,0.33861 1.60027,0.93638c0.05148,0.15665 -0.0071,0.39052 -0.17574,0.70295c-0.16952,0.31198 -0.34482,0.50768 -0.52721,0.58535c-0.41626,0.15621 -0.7025,0.23387 -0.85872,0.23387c-0.57292,-0.02618 -1.9908,-0.14334 -4.25496,-0.35103h-2.53754c-0.41626,-0.02663 -0.81966,-0.15044 -1.21019,-0.371c-0.39052,-0.221 -0.58535,-0.4744 -0.58535,-0.76153c0,-0.41582 0.24719,-0.75398 0.74156,-1.01448c0.39052,-0.18195 0.82011,-0.27337 1.28829,-0.27337c0.18151,0 0.50768,0.0071 0.97543,0.01952c0.46863,0.01331 0.80635,0.0071 1.01493,-0.01952c-0.05237,-1.01049 -0.05237,-2.55306 0,-4.62774c0,0.02663 0,-1.04954 0,-3.22673c0,-0.07766 0.03239,-0.23964 0.09807,-0.48638c0.06479,-0.2463 0.09763,-0.43446 0.09763,-0.5636c-0.10429,-0.10385 -0.20902,-0.25917 -0.31242,-0.46686c-0.05237,-0.20725 -0.05237,-0.38831 0,-0.54496c0.18195,-0.41493 0.24719,-1.06241 0.19482,-1.9442c0,-0.15532 0.01997,-0.4207 0.05902,-0.79658c0.03905,-0.37588 0.05858,-0.65502 0.05858,-0.83653c0,-0.33683 -0.06524,-1.23105 -0.19526,-2.6831v-3.22761c0,-0.15488 -0.05104,-0.40118 -0.15311,-0.73845c-0.71537,0.07811 -1.23948,0.11716 -1.57098,0.11716c-1.48223,0 -2.29967,-0.53298 -2.45233,-1.60027c0.39008,-0.80591 1.10545,-1.21019 2.14701,-1.21019c-0.02663,0 0.58535,0.05237 1.83459,0.15621c1.17113,0.10429 2.01654,0.13047 2.53754,0.07811c1.45693,-0.07811 2.10796,-0.11716 1.9513,-0.11716c1.43119,0 2.06891,0.42958 1.91313,1.28829c-0.13047,0.6244 -0.72913,0.95013 -1.79598,0.97543c-0.80679,0.02663 -1.59982,0.05237 -2.38088,0.07811c0.13668,0.91153 0.22766,1.92645 0.27337,3.04478c0,0.7025 0,1.705 0,3.00572c0,1.40501 0,2.41993 0,3.04433c0.02574,0.02663 0.06479,0.05237 0.11716,0.07811c0.41626,0.02663 0.83253,0.03905 1.2488,0.03905c0.96256,0 2.19893,-0.07811 3.70823,-0.23387c2.02985,-0.23387 3.26489,-0.3639 3.70778,-0.39052c0.13002,-0.83253 0.19526,-1.82128 0.19526,-2.96667c0,-2.15988 -0.18239,-4.57981 -0.5463,-7.26069c0.02574,0 -0.49437,0 -1.56166,0c-0.5463,0 -1.04111,-0.09985 -1.48356,-0.30044c-0.44245,-0.20059 -0.66345,-0.60887 -0.66345,-1.22484c0,-0.2676 0.09098,-0.4815 0.27337,-0.6417c0.52011,-0.45487 1.15738,-0.68254 1.91269,-0.68254c1.40545,0 1.97748,0.03905 1.71743,0.11716h2.6933c0.1034,0 0.34437,-0.01952 0.72203,-0.05858c0.37721,-0.03905 0.67011,-0.05858 0.87824,-0.05858c0.83253,0 1.35309,0.26138 1.56166,0.78194c0.1034,0.20902 0.15621,0.40473 0.15621,0.58624c0,0.57336 -0.53342,0.91241 -1.60027,1.0167c-0.78061,0.02663 -1.56166,0.05237 -2.34183,0.07811c0.28624,3.1007 0.42958,6.08467 0.42958,8.95149v10.35916c0,0.15665 0.03329,0.45665 0.10074,0.8991c0.08876,0.67766 0.13358,1.34199 0.13358,1.99346c-0.02618,1.17291 -0.02618,2.08532 0,2.73679c0.05192,0.07811 0.1034,0.14245 0.15621,0.19482c1.27498,-0.18239 1.89938,-0.27293 1.87409,-0.27293c0.93682,0.00089 1.43075,0.37766 1.48311,1.13297z" fill="#000000" stroke="#007272" stroke-width="0.5"/><text transform="translate(134.15574,152.2143) scale(0.3469,0.3469)" font-size="40" xml:space="preserve" fill="#ffab19" fill-rule="nonzero" stroke="none" stroke-width="1" stroke-linecap="butt" stroke-linejoin="miter" stroke-miterlimit="10" stroke-dasharray="" stroke-dashoffset="0" font-family="Curly" font-weight="normal" text-anchor="start" style="mix-blend-mode: normal"><tspan x="0" dy="0">Made With</tspan></text></g></g></svg>