<svg version="1.1" xmlns="http://www.w3.org/2000/svg" xmlns:xlink="http://www.w3.org/1999/xlink" width="25.32641" height="19.09991" viewBox="0,0,25.32641,19.09991"><g transform="translate(-241.75738,-189.00819)"><g data-paper-data="{&quot;isPaintingLayer&quot;:true}" fill="#ffab19" fill-rule="evenodd" stroke="#82ffff" stroke-width="1.2" stroke-linecap="round" stroke-linejoin="round" stroke-miterlimit="10" stroke-dasharray="" stroke-dashoffset="0" style="mix-blend-mode: normal"><path d="M255.66726,196.47984c1.74727,-3.10275 3.68306,-7.58189 8.00571,-4.71578c5.30352,4.19198 -2.06634,12.54034 -4.91892,14.80149c-2.52111,2.01593 -5.36263,0.3771 -7.7741,-1.00667c-4.50749,-2.78972 -8.47034,-5.04712 -8.61207,-9.31677c-0.24648,-5.30841 4.82536,-3.50941 7.44384,-1.88659c1.58957,0.96605 3.27156,1.8939 4.33868,2.64309c0.57668,0.08625 1.16938,-0.05053 1.51686,-0.51878z"/><path d="M247.55738,190.37924c0.5,0.4 6.6,7.6 8.6,5.8c2.4,-2.1 5.7,-6.2 9.3,-2.9c3.6,3.3 -3.2,8.9 -6.1,10.4c-6.9,3.1 -12.5,-2.8 -13.7,-4.4c-1.2,-1.6 -3.3,-4.3 -3.3,-6.9c0.1,-2.8 3.5,-3.5 5.2,-2z"/></g></g></svg>